G75*
%MOIN*%
%OFA0B0*%
%FSLAX25Y25*%
%IPPOS*%
%LPD*%
%AMOC8*
5,1,8,0,0,1.08239X$1,22.5*
%
%ADD10R,3.93750X0.07500*%
%ADD11OC8,0.07400*%
%ADD12C,0.05950*%
%ADD13C,0.06000*%
%ADD14OC8,0.07100*%
%ADD15OC8,0.06000*%
%ADD16C,0.13398*%
%ADD17OC8,0.15800*%
%ADD18OC8,0.06400*%
D10*
X0280381Y0036263D03*
X0280381Y0323763D03*
D11*
X0313506Y0302513D03*
X0353506Y0302513D03*
X0373506Y0302513D03*
X0373506Y0282513D03*
X0363506Y0282513D03*
X0343506Y0272513D03*
X0333506Y0262513D03*
X0353506Y0252513D03*
X0373506Y0262513D03*
X0383506Y0272513D03*
X0393506Y0252513D03*
X0403506Y0252513D03*
X0413506Y0302513D03*
X0313506Y0252513D03*
X0303506Y0252513D03*
X0303506Y0262513D03*
X0273506Y0252513D03*
X0253506Y0252513D03*
X0233506Y0282513D03*
X0233506Y0292513D03*
X0213506Y0292513D03*
X0203506Y0292513D03*
X0183506Y0292513D03*
X0173506Y0292513D03*
X0153506Y0292513D03*
X0143506Y0292513D03*
X0143506Y0252513D03*
X0153506Y0252513D03*
X0173506Y0252513D03*
X0183506Y0252513D03*
X0203506Y0252513D03*
X0213506Y0252513D03*
X0253506Y0292513D03*
X0273506Y0292513D03*
X0133506Y0212513D03*
X0133506Y0202513D03*
X0153506Y0192513D03*
X0163506Y0192513D03*
X0153506Y0172513D03*
X0153506Y0162513D03*
X0163506Y0162513D03*
X0153506Y0152513D03*
X0153506Y0132513D03*
X0153506Y0112513D03*
X0153506Y0092513D03*
X0183506Y0072513D03*
X0193506Y0072513D03*
X0223506Y0092513D03*
X0223506Y0112513D03*
X0223506Y0132513D03*
X0223506Y0152513D03*
X0223506Y0162513D03*
X0213506Y0162513D03*
X0223506Y0172513D03*
X0253506Y0192513D03*
X0263506Y0192513D03*
X0263506Y0172513D03*
X0263506Y0152513D03*
X0263506Y0132513D03*
X0263506Y0112513D03*
X0263506Y0092513D03*
X0113506Y0092513D03*
X0113506Y0112513D03*
X0113506Y0132513D03*
X0113506Y0152513D03*
X0113506Y0172513D03*
D12*
X0313506Y0155088D02*
X0313506Y0149938D01*
X0323506Y0149938D02*
X0323506Y0155088D01*
X0333506Y0155088D02*
X0333506Y0149938D01*
X0343506Y0149938D02*
X0343506Y0155088D01*
X0353506Y0155088D02*
X0353506Y0149938D01*
X0363506Y0149938D02*
X0363506Y0155088D01*
X0373506Y0155088D02*
X0373506Y0149938D01*
X0383506Y0149938D02*
X0383506Y0155088D01*
X0393506Y0155088D02*
X0393506Y0149938D01*
X0403506Y0149938D02*
X0403506Y0155088D01*
X0403506Y0125088D02*
X0403506Y0119938D01*
X0393506Y0119938D02*
X0393506Y0125088D01*
X0383506Y0125088D02*
X0383506Y0119938D01*
X0373506Y0119938D02*
X0373506Y0125088D01*
X0363506Y0125088D02*
X0363506Y0119938D01*
X0353506Y0119938D02*
X0353506Y0125088D01*
X0343506Y0125088D02*
X0343506Y0119938D01*
X0333506Y0119938D02*
X0333506Y0125088D01*
X0323506Y0125088D02*
X0323506Y0119938D01*
X0323506Y0065088D02*
X0323506Y0059938D01*
X0333506Y0059938D02*
X0333506Y0065088D01*
X0343506Y0065088D02*
X0343506Y0059938D01*
X0353506Y0059938D02*
X0353506Y0065088D01*
X0363506Y0065088D02*
X0363506Y0059938D01*
X0373506Y0059938D02*
X0373506Y0065088D01*
X0383506Y0065088D02*
X0383506Y0059938D01*
X0393506Y0059938D02*
X0393506Y0065088D01*
X0403506Y0065088D02*
X0403506Y0059938D01*
X0413506Y0059938D02*
X0413506Y0065088D01*
X0423506Y0065088D02*
X0423506Y0059938D01*
X0433506Y0059938D02*
X0433506Y0065088D01*
X0443506Y0065088D02*
X0443506Y0059938D01*
X0453506Y0059938D02*
X0453506Y0065088D01*
X0463506Y0065088D02*
X0463506Y0059938D01*
X0463506Y0119938D02*
X0463506Y0125088D01*
X0453506Y0125088D02*
X0453506Y0119938D01*
X0443506Y0119938D02*
X0443506Y0125088D01*
X0433506Y0125088D02*
X0433506Y0119938D01*
X0423506Y0119938D02*
X0423506Y0125088D01*
X0413506Y0125088D02*
X0413506Y0119938D01*
X0403506Y0229938D02*
X0403506Y0235088D01*
X0393506Y0235088D02*
X0393506Y0229938D01*
X0383506Y0229938D02*
X0383506Y0235088D01*
X0373506Y0235088D02*
X0373506Y0229938D01*
X0363506Y0229938D02*
X0363506Y0235088D01*
X0353506Y0235088D02*
X0353506Y0229938D01*
X0343506Y0229938D02*
X0343506Y0235088D01*
X0333506Y0235088D02*
X0333506Y0229938D01*
X0323506Y0229938D02*
X0323506Y0235088D01*
X0313506Y0235088D02*
X0313506Y0229938D01*
D13*
X0266106Y0212513D02*
X0260906Y0212513D01*
X0226106Y0212513D02*
X0220906Y0212513D01*
X0206106Y0212513D02*
X0200906Y0212513D01*
X0166106Y0212513D02*
X0160906Y0212513D01*
X0170906Y0142513D02*
X0176106Y0142513D01*
X0176106Y0132513D02*
X0170906Y0132513D01*
X0170906Y0122513D02*
X0176106Y0122513D01*
X0176106Y0112513D02*
X0170906Y0112513D01*
X0170906Y0102513D02*
X0176106Y0102513D01*
X0176106Y0092513D02*
X0170906Y0092513D01*
X0170906Y0082513D02*
X0176106Y0082513D01*
X0200906Y0082513D02*
X0206106Y0082513D01*
X0206106Y0092513D02*
X0200906Y0092513D01*
X0200906Y0102513D02*
X0206106Y0102513D01*
X0206106Y0112513D02*
X0200906Y0112513D01*
X0200906Y0122513D02*
X0206106Y0122513D01*
X0206106Y0132513D02*
X0200906Y0132513D01*
X0200906Y0142513D02*
X0206106Y0142513D01*
X0220906Y0122513D02*
X0226106Y0122513D01*
X0260906Y0122513D02*
X0266106Y0122513D01*
X0156106Y0122513D02*
X0150906Y0122513D01*
X0116106Y0122513D02*
X0110906Y0122513D01*
D14*
X0273506Y0232513D03*
X0373506Y0137513D03*
X0383506Y0137513D03*
X0393506Y0137513D03*
X0403506Y0137513D03*
X0413506Y0137513D03*
X0443506Y0107513D03*
X0453506Y0107513D03*
X0463506Y0107513D03*
X0423506Y0077513D03*
X0413506Y0077513D03*
X0403506Y0077513D03*
X0393506Y0077513D03*
X0383506Y0077513D03*
X0373506Y0077513D03*
X0363506Y0077513D03*
X0353506Y0077513D03*
D15*
X0263506Y0082513D03*
X0263506Y0102513D03*
X0223506Y0102513D03*
X0223506Y0082513D03*
X0153506Y0082513D03*
X0153506Y0102513D03*
X0113506Y0102513D03*
X0113506Y0082513D03*
X0293506Y0272513D03*
X0283506Y0282513D03*
X0293506Y0292513D03*
X0323506Y0292513D03*
X0333506Y0282513D03*
X0323506Y0272513D03*
D16*
X0103506Y0052513D03*
X0103506Y0302513D03*
X0453506Y0302513D03*
D17*
X0113506Y0232513D03*
X0113506Y0192513D03*
D18*
X0286006Y0132513D03*
X0286006Y0092513D03*
X0423506Y0162513D03*
X0423506Y0232513D03*
M02*
