%
M48
M72
T01C0.02362
T02C0.03150
T03C0.03200
T04C0.03543
T05C0.07874
T06C0.12598
%
T01
X286006Y132513
X286006Y92513
X423506Y162513
X423506Y232513
T02
X313506Y152513
X323506Y152513
X333506Y152513
X343506Y152513
X353506Y152513
X363506Y152513
X373506Y152513
X383506Y152513
X323506Y122513
X333506Y122513
X343506Y122513
X353506Y122513
X363506Y122513
X373506Y122513
X393506Y122513
X403506Y122513
X393506Y152513
X353506Y232513
X313506Y232513
X323506Y232513
X333506Y232513
X343506Y232513
X363506Y232513
X433506Y62513
X413506Y62513
X403506Y62513
X393506Y62513
X383506Y62513
X373506Y62513
X363506Y62513
X353506Y62513
X343506Y62513
X333506Y62513
X323506Y62513
X423506Y62513
X453506Y62513
X443506Y62513
X433506Y122513
X423506Y122513
X413506Y122513
X403506Y152513
X403506Y232513
X443506Y122513
X453506Y122513
X463506Y122513
X393506Y232513
X383506Y232513
X373506Y232513
X463506Y62513
X383506Y122513
T03
X143506Y292513
X153506Y292513
X173506Y292513
X183506Y292513
X213506Y292513
X203506Y292513
X233506Y292513
X233506Y282513
X253506Y292513
X283506Y282513
X293506Y272513
X203506Y252513
X183506Y252513
X173506Y252513
X153506Y252513
X143506Y252513
X153506Y192513
X163506Y212513
X163506Y192513
X163506Y162513
X113506Y172513
X113506Y152513
X173506Y142513
X183506Y72513
X173506Y82513
X153506Y82513
X113506Y102513
X113506Y92513
X113506Y82513
X153506Y92513
X113506Y132513
X113506Y112513
X113506Y122513
X153506Y112513
X153506Y102513
X173506Y102513
X173506Y112513
X173506Y122513
X173506Y132513
X203506Y122513
X203506Y82513
X193506Y72513
X203506Y112513
X223506Y112513
X223506Y82513
X223506Y102513
X203506Y102513
X203506Y92513
X223506Y92513
X263506Y82513
X263506Y102513
X263506Y132513
X223506Y122513
X203506Y142513
X203506Y132513
X223506Y132513
X213506Y162513
X153506Y172513
X153506Y162513
X153506Y152513
X223506Y152513
X223506Y162513
X223506Y172513
X253506Y192513
X263506Y192513
X263506Y172513
X223506Y212513
X203506Y212513
X263506Y212513
X273506Y232513
X253506Y252513
X213506Y252513
X273506Y252513
X303506Y262513
X323506Y272513
X333506Y282513
X323506Y292513
X293506Y292513
X273506Y292513
X313506Y302513
X353506Y302513
X373506Y302513
X303506Y252513
X313506Y252513
X333506Y262513
X343506Y272513
X363506Y282513
X373506Y282513
X373506Y262513
X383506Y272513
X403506Y252513
X393506Y252513
X353506Y252513
X353506Y77513
X363506Y77513
X373506Y77513
X383506Y77513
X393506Y77513
X403506Y77513
X413506Y77513
X423506Y77513
X373506Y137513
X263506Y112513
X263506Y152513
X383506Y137513
X393506Y137513
X443506Y107513
X403506Y137513
X413506Y137513
X453506Y107513
X463506Y107513
X413506Y302513
X263506Y92513
X263506Y122513
X173506Y92513
X153506Y122513
X153506Y132513
T04
X133506Y212513
X133506Y202513
T05
X113506Y192513
X113506Y232513
T06
X103506Y302513
X103506Y52513
X453506Y302513
M30
