G75*
%MOIN*%
%OFA0B0*%
%FSLAX25Y25*%
%IPPOS*%
%LPD*%
%AMOC8*
5,1,8,0,0,1.08239X$1,22.5*
%
%ADD10C,0.00800*%
%ADD11OC8,0.06600*%
%ADD12C,0.05150*%
%ADD13C,0.05200*%
%ADD14OC8,0.06300*%
%ADD15OC8,0.05200*%
%ADD16OC8,0.15000*%
%ADD17C,0.01600*%
%ADD18C,0.02400*%
%ADD19OC8,0.05600*%
D10*
X0130307Y0067913D02*
X0130307Y0072116D01*
X0128906Y0072116D02*
X0131709Y0072116D01*
X0133510Y0071416D02*
X0133510Y0068613D01*
X0134211Y0067913D01*
X0135612Y0067913D01*
X0136313Y0068613D01*
X0136313Y0071416D01*
X0135612Y0072116D01*
X0134211Y0072116D01*
X0133510Y0071416D01*
X0138114Y0072116D02*
X0138114Y0067913D01*
X0138114Y0069314D02*
X0140216Y0069314D01*
X0140917Y0070015D01*
X0140917Y0071416D01*
X0140216Y0072116D01*
X0138114Y0072116D01*
D11*
X0153506Y0092513D03*
X0153506Y0112513D03*
X0153506Y0132513D03*
X0153506Y0152513D03*
X0153506Y0162513D03*
X0153506Y0172513D03*
X0163506Y0162513D03*
X0163506Y0192513D03*
X0153506Y0192513D03*
X0133506Y0202513D03*
X0133506Y0212513D03*
X0143506Y0252513D03*
X0153506Y0252513D03*
X0173506Y0252513D03*
X0183506Y0252513D03*
X0203506Y0252513D03*
X0213506Y0252513D03*
X0233506Y0282513D03*
X0233506Y0292513D03*
X0213506Y0292513D03*
X0203506Y0292513D03*
X0183506Y0292513D03*
X0173506Y0292513D03*
X0153506Y0292513D03*
X0143506Y0292513D03*
X0253506Y0292513D03*
X0273506Y0292513D03*
X0313506Y0302513D03*
X0353506Y0302513D03*
X0373506Y0302513D03*
X0373506Y0282513D03*
X0363506Y0282513D03*
X0343506Y0272513D03*
X0333506Y0262513D03*
X0353506Y0252513D03*
X0373506Y0262513D03*
X0383506Y0272513D03*
X0393506Y0252513D03*
X0403506Y0252513D03*
X0413506Y0302513D03*
X0313506Y0252513D03*
X0303506Y0252513D03*
X0303506Y0262513D03*
X0273506Y0252513D03*
X0253506Y0252513D03*
X0253506Y0192513D03*
X0263506Y0192513D03*
X0263506Y0172513D03*
X0263506Y0152513D03*
X0263506Y0132513D03*
X0263506Y0112513D03*
X0263506Y0092513D03*
X0223506Y0092513D03*
X0193506Y0072513D03*
X0183506Y0072513D03*
X0223506Y0112513D03*
X0223506Y0132513D03*
X0223506Y0152513D03*
X0223506Y0162513D03*
X0213506Y0162513D03*
X0223506Y0172513D03*
X0113506Y0172513D03*
X0113506Y0152513D03*
X0113506Y0132513D03*
X0113506Y0112513D03*
X0113506Y0092513D03*
D12*
X0313506Y0149938D02*
X0313506Y0155088D01*
X0323506Y0155088D02*
X0323506Y0149938D01*
X0333506Y0149938D02*
X0333506Y0155088D01*
X0343506Y0155088D02*
X0343506Y0149938D01*
X0353506Y0149938D02*
X0353506Y0155088D01*
X0363506Y0155088D02*
X0363506Y0149938D01*
X0373506Y0149938D02*
X0373506Y0155088D01*
X0383506Y0155088D02*
X0383506Y0149938D01*
X0393506Y0149938D02*
X0393506Y0155088D01*
X0403506Y0155088D02*
X0403506Y0149938D01*
X0403506Y0125088D02*
X0403506Y0119938D01*
X0393506Y0119938D02*
X0393506Y0125088D01*
X0383506Y0125088D02*
X0383506Y0119938D01*
X0373506Y0119938D02*
X0373506Y0125088D01*
X0363506Y0125088D02*
X0363506Y0119938D01*
X0353506Y0119938D02*
X0353506Y0125088D01*
X0343506Y0125088D02*
X0343506Y0119938D01*
X0333506Y0119938D02*
X0333506Y0125088D01*
X0323506Y0125088D02*
X0323506Y0119938D01*
X0323506Y0065088D02*
X0323506Y0059938D01*
X0333506Y0059938D02*
X0333506Y0065088D01*
X0343506Y0065088D02*
X0343506Y0059938D01*
X0353506Y0059938D02*
X0353506Y0065088D01*
X0363506Y0065088D02*
X0363506Y0059938D01*
X0373506Y0059938D02*
X0373506Y0065088D01*
X0383506Y0065088D02*
X0383506Y0059938D01*
X0393506Y0059938D02*
X0393506Y0065088D01*
X0403506Y0065088D02*
X0403506Y0059938D01*
X0413506Y0059938D02*
X0413506Y0065088D01*
X0423506Y0065088D02*
X0423506Y0059938D01*
X0433506Y0059938D02*
X0433506Y0065088D01*
X0443506Y0065088D02*
X0443506Y0059938D01*
X0453506Y0059938D02*
X0453506Y0065088D01*
X0463506Y0065088D02*
X0463506Y0059938D01*
X0463506Y0119938D02*
X0463506Y0125088D01*
X0453506Y0125088D02*
X0453506Y0119938D01*
X0443506Y0119938D02*
X0443506Y0125088D01*
X0433506Y0125088D02*
X0433506Y0119938D01*
X0423506Y0119938D02*
X0423506Y0125088D01*
X0413506Y0125088D02*
X0413506Y0119938D01*
X0403506Y0229938D02*
X0403506Y0235088D01*
X0393506Y0235088D02*
X0393506Y0229938D01*
X0383506Y0229938D02*
X0383506Y0235088D01*
X0373506Y0235088D02*
X0373506Y0229938D01*
X0363506Y0229938D02*
X0363506Y0235088D01*
X0353506Y0235088D02*
X0353506Y0229938D01*
X0343506Y0229938D02*
X0343506Y0235088D01*
X0333506Y0235088D02*
X0333506Y0229938D01*
X0323506Y0229938D02*
X0323506Y0235088D01*
X0313506Y0235088D02*
X0313506Y0229938D01*
D13*
X0266106Y0212513D02*
X0260906Y0212513D01*
X0226106Y0212513D02*
X0220906Y0212513D01*
X0206106Y0212513D02*
X0200906Y0212513D01*
X0166106Y0212513D02*
X0160906Y0212513D01*
X0170906Y0142513D02*
X0176106Y0142513D01*
X0176106Y0132513D02*
X0170906Y0132513D01*
X0170906Y0122513D02*
X0176106Y0122513D01*
X0176106Y0112513D02*
X0170906Y0112513D01*
X0170906Y0102513D02*
X0176106Y0102513D01*
X0176106Y0092513D02*
X0170906Y0092513D01*
X0170906Y0082513D02*
X0176106Y0082513D01*
X0200906Y0082513D02*
X0206106Y0082513D01*
X0206106Y0092513D02*
X0200906Y0092513D01*
X0200906Y0102513D02*
X0206106Y0102513D01*
X0206106Y0112513D02*
X0200906Y0112513D01*
X0200906Y0122513D02*
X0206106Y0122513D01*
X0206106Y0132513D02*
X0200906Y0132513D01*
X0200906Y0142513D02*
X0206106Y0142513D01*
X0220906Y0122513D02*
X0226106Y0122513D01*
X0260906Y0122513D02*
X0266106Y0122513D01*
X0156106Y0122513D02*
X0150906Y0122513D01*
X0116106Y0122513D02*
X0110906Y0122513D01*
D14*
X0273506Y0232513D03*
X0373506Y0137513D03*
X0383506Y0137513D03*
X0393506Y0137513D03*
X0403506Y0137513D03*
X0413506Y0137513D03*
X0443506Y0107513D03*
X0453506Y0107513D03*
X0463506Y0107513D03*
X0423506Y0077513D03*
X0413506Y0077513D03*
X0403506Y0077513D03*
X0393506Y0077513D03*
X0383506Y0077513D03*
X0373506Y0077513D03*
X0363506Y0077513D03*
X0353506Y0077513D03*
D15*
X0263506Y0082513D03*
X0263506Y0102513D03*
X0223506Y0102513D03*
X0223506Y0082513D03*
X0153506Y0082513D03*
X0153506Y0102513D03*
X0113506Y0102513D03*
X0113506Y0082513D03*
X0293506Y0272513D03*
X0283506Y0282513D03*
X0293506Y0292513D03*
X0323506Y0292513D03*
X0333506Y0282513D03*
X0323506Y0272513D03*
D16*
X0113506Y0232513D03*
X0113506Y0192513D03*
D17*
X0084406Y0326888D02*
X0084406Y0033413D01*
X0476307Y0033413D01*
X0476307Y0326888D01*
X0084406Y0326888D01*
X0084406Y0326639D02*
X0476307Y0326639D01*
X0476307Y0325040D02*
X0084406Y0325040D01*
X0084406Y0323442D02*
X0476307Y0323442D01*
X0476307Y0321843D02*
X0084406Y0321843D01*
X0084406Y0320245D02*
X0476307Y0320245D01*
X0476307Y0318646D02*
X0457476Y0318646D01*
X0459644Y0318151D02*
X0454762Y0319266D01*
X0449768Y0318892D01*
X0445106Y0317062D01*
X0441191Y0313940D01*
X0441191Y0313940D01*
X0441191Y0313940D01*
X0438370Y0309802D01*
X0436894Y0305017D01*
X0436894Y0300009D01*
X0438370Y0295224D01*
X0438370Y0295223D01*
X0441191Y0291086D01*
X0441191Y0291086D01*
X0445106Y0287964D01*
X0449768Y0286134D01*
X0454762Y0285760D01*
X0459644Y0286874D01*
X0463981Y0289378D01*
X0467387Y0293049D01*
X0469560Y0297561D01*
X0470306Y0302513D01*
X0469560Y0307465D01*
X0467387Y0311977D01*
X0463981Y0315648D01*
X0459644Y0318151D01*
X0459644Y0318151D01*
X0461556Y0317048D02*
X0476307Y0317048D01*
X0476307Y0315449D02*
X0464165Y0315449D01*
X0463981Y0315648D02*
X0463981Y0315648D01*
X0465648Y0313851D02*
X0476307Y0313851D01*
X0476307Y0312252D02*
X0467131Y0312252D01*
X0467387Y0311977D02*
X0467387Y0311977D01*
X0468024Y0310654D02*
X0476307Y0310654D01*
X0476307Y0309055D02*
X0468794Y0309055D01*
X0469560Y0307465D02*
X0469560Y0307465D01*
X0469561Y0307457D02*
X0476307Y0307457D01*
X0476307Y0305858D02*
X0469802Y0305858D01*
X0470043Y0304260D02*
X0476307Y0304260D01*
X0476307Y0302661D02*
X0470284Y0302661D01*
X0470088Y0301063D02*
X0476307Y0301063D01*
X0476307Y0299464D02*
X0469847Y0299464D01*
X0469606Y0297866D02*
X0476307Y0297866D01*
X0476307Y0296267D02*
X0468937Y0296267D01*
X0469560Y0297561D02*
X0469560Y0297561D01*
X0468167Y0294669D02*
X0476307Y0294669D01*
X0476307Y0293070D02*
X0467397Y0293070D01*
X0467387Y0293049D02*
X0467387Y0293049D01*
X0465923Y0291472D02*
X0476307Y0291472D01*
X0476307Y0289873D02*
X0464440Y0289873D01*
X0463981Y0289378D02*
X0463981Y0289378D01*
X0463981Y0289378D01*
X0462070Y0288275D02*
X0476307Y0288275D01*
X0476307Y0286676D02*
X0458776Y0286676D01*
X0459644Y0286874D02*
X0459644Y0286874D01*
X0454762Y0285760D02*
X0454762Y0285760D01*
X0449768Y0286134D02*
X0449768Y0286134D01*
X0448387Y0286676D02*
X0377404Y0286676D01*
X0375867Y0288213D02*
X0379206Y0284874D01*
X0379206Y0280152D01*
X0375867Y0276813D01*
X0371145Y0276813D01*
X0368506Y0279452D01*
X0365867Y0276813D01*
X0361145Y0276813D01*
X0357806Y0280152D01*
X0357806Y0284874D01*
X0361145Y0288213D01*
X0365867Y0288213D01*
X0368506Y0285574D01*
X0371145Y0288213D01*
X0375867Y0288213D01*
X0379003Y0285078D02*
X0476307Y0285078D01*
X0476307Y0283479D02*
X0379206Y0283479D01*
X0379206Y0281881D02*
X0476307Y0281881D01*
X0476307Y0280282D02*
X0379206Y0280282D01*
X0377738Y0278684D02*
X0476307Y0278684D01*
X0476307Y0277085D02*
X0386995Y0277085D01*
X0385867Y0278213D02*
X0389206Y0274874D01*
X0389206Y0270152D01*
X0385867Y0266813D01*
X0381145Y0266813D01*
X0377806Y0270152D01*
X0377806Y0274874D01*
X0381145Y0278213D01*
X0385867Y0278213D01*
X0388594Y0275486D02*
X0476307Y0275486D01*
X0476307Y0273888D02*
X0389206Y0273888D01*
X0389206Y0272289D02*
X0476307Y0272289D01*
X0476307Y0270691D02*
X0389206Y0270691D01*
X0388147Y0269092D02*
X0476307Y0269092D01*
X0476307Y0267494D02*
X0386548Y0267494D01*
X0380464Y0267494D02*
X0376586Y0267494D01*
X0375867Y0268213D02*
X0371145Y0268213D01*
X0367806Y0264874D01*
X0367806Y0260152D01*
X0371145Y0256813D01*
X0375867Y0256813D01*
X0379206Y0260152D01*
X0379206Y0264874D01*
X0375867Y0268213D01*
X0378866Y0269092D02*
X0347298Y0269092D01*
X0348606Y0270400D02*
X0345619Y0267413D01*
X0343506Y0267413D01*
X0343506Y0272513D01*
X0343506Y0272513D01*
X0338406Y0272513D01*
X0338406Y0274625D01*
X0341394Y0277613D01*
X0343506Y0277613D01*
X0343506Y0272513D01*
X0343506Y0272513D01*
X0338406Y0272513D01*
X0338406Y0270400D01*
X0341394Y0267413D01*
X0343506Y0267413D01*
X0343506Y0272513D01*
X0343506Y0277613D01*
X0345619Y0277613D01*
X0348606Y0274625D01*
X0348606Y0272513D01*
X0343506Y0272513D01*
X0343506Y0272513D01*
X0343506Y0272513D01*
X0348606Y0272513D01*
X0348606Y0270400D01*
X0348606Y0270691D02*
X0377806Y0270691D01*
X0377806Y0272289D02*
X0348606Y0272289D01*
X0348606Y0273888D02*
X0377806Y0273888D01*
X0378419Y0275486D02*
X0347745Y0275486D01*
X0346147Y0277085D02*
X0360873Y0277085D01*
X0359275Y0278684D02*
X0336748Y0278684D01*
X0335577Y0277513D02*
X0338506Y0280442D01*
X0338506Y0284584D01*
X0335577Y0287513D01*
X0331435Y0287513D01*
X0328506Y0284584D01*
X0328506Y0280442D01*
X0331435Y0277513D01*
X0335577Y0277513D01*
X0338347Y0280282D02*
X0357806Y0280282D01*
X0357806Y0281881D02*
X0338506Y0281881D01*
X0338506Y0283479D02*
X0357806Y0283479D01*
X0358010Y0285078D02*
X0338013Y0285078D01*
X0336414Y0286676D02*
X0359609Y0286676D01*
X0367404Y0286676D02*
X0369609Y0286676D01*
X0369275Y0278684D02*
X0367738Y0278684D01*
X0366140Y0277085D02*
X0370873Y0277085D01*
X0376140Y0277085D02*
X0380018Y0277085D01*
X0370426Y0267494D02*
X0345700Y0267494D01*
X0343506Y0267494D02*
X0343506Y0267494D01*
X0343506Y0269092D02*
X0343506Y0269092D01*
X0343506Y0270691D02*
X0343506Y0270691D01*
X0343506Y0272289D02*
X0343506Y0272289D01*
X0343506Y0273888D02*
X0343506Y0273888D01*
X0343506Y0275486D02*
X0343506Y0275486D01*
X0343506Y0277085D02*
X0343506Y0277085D01*
X0340866Y0277085D02*
X0296005Y0277085D01*
X0295577Y0277513D02*
X0298506Y0274584D01*
X0298506Y0270442D01*
X0295577Y0267513D01*
X0291435Y0267513D01*
X0288506Y0270442D01*
X0288506Y0274584D01*
X0291435Y0277513D01*
X0295577Y0277513D01*
X0297604Y0275486D02*
X0320257Y0275486D01*
X0319106Y0274335D02*
X0319106Y0272513D01*
X0323506Y0272513D01*
X0323506Y0272513D01*
X0323506Y0276913D01*
X0321684Y0276913D01*
X0319106Y0274335D01*
X0319106Y0273888D02*
X0298506Y0273888D01*
X0298506Y0272289D02*
X0319106Y0272289D01*
X0319106Y0272513D02*
X0319106Y0270690D01*
X0321684Y0268113D01*
X0323506Y0268113D01*
X0323506Y0272513D01*
X0323506Y0272513D01*
X0319106Y0272513D01*
X0319106Y0270691D02*
X0298506Y0270691D01*
X0297157Y0269092D02*
X0320704Y0269092D01*
X0323506Y0269092D02*
X0323506Y0269092D01*
X0323506Y0268113D02*
X0325329Y0268113D01*
X0327906Y0270690D01*
X0327906Y0272513D01*
X0327906Y0274335D01*
X0325329Y0276913D01*
X0323506Y0276913D01*
X0323506Y0272513D01*
X0323506Y0272513D01*
X0327906Y0272513D01*
X0323506Y0272513D01*
X0323506Y0272513D01*
X0323506Y0268113D01*
X0323506Y0270691D02*
X0323506Y0270691D01*
X0323506Y0272289D02*
X0323506Y0272289D01*
X0323506Y0273888D02*
X0323506Y0273888D01*
X0323506Y0275486D02*
X0323506Y0275486D01*
X0326755Y0275486D02*
X0339268Y0275486D01*
X0338406Y0273888D02*
X0327906Y0273888D01*
X0327906Y0272289D02*
X0338406Y0272289D01*
X0338406Y0270691D02*
X0327906Y0270691D01*
X0326309Y0269092D02*
X0339714Y0269092D01*
X0341313Y0267494D02*
X0336586Y0267494D01*
X0335867Y0268213D02*
X0331145Y0268213D01*
X0327806Y0264874D01*
X0327806Y0260152D01*
X0331145Y0256813D01*
X0335867Y0256813D01*
X0339206Y0260152D01*
X0339206Y0264874D01*
X0335867Y0268213D01*
X0338185Y0265895D02*
X0368828Y0265895D01*
X0367806Y0264297D02*
X0339206Y0264297D01*
X0339206Y0262698D02*
X0367806Y0262698D01*
X0367806Y0261100D02*
X0339206Y0261100D01*
X0338556Y0259501D02*
X0368457Y0259501D01*
X0370055Y0257903D02*
X0356177Y0257903D01*
X0355867Y0258213D02*
X0351145Y0258213D01*
X0347806Y0254874D01*
X0347806Y0250152D01*
X0351145Y0246813D01*
X0355867Y0246813D01*
X0359206Y0250152D01*
X0359206Y0254874D01*
X0355867Y0258213D01*
X0357776Y0256304D02*
X0390085Y0256304D01*
X0391394Y0257613D02*
X0388406Y0254625D01*
X0388406Y0252513D01*
X0393506Y0252513D01*
X0393506Y0257613D01*
X0391394Y0257613D01*
X0393506Y0257613D02*
X0393506Y0252513D01*
X0393506Y0252513D01*
X0393506Y0252513D01*
X0388406Y0252513D01*
X0388406Y0250400D01*
X0391394Y0247413D01*
X0393506Y0247413D01*
X0393506Y0252513D01*
X0393506Y0252513D01*
X0393506Y0247413D01*
X0395619Y0247413D01*
X0398082Y0249876D01*
X0401145Y0246813D01*
X0405867Y0246813D01*
X0409206Y0250152D01*
X0409206Y0254874D01*
X0405867Y0258213D01*
X0401145Y0258213D01*
X0398082Y0255149D01*
X0395619Y0257613D01*
X0393506Y0257613D01*
X0393506Y0256304D02*
X0393506Y0256304D01*
X0393506Y0254706D02*
X0393506Y0254706D01*
X0393506Y0253107D02*
X0393506Y0253107D01*
X0393506Y0251509D02*
X0393506Y0251509D01*
X0393506Y0249910D02*
X0393506Y0249910D01*
X0393506Y0248312D02*
X0393506Y0248312D01*
X0390495Y0248312D02*
X0357366Y0248312D01*
X0358965Y0249910D02*
X0388896Y0249910D01*
X0388406Y0251509D02*
X0359206Y0251509D01*
X0359206Y0253107D02*
X0388406Y0253107D01*
X0388487Y0254706D02*
X0359206Y0254706D01*
X0350835Y0257903D02*
X0336957Y0257903D01*
X0330055Y0257903D02*
X0316177Y0257903D01*
X0315867Y0258213D02*
X0319206Y0254874D01*
X0319206Y0250152D01*
X0315867Y0246813D01*
X0311145Y0246813D01*
X0308506Y0249452D01*
X0305867Y0246813D01*
X0301145Y0246813D01*
X0297806Y0250152D01*
X0297806Y0254874D01*
X0300870Y0257937D01*
X0298406Y0260400D01*
X0298406Y0262513D01*
X0303506Y0262513D01*
X0303506Y0262513D01*
X0303506Y0267613D01*
X0301394Y0267613D01*
X0298406Y0264625D01*
X0298406Y0262513D01*
X0303506Y0262513D01*
X0303506Y0262513D01*
X0303506Y0267613D01*
X0305619Y0267613D01*
X0308606Y0264625D01*
X0308606Y0262513D01*
X0303506Y0262513D01*
X0303506Y0262513D01*
X0308606Y0262513D01*
X0308606Y0260400D01*
X0306143Y0257937D01*
X0308506Y0255574D01*
X0311145Y0258213D01*
X0315867Y0258213D01*
X0317776Y0256304D02*
X0349237Y0256304D01*
X0347806Y0254706D02*
X0319206Y0254706D01*
X0319206Y0253107D02*
X0347806Y0253107D01*
X0347806Y0251509D02*
X0319206Y0251509D01*
X0318965Y0249910D02*
X0348048Y0249910D01*
X0349646Y0248312D02*
X0317366Y0248312D01*
X0309646Y0248312D02*
X0307366Y0248312D01*
X0299646Y0248312D02*
X0277366Y0248312D01*
X0275867Y0246813D02*
X0279206Y0250152D01*
X0279206Y0254874D01*
X0275867Y0258213D01*
X0271145Y0258213D01*
X0267806Y0254874D01*
X0267806Y0250152D01*
X0271145Y0246813D01*
X0275867Y0246813D01*
X0278965Y0249910D02*
X0298048Y0249910D01*
X0297806Y0251509D02*
X0279206Y0251509D01*
X0279206Y0253107D02*
X0297806Y0253107D01*
X0297806Y0254706D02*
X0279206Y0254706D01*
X0277776Y0256304D02*
X0299237Y0256304D01*
X0300835Y0257903D02*
X0276177Y0257903D01*
X0270835Y0257903D02*
X0216177Y0257903D01*
X0215867Y0258213D02*
X0211145Y0258213D01*
X0208506Y0255574D01*
X0205867Y0258213D01*
X0201145Y0258213D01*
X0197806Y0254874D01*
X0197806Y0250152D01*
X0201145Y0246813D01*
X0205867Y0246813D01*
X0208506Y0249452D01*
X0211145Y0246813D01*
X0215867Y0246813D01*
X0219206Y0250152D01*
X0219206Y0254874D01*
X0215867Y0258213D01*
X0217776Y0256304D02*
X0250085Y0256304D01*
X0251394Y0257613D02*
X0248406Y0254625D01*
X0248406Y0252513D01*
X0253506Y0252513D01*
X0253506Y0252513D01*
X0253506Y0257613D01*
X0251394Y0257613D01*
X0253506Y0257613D02*
X0253506Y0252513D01*
X0253506Y0252513D01*
X0248406Y0252513D01*
X0248406Y0250400D01*
X0251394Y0247413D01*
X0253506Y0247413D01*
X0253506Y0252513D01*
X0253506Y0252513D01*
X0258606Y0252513D01*
X0258606Y0254625D01*
X0255619Y0257613D01*
X0253506Y0257613D01*
X0253506Y0256304D02*
X0253506Y0256304D01*
X0253506Y0254706D02*
X0253506Y0254706D01*
X0253506Y0253107D02*
X0253506Y0253107D01*
X0253506Y0252513D02*
X0253506Y0252513D01*
X0253506Y0247413D01*
X0255619Y0247413D01*
X0258606Y0250400D01*
X0258606Y0252513D01*
X0253506Y0252513D01*
X0253506Y0251509D02*
X0253506Y0251509D01*
X0253506Y0249910D02*
X0253506Y0249910D01*
X0253506Y0248312D02*
X0253506Y0248312D01*
X0250495Y0248312D02*
X0217366Y0248312D01*
X0218965Y0249910D02*
X0248896Y0249910D01*
X0248406Y0251509D02*
X0219206Y0251509D01*
X0219206Y0253107D02*
X0248406Y0253107D01*
X0248487Y0254706D02*
X0219206Y0254706D01*
X0210835Y0257903D02*
X0206177Y0257903D01*
X0207776Y0256304D02*
X0209237Y0256304D01*
X0200835Y0257903D02*
X0186177Y0257903D01*
X0185867Y0258213D02*
X0181145Y0258213D01*
X0178506Y0255574D01*
X0175867Y0258213D01*
X0171145Y0258213D01*
X0167806Y0254874D01*
X0167806Y0250152D01*
X0171145Y0246813D01*
X0175867Y0246813D01*
X0178506Y0249452D01*
X0181145Y0246813D01*
X0185867Y0246813D01*
X0189206Y0250152D01*
X0189206Y0254874D01*
X0185867Y0258213D01*
X0187776Y0256304D02*
X0199237Y0256304D01*
X0197806Y0254706D02*
X0189206Y0254706D01*
X0189206Y0253107D02*
X0197806Y0253107D01*
X0197806Y0251509D02*
X0189206Y0251509D01*
X0188965Y0249910D02*
X0198048Y0249910D01*
X0199646Y0248312D02*
X0187366Y0248312D01*
X0179646Y0248312D02*
X0177366Y0248312D01*
X0169646Y0248312D02*
X0157366Y0248312D01*
X0155867Y0246813D02*
X0159206Y0250152D01*
X0159206Y0254874D01*
X0155867Y0258213D01*
X0151145Y0258213D01*
X0148506Y0255574D01*
X0145867Y0258213D01*
X0141145Y0258213D01*
X0137806Y0254874D01*
X0137806Y0250152D01*
X0141145Y0246813D01*
X0145867Y0246813D01*
X0148506Y0249452D01*
X0151145Y0246813D01*
X0155867Y0246813D01*
X0158965Y0249910D02*
X0168048Y0249910D01*
X0167806Y0251509D02*
X0159206Y0251509D01*
X0159206Y0253107D02*
X0167806Y0253107D01*
X0167806Y0254706D02*
X0159206Y0254706D01*
X0157776Y0256304D02*
X0169237Y0256304D01*
X0170835Y0257903D02*
X0156177Y0257903D01*
X0150835Y0257903D02*
X0146177Y0257903D01*
X0147776Y0256304D02*
X0149237Y0256304D01*
X0140835Y0257903D02*
X0084406Y0257903D01*
X0084406Y0259501D02*
X0299305Y0259501D01*
X0298406Y0261100D02*
X0084406Y0261100D01*
X0084406Y0262698D02*
X0298406Y0262698D01*
X0298406Y0264297D02*
X0084406Y0264297D01*
X0084406Y0265895D02*
X0299676Y0265895D01*
X0301275Y0267494D02*
X0084406Y0267494D01*
X0084406Y0269092D02*
X0289856Y0269092D01*
X0288506Y0270691D02*
X0084406Y0270691D01*
X0084406Y0272289D02*
X0288506Y0272289D01*
X0288506Y0273888D02*
X0084406Y0273888D01*
X0084406Y0275486D02*
X0289409Y0275486D01*
X0291007Y0277085D02*
X0236140Y0277085D01*
X0235867Y0276813D02*
X0239206Y0280152D01*
X0239206Y0284874D01*
X0236567Y0287513D01*
X0239206Y0290152D01*
X0239206Y0294874D01*
X0235867Y0298213D01*
X0231145Y0298213D01*
X0227806Y0294874D01*
X0227806Y0290152D01*
X0230445Y0287513D01*
X0227806Y0284874D01*
X0227806Y0280152D01*
X0231145Y0276813D01*
X0235867Y0276813D01*
X0237738Y0278684D02*
X0280264Y0278684D01*
X0281435Y0277513D02*
X0285577Y0277513D01*
X0288506Y0280442D01*
X0288506Y0284584D01*
X0285577Y0287513D01*
X0281435Y0287513D01*
X0278506Y0284584D01*
X0278506Y0280442D01*
X0281435Y0277513D01*
X0278666Y0280282D02*
X0239206Y0280282D01*
X0239206Y0281881D02*
X0278506Y0281881D01*
X0278506Y0283479D02*
X0239206Y0283479D01*
X0239003Y0285078D02*
X0279000Y0285078D01*
X0280599Y0286676D02*
X0237404Y0286676D01*
X0237329Y0288275D02*
X0249683Y0288275D01*
X0251145Y0286813D02*
X0247806Y0290152D01*
X0247806Y0294874D01*
X0251145Y0298213D01*
X0255867Y0298213D01*
X0259206Y0294874D01*
X0259206Y0290152D01*
X0255867Y0286813D01*
X0251145Y0286813D01*
X0248085Y0289873D02*
X0238928Y0289873D01*
X0239206Y0291472D02*
X0247806Y0291472D01*
X0247806Y0293070D02*
X0239206Y0293070D01*
X0239206Y0294669D02*
X0247806Y0294669D01*
X0249200Y0296267D02*
X0237813Y0296267D01*
X0236214Y0297866D02*
X0250798Y0297866D01*
X0256214Y0297866D02*
X0270798Y0297866D01*
X0271145Y0298213D02*
X0267806Y0294874D01*
X0267806Y0290152D01*
X0271145Y0286813D01*
X0275867Y0286813D01*
X0279206Y0290152D01*
X0279206Y0294874D01*
X0275867Y0298213D01*
X0271145Y0298213D01*
X0269200Y0296267D02*
X0257813Y0296267D01*
X0259206Y0294669D02*
X0267806Y0294669D01*
X0267806Y0293070D02*
X0259206Y0293070D01*
X0259206Y0291472D02*
X0267806Y0291472D01*
X0268085Y0289873D02*
X0258928Y0289873D01*
X0257329Y0288275D02*
X0269683Y0288275D01*
X0277329Y0288275D02*
X0290673Y0288275D01*
X0291435Y0287513D02*
X0295577Y0287513D01*
X0298506Y0290442D01*
X0298506Y0294584D01*
X0295577Y0297513D01*
X0291435Y0297513D01*
X0288506Y0294584D01*
X0288506Y0290442D01*
X0291435Y0287513D01*
X0289075Y0289873D02*
X0278928Y0289873D01*
X0279206Y0291472D02*
X0288506Y0291472D01*
X0288506Y0293070D02*
X0279206Y0293070D01*
X0279206Y0294669D02*
X0288591Y0294669D01*
X0290190Y0296267D02*
X0277813Y0296267D01*
X0276214Y0297866D02*
X0310092Y0297866D01*
X0311145Y0296813D02*
X0307806Y0300152D01*
X0307806Y0304874D01*
X0311145Y0308213D01*
X0315867Y0308213D01*
X0319206Y0304874D01*
X0319206Y0300152D01*
X0315867Y0296813D01*
X0311145Y0296813D01*
X0308494Y0299464D02*
X0119847Y0299464D01*
X0119606Y0297866D02*
X0140798Y0297866D01*
X0141145Y0298213D02*
X0137806Y0294874D01*
X0137806Y0290152D01*
X0141145Y0286813D01*
X0145867Y0286813D01*
X0148506Y0289452D01*
X0151145Y0286813D01*
X0155867Y0286813D01*
X0159206Y0290152D01*
X0159206Y0294874D01*
X0155867Y0298213D01*
X0151145Y0298213D01*
X0148506Y0295574D01*
X0145867Y0298213D01*
X0141145Y0298213D01*
X0139200Y0296267D02*
X0118937Y0296267D01*
X0119560Y0297561D02*
X0117387Y0293049D01*
X0117387Y0293049D01*
X0113981Y0289378D01*
X0113981Y0289378D01*
X0113981Y0289378D01*
X0109644Y0286874D01*
X0109644Y0286874D01*
X0104762Y0285760D01*
X0104762Y0285760D01*
X0099768Y0286134D01*
X0099768Y0286134D01*
X0095106Y0287964D01*
X0095106Y0287964D01*
X0091191Y0291086D01*
X0091191Y0291086D01*
X0088370Y0295223D01*
X0088370Y0295224D01*
X0086894Y0300009D01*
X0086894Y0305017D01*
X0088370Y0309802D01*
X0088370Y0309802D01*
X0091191Y0313940D01*
X0091191Y0313940D01*
X0091191Y0313940D01*
X0095106Y0317062D01*
X0095106Y0317062D01*
X0099768Y0318892D01*
X0099768Y0318892D01*
X0104762Y0319266D01*
X0104762Y0319266D01*
X0109644Y0318151D01*
X0109644Y0318151D01*
X0113981Y0315648D01*
X0113981Y0315648D01*
X0117387Y0311977D01*
X0117387Y0311977D01*
X0119560Y0307465D01*
X0119560Y0307465D01*
X0120306Y0302513D01*
X0119560Y0297561D01*
X0119560Y0297561D01*
X0118167Y0294669D02*
X0137806Y0294669D01*
X0137806Y0293070D02*
X0117397Y0293070D01*
X0115923Y0291472D02*
X0137806Y0291472D01*
X0138085Y0289873D02*
X0114440Y0289873D01*
X0112070Y0288275D02*
X0139683Y0288275D01*
X0147329Y0288275D02*
X0149683Y0288275D01*
X0157329Y0288275D02*
X0169683Y0288275D01*
X0171145Y0286813D02*
X0167806Y0290152D01*
X0167806Y0294874D01*
X0171145Y0298213D01*
X0175867Y0298213D01*
X0178506Y0295574D01*
X0181145Y0298213D01*
X0185867Y0298213D01*
X0189206Y0294874D01*
X0189206Y0290152D01*
X0185867Y0286813D01*
X0181145Y0286813D01*
X0178506Y0289452D01*
X0175867Y0286813D01*
X0171145Y0286813D01*
X0168085Y0289873D02*
X0158928Y0289873D01*
X0159206Y0291472D02*
X0167806Y0291472D01*
X0167806Y0293070D02*
X0159206Y0293070D01*
X0159206Y0294669D02*
X0167806Y0294669D01*
X0169200Y0296267D02*
X0157813Y0296267D01*
X0156214Y0297866D02*
X0170798Y0297866D01*
X0176214Y0297866D02*
X0180798Y0297866D01*
X0179200Y0296267D02*
X0177813Y0296267D01*
X0186214Y0297866D02*
X0230798Y0297866D01*
X0229200Y0296267D02*
X0216964Y0296267D01*
X0215619Y0297613D02*
X0213506Y0297613D01*
X0211394Y0297613D01*
X0208506Y0294725D01*
X0205619Y0297613D01*
X0203506Y0297613D01*
X0201394Y0297613D01*
X0198406Y0294625D01*
X0198406Y0292513D01*
X0203506Y0292513D01*
X0203506Y0292513D01*
X0203506Y0297613D01*
X0203506Y0292513D01*
X0203506Y0292513D01*
X0198406Y0292513D01*
X0198406Y0290400D01*
X0201394Y0287413D01*
X0203506Y0287413D01*
X0203506Y0292513D01*
X0203506Y0292513D01*
X0213506Y0292513D01*
X0213506Y0297613D01*
X0213506Y0292513D01*
X0213506Y0292513D01*
X0213506Y0292513D01*
X0208406Y0292513D01*
X0203506Y0292513D01*
X0203506Y0292513D01*
X0203506Y0287413D01*
X0205619Y0287413D01*
X0208506Y0290300D01*
X0211394Y0287413D01*
X0213506Y0287413D01*
X0213506Y0292513D01*
X0213506Y0292513D01*
X0218606Y0292513D01*
X0218606Y0294625D01*
X0215619Y0297613D01*
X0213506Y0296267D02*
X0213506Y0296267D01*
X0213506Y0294669D02*
X0213506Y0294669D01*
X0213506Y0293070D02*
X0213506Y0293070D01*
X0213506Y0292513D02*
X0213506Y0292513D01*
X0213506Y0287413D01*
X0215619Y0287413D01*
X0218606Y0290400D01*
X0218606Y0292513D01*
X0213506Y0292513D01*
X0213506Y0291472D02*
X0213506Y0291472D01*
X0213506Y0289873D02*
X0213506Y0289873D01*
X0213506Y0288275D02*
X0213506Y0288275D01*
X0210532Y0288275D02*
X0206481Y0288275D01*
X0208079Y0289873D02*
X0208933Y0289873D01*
X0216481Y0288275D02*
X0229683Y0288275D01*
X0229609Y0286676D02*
X0108776Y0286676D01*
X0098387Y0286676D02*
X0084406Y0286676D01*
X0084406Y0285078D02*
X0228010Y0285078D01*
X0227806Y0283479D02*
X0084406Y0283479D01*
X0084406Y0281881D02*
X0227806Y0281881D01*
X0227806Y0280282D02*
X0084406Y0280282D01*
X0084406Y0278684D02*
X0229275Y0278684D01*
X0230873Y0277085D02*
X0084406Y0277085D01*
X0084406Y0288275D02*
X0094716Y0288275D01*
X0092712Y0289873D02*
X0084406Y0289873D01*
X0084406Y0291472D02*
X0090928Y0291472D01*
X0091191Y0291086D02*
X0091191Y0291086D01*
X0089838Y0293070D02*
X0084406Y0293070D01*
X0084406Y0294669D02*
X0088748Y0294669D01*
X0088048Y0296267D02*
X0084406Y0296267D01*
X0084406Y0297866D02*
X0087555Y0297866D01*
X0087062Y0299464D02*
X0084406Y0299464D01*
X0084406Y0301063D02*
X0086894Y0301063D01*
X0086894Y0302661D02*
X0084406Y0302661D01*
X0084406Y0304260D02*
X0086894Y0304260D01*
X0087154Y0305858D02*
X0084406Y0305858D01*
X0084406Y0307457D02*
X0087647Y0307457D01*
X0088140Y0309055D02*
X0084406Y0309055D01*
X0084406Y0310654D02*
X0088951Y0310654D01*
X0090041Y0312252D02*
X0084406Y0312252D01*
X0084406Y0313851D02*
X0091130Y0313851D01*
X0093084Y0315449D02*
X0084406Y0315449D01*
X0084406Y0317048D02*
X0095088Y0317048D01*
X0099143Y0318646D02*
X0084406Y0318646D01*
X0107476Y0318646D02*
X0449143Y0318646D01*
X0449768Y0318892D02*
X0449768Y0318892D01*
X0454762Y0319266D02*
X0454762Y0319266D01*
X0445106Y0317062D02*
X0445106Y0317062D01*
X0445088Y0317048D02*
X0111556Y0317048D01*
X0114165Y0315449D02*
X0443084Y0315449D01*
X0441130Y0313851D02*
X0115648Y0313851D01*
X0117131Y0312252D02*
X0440041Y0312252D01*
X0438951Y0310654D02*
X0118024Y0310654D01*
X0118794Y0309055D02*
X0438140Y0309055D01*
X0438370Y0309802D02*
X0438370Y0309802D01*
X0437647Y0307457D02*
X0416623Y0307457D01*
X0415867Y0308213D02*
X0411145Y0308213D01*
X0407806Y0304874D01*
X0407806Y0300152D01*
X0411145Y0296813D01*
X0415867Y0296813D01*
X0419206Y0300152D01*
X0419206Y0304874D01*
X0415867Y0308213D01*
X0418222Y0305858D02*
X0437154Y0305858D01*
X0436894Y0304260D02*
X0419206Y0304260D01*
X0419206Y0302661D02*
X0436894Y0302661D01*
X0436894Y0301063D02*
X0419206Y0301063D01*
X0418519Y0299464D02*
X0437062Y0299464D01*
X0437555Y0297866D02*
X0416920Y0297866D01*
X0410092Y0297866D02*
X0376920Y0297866D01*
X0375867Y0296813D02*
X0379206Y0300152D01*
X0379206Y0304874D01*
X0375867Y0308213D01*
X0371145Y0308213D01*
X0367806Y0304874D01*
X0367806Y0300152D01*
X0371145Y0296813D01*
X0375867Y0296813D01*
X0378519Y0299464D02*
X0408494Y0299464D01*
X0407806Y0301063D02*
X0379206Y0301063D01*
X0379206Y0302661D02*
X0407806Y0302661D01*
X0407806Y0304260D02*
X0379206Y0304260D01*
X0378222Y0305858D02*
X0408791Y0305858D01*
X0410389Y0307457D02*
X0376623Y0307457D01*
X0370389Y0307457D02*
X0356623Y0307457D01*
X0355867Y0308213D02*
X0351145Y0308213D01*
X0347806Y0304874D01*
X0347806Y0300152D01*
X0351145Y0296813D01*
X0355867Y0296813D01*
X0359206Y0300152D01*
X0359206Y0304874D01*
X0355867Y0308213D01*
X0358222Y0305858D02*
X0368791Y0305858D01*
X0367806Y0304260D02*
X0359206Y0304260D01*
X0359206Y0302661D02*
X0367806Y0302661D01*
X0367806Y0301063D02*
X0359206Y0301063D01*
X0358519Y0299464D02*
X0368494Y0299464D01*
X0370092Y0297866D02*
X0356920Y0297866D01*
X0350092Y0297866D02*
X0316920Y0297866D01*
X0318519Y0299464D02*
X0348494Y0299464D01*
X0347806Y0301063D02*
X0319206Y0301063D01*
X0319206Y0302661D02*
X0347806Y0302661D01*
X0347806Y0304260D02*
X0319206Y0304260D01*
X0318222Y0305858D02*
X0348791Y0305858D01*
X0350389Y0307457D02*
X0316623Y0307457D01*
X0310389Y0307457D02*
X0119561Y0307457D01*
X0119802Y0305858D02*
X0308791Y0305858D01*
X0307806Y0304260D02*
X0120043Y0304260D01*
X0120284Y0302661D02*
X0307806Y0302661D01*
X0307806Y0301063D02*
X0120088Y0301063D01*
X0146214Y0297866D02*
X0150798Y0297866D01*
X0149200Y0296267D02*
X0147813Y0296267D01*
X0177329Y0288275D02*
X0179683Y0288275D01*
X0187329Y0288275D02*
X0200532Y0288275D01*
X0198933Y0289873D02*
X0188928Y0289873D01*
X0189206Y0291472D02*
X0198406Y0291472D01*
X0198406Y0293070D02*
X0189206Y0293070D01*
X0189206Y0294669D02*
X0198450Y0294669D01*
X0200048Y0296267D02*
X0187813Y0296267D01*
X0203506Y0296267D02*
X0203506Y0296267D01*
X0203506Y0294669D02*
X0203506Y0294669D01*
X0203506Y0293070D02*
X0203506Y0293070D01*
X0203506Y0291472D02*
X0203506Y0291472D01*
X0203506Y0289873D02*
X0203506Y0289873D01*
X0203506Y0288275D02*
X0203506Y0288275D01*
X0206964Y0296267D02*
X0210048Y0296267D01*
X0218563Y0294669D02*
X0227806Y0294669D01*
X0227806Y0293070D02*
X0218606Y0293070D01*
X0218606Y0291472D02*
X0227806Y0291472D01*
X0228085Y0289873D02*
X0218079Y0289873D01*
X0180835Y0257903D02*
X0176177Y0257903D01*
X0177776Y0256304D02*
X0179237Y0256304D01*
X0207366Y0248312D02*
X0209646Y0248312D01*
X0207101Y0217513D02*
X0199912Y0217513D01*
X0198074Y0216752D01*
X0196668Y0215345D01*
X0195906Y0213507D01*
X0195906Y0211518D01*
X0196668Y0209680D01*
X0198074Y0208274D01*
X0199912Y0207513D01*
X0207101Y0207513D01*
X0208939Y0208274D01*
X0210345Y0209680D01*
X0211106Y0211518D01*
X0211106Y0213507D01*
X0210345Y0215345D01*
X0208939Y0216752D01*
X0207101Y0217513D01*
X0209349Y0216342D02*
X0217664Y0216342D01*
X0218074Y0216752D02*
X0216668Y0215345D01*
X0215906Y0213507D01*
X0215906Y0211518D01*
X0216668Y0209680D01*
X0218074Y0208274D01*
X0219912Y0207513D01*
X0227101Y0207513D01*
X0228939Y0208274D01*
X0230345Y0209680D01*
X0231106Y0211518D01*
X0231106Y0213507D01*
X0230345Y0215345D01*
X0228939Y0216752D01*
X0227101Y0217513D01*
X0219912Y0217513D01*
X0218074Y0216752D01*
X0216418Y0214743D02*
X0210594Y0214743D01*
X0211106Y0213145D02*
X0215906Y0213145D01*
X0215906Y0211546D02*
X0211106Y0211546D01*
X0210456Y0209948D02*
X0216557Y0209948D01*
X0217999Y0208349D02*
X0209014Y0208349D01*
X0197999Y0208349D02*
X0169014Y0208349D01*
X0168939Y0208274D02*
X0170345Y0209680D01*
X0171106Y0211518D01*
X0171106Y0213507D01*
X0170345Y0215345D01*
X0168939Y0216752D01*
X0167101Y0217513D01*
X0159912Y0217513D01*
X0158074Y0216752D01*
X0156668Y0215345D01*
X0155906Y0213507D01*
X0155906Y0211518D01*
X0156668Y0209680D01*
X0158074Y0208274D01*
X0159912Y0207513D01*
X0167101Y0207513D01*
X0168939Y0208274D01*
X0170456Y0209948D02*
X0196557Y0209948D01*
X0195906Y0211546D02*
X0171106Y0211546D01*
X0171106Y0213145D02*
X0195906Y0213145D01*
X0196418Y0214743D02*
X0170594Y0214743D01*
X0169349Y0216342D02*
X0197664Y0216342D01*
X0229349Y0216342D02*
X0257664Y0216342D01*
X0258074Y0216752D02*
X0256668Y0215345D01*
X0255906Y0213507D01*
X0255906Y0211518D01*
X0256668Y0209680D01*
X0258074Y0208274D01*
X0259912Y0207513D01*
X0267101Y0207513D01*
X0268939Y0208274D01*
X0270345Y0209680D01*
X0271106Y0211518D01*
X0271106Y0213507D01*
X0270345Y0215345D01*
X0268939Y0216752D01*
X0267101Y0217513D01*
X0259912Y0217513D01*
X0258074Y0216752D01*
X0256418Y0214743D02*
X0230594Y0214743D01*
X0231106Y0213145D02*
X0255906Y0213145D01*
X0255906Y0211546D02*
X0231106Y0211546D01*
X0230456Y0209948D02*
X0256557Y0209948D01*
X0257999Y0208349D02*
X0229014Y0208349D01*
X0248406Y0194625D02*
X0248406Y0192513D01*
X0253506Y0192513D01*
X0253506Y0197613D01*
X0251394Y0197613D01*
X0248406Y0194625D01*
X0248406Y0193962D02*
X0169206Y0193962D01*
X0169206Y0194874D02*
X0169206Y0190152D01*
X0165867Y0186813D01*
X0161145Y0186813D01*
X0158506Y0189452D01*
X0155867Y0186813D01*
X0151145Y0186813D01*
X0147806Y0190152D01*
X0147806Y0194874D01*
X0151145Y0198213D01*
X0155867Y0198213D01*
X0158506Y0195574D01*
X0161145Y0198213D01*
X0165867Y0198213D01*
X0169206Y0194874D01*
X0168519Y0195561D02*
X0249342Y0195561D01*
X0250940Y0197159D02*
X0166921Y0197159D01*
X0169206Y0192364D02*
X0248406Y0192364D01*
X0248406Y0192513D02*
X0248406Y0190400D01*
X0251394Y0187413D01*
X0253506Y0187413D01*
X0253506Y0192513D01*
X0253506Y0192513D01*
X0253506Y0192513D01*
X0253506Y0197613D01*
X0255619Y0197613D01*
X0258082Y0195149D01*
X0261145Y0198213D01*
X0265867Y0198213D01*
X0269206Y0194874D01*
X0269206Y0190152D01*
X0265867Y0186813D01*
X0261145Y0186813D01*
X0258082Y0189876D01*
X0255619Y0187413D01*
X0253506Y0187413D01*
X0253506Y0192513D01*
X0248406Y0192513D01*
X0248406Y0190765D02*
X0169206Y0190765D01*
X0168221Y0189167D02*
X0249640Y0189167D01*
X0251238Y0187568D02*
X0166623Y0187568D01*
X0160390Y0187568D02*
X0156623Y0187568D01*
X0158221Y0189167D02*
X0158791Y0189167D01*
X0150390Y0187568D02*
X0121714Y0187568D01*
X0122806Y0188661D02*
X0122806Y0191713D01*
X0114306Y0191713D01*
X0114306Y0183213D01*
X0117358Y0183213D01*
X0122806Y0188661D01*
X0122806Y0189167D02*
X0148791Y0189167D01*
X0147806Y0190765D02*
X0122806Y0190765D01*
X0122806Y0193313D02*
X0114306Y0193313D01*
X0112706Y0193313D01*
X0112706Y0201813D01*
X0109654Y0201813D01*
X0104206Y0196365D01*
X0104206Y0193313D01*
X0112706Y0193313D01*
X0112706Y0191713D01*
X0104206Y0191713D01*
X0104206Y0188661D01*
X0109654Y0183213D01*
X0112706Y0183213D01*
X0112706Y0191713D01*
X0114306Y0191713D01*
X0114306Y0193313D01*
X0114306Y0201813D01*
X0117358Y0201813D01*
X0122806Y0196365D01*
X0122806Y0193313D01*
X0122806Y0193962D02*
X0147806Y0193962D01*
X0147806Y0192364D02*
X0114306Y0192364D01*
X0114306Y0193962D02*
X0112706Y0193962D01*
X0112706Y0192364D02*
X0084406Y0192364D01*
X0084406Y0193962D02*
X0104206Y0193962D01*
X0104206Y0195561D02*
X0084406Y0195561D01*
X0084406Y0197159D02*
X0105001Y0197159D01*
X0106599Y0198758D02*
X0084406Y0198758D01*
X0084406Y0200356D02*
X0108198Y0200356D01*
X0112706Y0200356D02*
X0114306Y0200356D01*
X0114306Y0198758D02*
X0112706Y0198758D01*
X0112706Y0197159D02*
X0114306Y0197159D01*
X0114306Y0195561D02*
X0112706Y0195561D01*
X0118815Y0200356D02*
X0128450Y0200356D01*
X0128406Y0200400D02*
X0131394Y0197413D01*
X0133420Y0197413D01*
X0133420Y0202427D01*
X0128406Y0202427D01*
X0128406Y0200400D01*
X0128406Y0201955D02*
X0084406Y0201955D01*
X0084406Y0203553D02*
X0128406Y0203553D01*
X0128406Y0202599D02*
X0133420Y0202599D01*
X0133420Y0202427D01*
X0133592Y0202427D01*
X0133592Y0197413D01*
X0135619Y0197413D01*
X0138606Y0200400D01*
X0138606Y0202427D01*
X0133592Y0202427D01*
X0133592Y0202599D01*
X0138606Y0202599D01*
X0138606Y0204625D01*
X0136143Y0207088D01*
X0139206Y0210152D01*
X0139206Y0214874D01*
X0135867Y0218213D01*
X0131145Y0218213D01*
X0127806Y0214874D01*
X0127806Y0210152D01*
X0130870Y0207088D01*
X0128406Y0204625D01*
X0128406Y0202599D01*
X0128933Y0205152D02*
X0084406Y0205152D01*
X0084406Y0206750D02*
X0130532Y0206750D01*
X0129609Y0208349D02*
X0084406Y0208349D01*
X0084406Y0209948D02*
X0128011Y0209948D01*
X0127806Y0211546D02*
X0084406Y0211546D01*
X0084406Y0213145D02*
X0127806Y0213145D01*
X0127806Y0214743D02*
X0084406Y0214743D01*
X0084406Y0216342D02*
X0129274Y0216342D01*
X0130873Y0217940D02*
X0084406Y0217940D01*
X0084406Y0219539D02*
X0419906Y0219539D01*
X0419906Y0221137D02*
X0084406Y0221137D01*
X0084406Y0222736D02*
X0419906Y0222736D01*
X0419906Y0224334D02*
X0118480Y0224334D01*
X0117358Y0223213D02*
X0122806Y0228661D01*
X0122806Y0231713D01*
X0114306Y0231713D01*
X0114306Y0223213D01*
X0117358Y0223213D01*
X0114306Y0224334D02*
X0112706Y0224334D01*
X0112706Y0223213D02*
X0109654Y0223213D01*
X0104206Y0228661D01*
X0104206Y0231713D01*
X0112706Y0231713D01*
X0112706Y0233313D01*
X0112706Y0241813D01*
X0109654Y0241813D01*
X0104206Y0236365D01*
X0104206Y0233313D01*
X0112706Y0233313D01*
X0114306Y0233313D01*
X0114306Y0241813D01*
X0117358Y0241813D01*
X0122806Y0236365D01*
X0122806Y0233313D01*
X0114306Y0233313D01*
X0114306Y0231713D01*
X0112706Y0231713D01*
X0112706Y0223213D01*
X0112706Y0225933D02*
X0114306Y0225933D01*
X0114306Y0227531D02*
X0112706Y0227531D01*
X0112706Y0229130D02*
X0114306Y0229130D01*
X0114306Y0230728D02*
X0112706Y0230728D01*
X0112706Y0232327D02*
X0084406Y0232327D01*
X0084406Y0233925D02*
X0104206Y0233925D01*
X0104206Y0235524D02*
X0084406Y0235524D01*
X0084406Y0237122D02*
X0104964Y0237122D01*
X0106562Y0238721D02*
X0084406Y0238721D01*
X0084406Y0240319D02*
X0108161Y0240319D01*
X0112706Y0240319D02*
X0114306Y0240319D01*
X0114306Y0238721D02*
X0112706Y0238721D01*
X0112706Y0237122D02*
X0114306Y0237122D01*
X0114306Y0235524D02*
X0112706Y0235524D01*
X0112706Y0233925D02*
X0114306Y0233925D01*
X0114306Y0232327D02*
X0267956Y0232327D01*
X0267956Y0233925D02*
X0122806Y0233925D01*
X0122806Y0235524D02*
X0268668Y0235524D01*
X0267956Y0234812D02*
X0267956Y0230214D01*
X0271207Y0226963D01*
X0275805Y0226963D01*
X0279056Y0230214D01*
X0279056Y0234812D01*
X0275805Y0238063D01*
X0271207Y0238063D01*
X0267956Y0234812D01*
X0270267Y0237122D02*
X0122049Y0237122D01*
X0120451Y0238721D02*
X0310104Y0238721D01*
X0310688Y0239305D02*
X0309289Y0237906D01*
X0308531Y0236077D01*
X0308531Y0228948D01*
X0309289Y0227120D01*
X0310688Y0225721D01*
X0312517Y0224963D01*
X0314496Y0224963D01*
X0316324Y0225721D01*
X0317724Y0227120D01*
X0318481Y0228948D01*
X0318481Y0236077D01*
X0317724Y0237906D01*
X0316324Y0239305D01*
X0314496Y0240062D01*
X0312517Y0240062D01*
X0310688Y0239305D01*
X0308964Y0237122D02*
X0276746Y0237122D01*
X0278344Y0235524D02*
X0308531Y0235524D01*
X0308531Y0233925D02*
X0279056Y0233925D01*
X0279056Y0232327D02*
X0308531Y0232327D01*
X0308531Y0230728D02*
X0279056Y0230728D01*
X0277972Y0229130D02*
X0308531Y0229130D01*
X0309119Y0227531D02*
X0276374Y0227531D01*
X0270639Y0227531D02*
X0121677Y0227531D01*
X0122806Y0229130D02*
X0269041Y0229130D01*
X0267956Y0230728D02*
X0122806Y0230728D01*
X0120078Y0225933D02*
X0310476Y0225933D01*
X0316536Y0225933D02*
X0320476Y0225933D01*
X0320688Y0225721D02*
X0322517Y0224963D01*
X0324496Y0224963D01*
X0326324Y0225721D01*
X0327724Y0227120D01*
X0328481Y0228948D01*
X0328481Y0236077D01*
X0327724Y0237906D01*
X0326324Y0239305D01*
X0324496Y0240062D01*
X0322517Y0240062D01*
X0320688Y0239305D01*
X0319289Y0237906D01*
X0318531Y0236077D01*
X0318531Y0228948D01*
X0319289Y0227120D01*
X0320688Y0225721D01*
X0319119Y0227531D02*
X0317894Y0227531D01*
X0318481Y0229130D02*
X0318531Y0229130D01*
X0318481Y0230728D02*
X0318531Y0230728D01*
X0318481Y0232327D02*
X0318531Y0232327D01*
X0318481Y0233925D02*
X0318531Y0233925D01*
X0318481Y0235524D02*
X0318531Y0235524D01*
X0318964Y0237122D02*
X0318048Y0237122D01*
X0316909Y0238721D02*
X0320104Y0238721D01*
X0326909Y0238721D02*
X0330104Y0238721D01*
X0330688Y0239305D02*
X0329289Y0237906D01*
X0328531Y0236077D01*
X0328531Y0228948D01*
X0329289Y0227120D01*
X0330688Y0225721D01*
X0332517Y0224963D01*
X0334496Y0224963D01*
X0336324Y0225721D01*
X0337724Y0227120D01*
X0338481Y0228948D01*
X0338481Y0236077D01*
X0337724Y0237906D01*
X0336324Y0239305D01*
X0334496Y0240062D01*
X0332517Y0240062D01*
X0330688Y0239305D01*
X0328964Y0237122D02*
X0328048Y0237122D01*
X0328481Y0235524D02*
X0328531Y0235524D01*
X0328481Y0233925D02*
X0328531Y0233925D01*
X0328481Y0232327D02*
X0328531Y0232327D01*
X0328481Y0230728D02*
X0328531Y0230728D01*
X0328481Y0229130D02*
X0328531Y0229130D01*
X0329119Y0227531D02*
X0327894Y0227531D01*
X0326536Y0225933D02*
X0330476Y0225933D01*
X0336536Y0225933D02*
X0340476Y0225933D01*
X0340688Y0225721D02*
X0342517Y0224963D01*
X0344496Y0224963D01*
X0346324Y0225721D01*
X0347724Y0227120D01*
X0348481Y0228948D01*
X0348481Y0236077D01*
X0347724Y0237906D01*
X0346324Y0239305D01*
X0344496Y0240062D01*
X0342517Y0240062D01*
X0340688Y0239305D01*
X0339289Y0237906D01*
X0338531Y0236077D01*
X0338531Y0228948D01*
X0339289Y0227120D01*
X0340688Y0225721D01*
X0339119Y0227531D02*
X0337894Y0227531D01*
X0338481Y0229130D02*
X0338531Y0229130D01*
X0338481Y0230728D02*
X0338531Y0230728D01*
X0338481Y0232327D02*
X0338531Y0232327D01*
X0338481Y0233925D02*
X0338531Y0233925D01*
X0338481Y0235524D02*
X0338531Y0235524D01*
X0338964Y0237122D02*
X0338048Y0237122D01*
X0336909Y0238721D02*
X0340104Y0238721D01*
X0346909Y0238721D02*
X0351064Y0238721D01*
X0351213Y0238829D02*
X0350656Y0238424D01*
X0350169Y0237938D01*
X0349765Y0237380D01*
X0349452Y0236767D01*
X0349239Y0236112D01*
X0349131Y0235432D01*
X0349131Y0232513D01*
X0353506Y0232513D01*
X0353506Y0232513D01*
X0353506Y0239462D01*
X0353162Y0239462D01*
X0352482Y0239355D01*
X0351827Y0239142D01*
X0351213Y0238829D01*
X0353506Y0238721D02*
X0353506Y0238721D01*
X0353506Y0239462D02*
X0353506Y0232513D01*
X0353506Y0232513D01*
X0349131Y0232513D01*
X0349131Y0229594D01*
X0349239Y0228914D01*
X0349452Y0228259D01*
X0349765Y0227645D01*
X0350169Y0227088D01*
X0350656Y0226601D01*
X0351213Y0226196D01*
X0351827Y0225884D01*
X0352482Y0225671D01*
X0353162Y0225563D01*
X0353506Y0225563D01*
X0353506Y0232513D01*
X0353506Y0232513D01*
X0357881Y0232513D01*
X0357881Y0235432D01*
X0357773Y0236112D01*
X0357561Y0236767D01*
X0357248Y0237380D01*
X0356843Y0237938D01*
X0356356Y0238424D01*
X0355799Y0238829D01*
X0355186Y0239142D01*
X0354531Y0239355D01*
X0353851Y0239462D01*
X0353506Y0239462D01*
X0353506Y0237122D02*
X0353506Y0237122D01*
X0353506Y0235524D02*
X0353506Y0235524D01*
X0353506Y0233925D02*
X0353506Y0233925D01*
X0353506Y0232513D02*
X0353506Y0232513D01*
X0353506Y0225563D01*
X0353851Y0225563D01*
X0354531Y0225671D01*
X0355186Y0225884D01*
X0355799Y0226196D01*
X0356356Y0226601D01*
X0356843Y0227088D01*
X0357248Y0227645D01*
X0357561Y0228259D01*
X0357773Y0228914D01*
X0357881Y0229594D01*
X0357881Y0232513D01*
X0353506Y0232513D01*
X0353506Y0232327D02*
X0353506Y0232327D01*
X0353506Y0230728D02*
X0353506Y0230728D01*
X0353506Y0229130D02*
X0353506Y0229130D01*
X0353506Y0227531D02*
X0353506Y0227531D01*
X0353506Y0225933D02*
X0353506Y0225933D01*
X0351731Y0225933D02*
X0346536Y0225933D01*
X0347894Y0227531D02*
X0349847Y0227531D01*
X0349205Y0229130D02*
X0348481Y0229130D01*
X0348481Y0230728D02*
X0349131Y0230728D01*
X0349131Y0232327D02*
X0348481Y0232327D01*
X0348481Y0233925D02*
X0349131Y0233925D01*
X0349146Y0235524D02*
X0348481Y0235524D01*
X0348048Y0237122D02*
X0349633Y0237122D01*
X0355949Y0238721D02*
X0360104Y0238721D01*
X0360688Y0239305D02*
X0359289Y0237906D01*
X0358531Y0236077D01*
X0358531Y0228948D01*
X0359289Y0227120D01*
X0360688Y0225721D01*
X0362517Y0224963D01*
X0364496Y0224963D01*
X0366324Y0225721D01*
X0367724Y0227120D01*
X0368481Y0228948D01*
X0368481Y0236077D01*
X0367724Y0237906D01*
X0366324Y0239305D01*
X0364496Y0240062D01*
X0362517Y0240062D01*
X0360688Y0239305D01*
X0358964Y0237122D02*
X0357380Y0237122D01*
X0357867Y0235524D02*
X0358531Y0235524D01*
X0358531Y0233925D02*
X0357881Y0233925D01*
X0357881Y0232327D02*
X0358531Y0232327D01*
X0358531Y0230728D02*
X0357881Y0230728D01*
X0357808Y0229130D02*
X0358531Y0229130D01*
X0359119Y0227531D02*
X0357165Y0227531D01*
X0355282Y0225933D02*
X0360476Y0225933D01*
X0366536Y0225933D02*
X0370476Y0225933D01*
X0370688Y0225721D02*
X0372517Y0224963D01*
X0374496Y0224963D01*
X0376324Y0225721D01*
X0377724Y0227120D01*
X0378481Y0228948D01*
X0378481Y0236077D01*
X0377724Y0237906D01*
X0376324Y0239305D01*
X0374496Y0240062D01*
X0372517Y0240062D01*
X0370688Y0239305D01*
X0369289Y0237906D01*
X0368531Y0236077D01*
X0368531Y0228948D01*
X0369289Y0227120D01*
X0370688Y0225721D01*
X0369119Y0227531D02*
X0367894Y0227531D01*
X0368481Y0229130D02*
X0368531Y0229130D01*
X0368481Y0230728D02*
X0368531Y0230728D01*
X0368481Y0232327D02*
X0368531Y0232327D01*
X0368481Y0233925D02*
X0368531Y0233925D01*
X0368481Y0235524D02*
X0368531Y0235524D01*
X0368964Y0237122D02*
X0368048Y0237122D01*
X0366909Y0238721D02*
X0370104Y0238721D01*
X0376909Y0238721D02*
X0380104Y0238721D01*
X0380688Y0239305D02*
X0379289Y0237906D01*
X0378531Y0236077D01*
X0378531Y0228948D01*
X0379289Y0227120D01*
X0380688Y0225721D01*
X0382517Y0224963D01*
X0384496Y0224963D01*
X0386324Y0225721D01*
X0387724Y0227120D01*
X0388481Y0228948D01*
X0388481Y0236077D01*
X0387724Y0237906D01*
X0386324Y0239305D01*
X0384496Y0240062D01*
X0382517Y0240062D01*
X0380688Y0239305D01*
X0378964Y0237122D02*
X0378048Y0237122D01*
X0378481Y0235524D02*
X0378531Y0235524D01*
X0378481Y0233925D02*
X0378531Y0233925D01*
X0378481Y0232327D02*
X0378531Y0232327D01*
X0378481Y0230728D02*
X0378531Y0230728D01*
X0378481Y0229130D02*
X0378531Y0229130D01*
X0379119Y0227531D02*
X0377894Y0227531D01*
X0376536Y0225933D02*
X0380476Y0225933D01*
X0386536Y0225933D02*
X0390476Y0225933D01*
X0390688Y0225721D02*
X0392517Y0224963D01*
X0394496Y0224963D01*
X0396324Y0225721D01*
X0397724Y0227120D01*
X0398481Y0228948D01*
X0398481Y0236077D01*
X0397724Y0237906D01*
X0396324Y0239305D01*
X0394496Y0240062D01*
X0392517Y0240062D01*
X0390688Y0239305D01*
X0389289Y0237906D01*
X0388531Y0236077D01*
X0388531Y0228948D01*
X0389289Y0227120D01*
X0390688Y0225721D01*
X0389119Y0227531D02*
X0387894Y0227531D01*
X0388481Y0229130D02*
X0388531Y0229130D01*
X0388481Y0230728D02*
X0388531Y0230728D01*
X0388481Y0232327D02*
X0388531Y0232327D01*
X0388481Y0233925D02*
X0388531Y0233925D01*
X0388481Y0235524D02*
X0388531Y0235524D01*
X0388964Y0237122D02*
X0388048Y0237122D01*
X0386909Y0238721D02*
X0390104Y0238721D01*
X0396909Y0238721D02*
X0400104Y0238721D01*
X0400688Y0239305D02*
X0399289Y0237906D01*
X0398531Y0236077D01*
X0398531Y0228948D01*
X0399289Y0227120D01*
X0400688Y0225721D01*
X0402517Y0224963D01*
X0404496Y0224963D01*
X0406324Y0225721D01*
X0407724Y0227120D01*
X0408481Y0228948D01*
X0408481Y0236077D01*
X0407724Y0237906D01*
X0406324Y0239305D01*
X0404496Y0240062D01*
X0402517Y0240062D01*
X0400688Y0239305D01*
X0398964Y0237122D02*
X0398048Y0237122D01*
X0398481Y0235524D02*
X0398531Y0235524D01*
X0398481Y0233925D02*
X0398531Y0233925D01*
X0398481Y0232327D02*
X0398531Y0232327D01*
X0398481Y0230728D02*
X0398531Y0230728D01*
X0398481Y0229130D02*
X0398531Y0229130D01*
X0399119Y0227531D02*
X0397894Y0227531D01*
X0396536Y0225933D02*
X0400476Y0225933D01*
X0406536Y0225933D02*
X0419906Y0225933D01*
X0419906Y0227531D02*
X0407894Y0227531D01*
X0408481Y0229130D02*
X0419535Y0229130D01*
X0419906Y0228759D02*
X0419906Y0166267D01*
X0418306Y0164667D01*
X0418306Y0160359D01*
X0421352Y0157313D01*
X0425660Y0157313D01*
X0428706Y0160359D01*
X0428706Y0164667D01*
X0427106Y0166267D01*
X0427106Y0228759D01*
X0428706Y0230359D01*
X0428706Y0234667D01*
X0425660Y0237713D01*
X0421352Y0237713D01*
X0418306Y0234667D01*
X0418306Y0230359D01*
X0419906Y0228759D01*
X0418306Y0230728D02*
X0408481Y0230728D01*
X0408481Y0232327D02*
X0418306Y0232327D01*
X0418306Y0233925D02*
X0408481Y0233925D01*
X0408481Y0235524D02*
X0419163Y0235524D01*
X0420762Y0237122D02*
X0408048Y0237122D01*
X0406909Y0238721D02*
X0476307Y0238721D01*
X0476307Y0240319D02*
X0118852Y0240319D01*
X0104206Y0230728D02*
X0084406Y0230728D01*
X0084406Y0229130D02*
X0104206Y0229130D01*
X0105336Y0227531D02*
X0084406Y0227531D01*
X0084406Y0225933D02*
X0106934Y0225933D01*
X0108533Y0224334D02*
X0084406Y0224334D01*
X0084406Y0241918D02*
X0476307Y0241918D01*
X0476307Y0243516D02*
X0084406Y0243516D01*
X0084406Y0245115D02*
X0476307Y0245115D01*
X0476307Y0246713D02*
X0084406Y0246713D01*
X0084406Y0248312D02*
X0139646Y0248312D01*
X0138048Y0249910D02*
X0084406Y0249910D01*
X0084406Y0251509D02*
X0137806Y0251509D01*
X0137806Y0253107D02*
X0084406Y0253107D01*
X0084406Y0254706D02*
X0137806Y0254706D01*
X0139237Y0256304D02*
X0084406Y0256304D01*
X0136140Y0217940D02*
X0419906Y0217940D01*
X0419906Y0216342D02*
X0269349Y0216342D01*
X0270594Y0214743D02*
X0419906Y0214743D01*
X0419906Y0213145D02*
X0271106Y0213145D01*
X0271106Y0211546D02*
X0419906Y0211546D01*
X0419906Y0209948D02*
X0270456Y0209948D01*
X0269014Y0208349D02*
X0419906Y0208349D01*
X0419906Y0206750D02*
X0136481Y0206750D01*
X0137404Y0208349D02*
X0157999Y0208349D01*
X0156557Y0209948D02*
X0139002Y0209948D01*
X0139206Y0211546D02*
X0155906Y0211546D01*
X0155906Y0213145D02*
X0139206Y0213145D01*
X0139206Y0214743D02*
X0156418Y0214743D01*
X0157664Y0216342D02*
X0137738Y0216342D01*
X0138080Y0205152D02*
X0419906Y0205152D01*
X0419906Y0203553D02*
X0138606Y0203553D01*
X0138606Y0201955D02*
X0419906Y0201955D01*
X0419906Y0200356D02*
X0138562Y0200356D01*
X0136964Y0198758D02*
X0419906Y0198758D01*
X0419906Y0197159D02*
X0266921Y0197159D01*
X0268519Y0195561D02*
X0419906Y0195561D01*
X0419906Y0193962D02*
X0269206Y0193962D01*
X0269206Y0192364D02*
X0419906Y0192364D01*
X0419906Y0190765D02*
X0269206Y0190765D01*
X0268221Y0189167D02*
X0419906Y0189167D01*
X0419906Y0187568D02*
X0266623Y0187568D01*
X0260390Y0187568D02*
X0255774Y0187568D01*
X0257373Y0189167D02*
X0258791Y0189167D01*
X0253506Y0189167D02*
X0253506Y0189167D01*
X0253506Y0190765D02*
X0253506Y0190765D01*
X0253506Y0192364D02*
X0253506Y0192364D01*
X0253506Y0192513D02*
X0253506Y0192513D01*
X0253506Y0193962D02*
X0253506Y0193962D01*
X0253506Y0195561D02*
X0253506Y0195561D01*
X0253506Y0197159D02*
X0253506Y0197159D01*
X0256072Y0197159D02*
X0260092Y0197159D01*
X0258493Y0195561D02*
X0257671Y0195561D01*
X0253506Y0187568D02*
X0253506Y0187568D01*
X0261145Y0178213D02*
X0257806Y0174874D01*
X0257806Y0170152D01*
X0261145Y0166813D01*
X0265867Y0166813D01*
X0269206Y0170152D01*
X0269206Y0174874D01*
X0265867Y0178213D01*
X0261145Y0178213D01*
X0260910Y0177977D02*
X0226103Y0177977D01*
X0225867Y0178213D02*
X0221145Y0178213D01*
X0217806Y0174874D01*
X0217806Y0170152D01*
X0220445Y0167513D01*
X0218082Y0165149D01*
X0215619Y0167613D01*
X0213506Y0167613D01*
X0211394Y0167613D01*
X0208406Y0164625D01*
X0208406Y0162513D01*
X0213506Y0162513D01*
X0213506Y0167613D01*
X0213506Y0162513D01*
X0213506Y0162513D01*
X0213506Y0162513D01*
X0208406Y0162513D01*
X0208406Y0160400D01*
X0211394Y0157413D01*
X0213506Y0157413D01*
X0213506Y0162513D01*
X0213506Y0162513D01*
X0213506Y0157413D01*
X0215619Y0157413D01*
X0218082Y0159876D01*
X0220445Y0157513D01*
X0217806Y0154874D01*
X0217806Y0150152D01*
X0221145Y0146813D01*
X0225867Y0146813D01*
X0229206Y0150152D01*
X0229206Y0154874D01*
X0226567Y0157513D01*
X0229206Y0160152D01*
X0229206Y0164874D01*
X0226567Y0167513D01*
X0229206Y0170152D01*
X0229206Y0174874D01*
X0225867Y0178213D01*
X0227701Y0176379D02*
X0259311Y0176379D01*
X0257806Y0174780D02*
X0229206Y0174780D01*
X0229206Y0173182D02*
X0257806Y0173182D01*
X0257806Y0171583D02*
X0229206Y0171583D01*
X0229039Y0169985D02*
X0257973Y0169985D01*
X0259572Y0168386D02*
X0227441Y0168386D01*
X0227292Y0166788D02*
X0419906Y0166788D01*
X0419906Y0168386D02*
X0267441Y0168386D01*
X0269039Y0169985D02*
X0419906Y0169985D01*
X0419906Y0171583D02*
X0269206Y0171583D01*
X0269206Y0173182D02*
X0419906Y0173182D01*
X0419906Y0174780D02*
X0269206Y0174780D01*
X0267701Y0176379D02*
X0419906Y0176379D01*
X0419906Y0177977D02*
X0266103Y0177977D01*
X0265619Y0157613D02*
X0263506Y0157613D01*
X0261394Y0157613D01*
X0258406Y0154625D01*
X0258406Y0152513D01*
X0263506Y0152513D01*
X0263506Y0152513D01*
X0263506Y0157613D01*
X0263506Y0152513D01*
X0263506Y0152513D01*
X0258406Y0152513D01*
X0258406Y0150400D01*
X0261394Y0147413D01*
X0263506Y0147413D01*
X0263506Y0152513D01*
X0263506Y0152513D01*
X0268606Y0152513D01*
X0268606Y0154625D01*
X0265619Y0157613D01*
X0266035Y0157197D02*
X0309671Y0157197D01*
X0309765Y0157380D02*
X0309452Y0156767D01*
X0309239Y0156112D01*
X0309131Y0155432D01*
X0309131Y0152513D01*
X0313506Y0152513D01*
X0313506Y0152513D01*
X0313506Y0159462D01*
X0313162Y0159462D01*
X0312482Y0159355D01*
X0311827Y0159142D01*
X0311213Y0158829D01*
X0310656Y0158424D01*
X0310169Y0157938D01*
X0309765Y0157380D01*
X0309158Y0155598D02*
X0267633Y0155598D01*
X0268606Y0154000D02*
X0309131Y0154000D01*
X0309131Y0152513D02*
X0309131Y0149594D01*
X0309239Y0148914D01*
X0309452Y0148259D01*
X0309765Y0147645D01*
X0310169Y0147088D01*
X0310656Y0146601D01*
X0311213Y0146196D01*
X0311827Y0145884D01*
X0312482Y0145671D01*
X0313162Y0145563D01*
X0313506Y0145563D01*
X0313506Y0152513D01*
X0313506Y0152513D01*
X0309131Y0152513D01*
X0309131Y0152401D02*
X0268606Y0152401D01*
X0268606Y0152513D02*
X0263506Y0152513D01*
X0263506Y0152513D01*
X0263506Y0147413D01*
X0265619Y0147413D01*
X0268606Y0150400D01*
X0268606Y0152513D01*
X0268606Y0150803D02*
X0309131Y0150803D01*
X0309193Y0149204D02*
X0267410Y0149204D01*
X0265812Y0147606D02*
X0309793Y0147606D01*
X0311585Y0146007D02*
X0209683Y0146007D01*
X0210345Y0145345D02*
X0208939Y0146752D01*
X0207101Y0147513D01*
X0199912Y0147513D01*
X0198074Y0146752D01*
X0196668Y0145345D01*
X0195906Y0143507D01*
X0195906Y0141518D01*
X0196668Y0139680D01*
X0198074Y0138274D01*
X0199912Y0137513D01*
X0207101Y0137513D01*
X0208939Y0138274D01*
X0210345Y0139680D01*
X0211106Y0141518D01*
X0211106Y0143507D01*
X0210345Y0145345D01*
X0210733Y0144409D02*
X0476307Y0144409D01*
X0476307Y0146007D02*
X0406611Y0146007D01*
X0406324Y0145721D02*
X0407724Y0147120D01*
X0408481Y0148948D01*
X0408481Y0156077D01*
X0407724Y0157906D01*
X0406324Y0159305D01*
X0404496Y0160062D01*
X0402517Y0160062D01*
X0400688Y0159305D01*
X0399289Y0157906D01*
X0398531Y0156077D01*
X0398531Y0148948D01*
X0399289Y0147120D01*
X0400688Y0145721D01*
X0402517Y0144963D01*
X0404496Y0144963D01*
X0406324Y0145721D01*
X0407925Y0147606D02*
X0476307Y0147606D01*
X0476307Y0149204D02*
X0408481Y0149204D01*
X0408481Y0150803D02*
X0476307Y0150803D01*
X0476307Y0152401D02*
X0408481Y0152401D01*
X0408481Y0154000D02*
X0476307Y0154000D01*
X0476307Y0155598D02*
X0408481Y0155598D01*
X0408017Y0157197D02*
X0476307Y0157197D01*
X0476307Y0158795D02*
X0427143Y0158795D01*
X0428706Y0160394D02*
X0476307Y0160394D01*
X0476307Y0161992D02*
X0428706Y0161992D01*
X0428706Y0163591D02*
X0476307Y0163591D01*
X0476307Y0165189D02*
X0428184Y0165189D01*
X0427106Y0166788D02*
X0476307Y0166788D01*
X0476307Y0168386D02*
X0427106Y0168386D01*
X0427106Y0169985D02*
X0476307Y0169985D01*
X0476307Y0171583D02*
X0427106Y0171583D01*
X0427106Y0173182D02*
X0476307Y0173182D01*
X0476307Y0174780D02*
X0427106Y0174780D01*
X0427106Y0176379D02*
X0476307Y0176379D01*
X0476307Y0177977D02*
X0427106Y0177977D01*
X0427106Y0179576D02*
X0476307Y0179576D01*
X0476307Y0181174D02*
X0427106Y0181174D01*
X0427106Y0182773D02*
X0476307Y0182773D01*
X0476307Y0184371D02*
X0427106Y0184371D01*
X0427106Y0185970D02*
X0476307Y0185970D01*
X0476307Y0187568D02*
X0427106Y0187568D01*
X0427106Y0189167D02*
X0476307Y0189167D01*
X0476307Y0190765D02*
X0427106Y0190765D01*
X0427106Y0192364D02*
X0476307Y0192364D01*
X0476307Y0193962D02*
X0427106Y0193962D01*
X0427106Y0195561D02*
X0476307Y0195561D01*
X0476307Y0197159D02*
X0427106Y0197159D01*
X0427106Y0198758D02*
X0476307Y0198758D01*
X0476307Y0200356D02*
X0427106Y0200356D01*
X0427106Y0201955D02*
X0476307Y0201955D01*
X0476307Y0203553D02*
X0427106Y0203553D01*
X0427106Y0205152D02*
X0476307Y0205152D01*
X0476307Y0206750D02*
X0427106Y0206750D01*
X0427106Y0208349D02*
X0476307Y0208349D01*
X0476307Y0209948D02*
X0427106Y0209948D01*
X0427106Y0211546D02*
X0476307Y0211546D01*
X0476307Y0213145D02*
X0427106Y0213145D01*
X0427106Y0214743D02*
X0476307Y0214743D01*
X0476307Y0216342D02*
X0427106Y0216342D01*
X0427106Y0217940D02*
X0476307Y0217940D01*
X0476307Y0219539D02*
X0427106Y0219539D01*
X0427106Y0221137D02*
X0476307Y0221137D01*
X0476307Y0222736D02*
X0427106Y0222736D01*
X0427106Y0224334D02*
X0476307Y0224334D01*
X0476307Y0225933D02*
X0427106Y0225933D01*
X0427106Y0227531D02*
X0476307Y0227531D01*
X0476307Y0229130D02*
X0427477Y0229130D01*
X0428706Y0230728D02*
X0476307Y0230728D01*
X0476307Y0232327D02*
X0428706Y0232327D01*
X0428706Y0233925D02*
X0476307Y0233925D01*
X0476307Y0235524D02*
X0427849Y0235524D01*
X0426251Y0237122D02*
X0476307Y0237122D01*
X0476307Y0248312D02*
X0407366Y0248312D01*
X0408965Y0249910D02*
X0476307Y0249910D01*
X0476307Y0251509D02*
X0409206Y0251509D01*
X0409206Y0253107D02*
X0476307Y0253107D01*
X0476307Y0254706D02*
X0409206Y0254706D01*
X0407776Y0256304D02*
X0476307Y0256304D01*
X0476307Y0257903D02*
X0406177Y0257903D01*
X0400835Y0257903D02*
X0376957Y0257903D01*
X0378556Y0259501D02*
X0476307Y0259501D01*
X0476307Y0261100D02*
X0379206Y0261100D01*
X0379206Y0262698D02*
X0476307Y0262698D01*
X0476307Y0264297D02*
X0379206Y0264297D01*
X0378185Y0265895D02*
X0476307Y0265895D01*
X0445106Y0287964D02*
X0445106Y0287964D01*
X0444716Y0288275D02*
X0326339Y0288275D01*
X0325577Y0287513D02*
X0328506Y0290442D01*
X0328506Y0294584D01*
X0325577Y0297513D01*
X0321435Y0297513D01*
X0318506Y0294584D01*
X0318506Y0290442D01*
X0321435Y0287513D01*
X0325577Y0287513D01*
X0327938Y0289873D02*
X0442712Y0289873D01*
X0441191Y0291086D02*
X0441191Y0291086D01*
X0440928Y0291472D02*
X0328506Y0291472D01*
X0328506Y0293070D02*
X0439838Y0293070D01*
X0438748Y0294669D02*
X0328421Y0294669D01*
X0326823Y0296267D02*
X0438048Y0296267D01*
X0399237Y0256304D02*
X0396927Y0256304D01*
X0396518Y0248312D02*
X0399646Y0248312D01*
X0330426Y0267494D02*
X0305738Y0267494D01*
X0303506Y0267494D02*
X0303506Y0267494D01*
X0303506Y0265895D02*
X0303506Y0265895D01*
X0303506Y0264297D02*
X0303506Y0264297D01*
X0303506Y0262698D02*
X0303506Y0262698D01*
X0307336Y0265895D02*
X0328828Y0265895D01*
X0327806Y0264297D02*
X0308606Y0264297D01*
X0308606Y0262698D02*
X0327806Y0262698D01*
X0327806Y0261100D02*
X0308606Y0261100D01*
X0307707Y0259501D02*
X0328457Y0259501D01*
X0310835Y0257903D02*
X0306177Y0257903D01*
X0307776Y0256304D02*
X0309237Y0256304D01*
X0330264Y0278684D02*
X0286748Y0278684D01*
X0288347Y0280282D02*
X0328666Y0280282D01*
X0328506Y0281881D02*
X0288506Y0281881D01*
X0288506Y0283479D02*
X0328506Y0283479D01*
X0329000Y0285078D02*
X0288013Y0285078D01*
X0286414Y0286676D02*
X0330599Y0286676D01*
X0320673Y0288275D02*
X0296339Y0288275D01*
X0297938Y0289873D02*
X0319075Y0289873D01*
X0318506Y0291472D02*
X0298506Y0291472D01*
X0298506Y0293070D02*
X0318506Y0293070D01*
X0318591Y0294669D02*
X0298421Y0294669D01*
X0296823Y0296267D02*
X0320190Y0296267D01*
X0269237Y0256304D02*
X0256927Y0256304D01*
X0258526Y0254706D02*
X0267806Y0254706D01*
X0267806Y0253107D02*
X0258606Y0253107D01*
X0258606Y0251509D02*
X0267806Y0251509D01*
X0268048Y0249910D02*
X0258116Y0249910D01*
X0256518Y0248312D02*
X0269646Y0248312D01*
X0220910Y0177977D02*
X0156103Y0177977D01*
X0155867Y0178213D02*
X0151145Y0178213D01*
X0147806Y0174874D01*
X0147806Y0170152D01*
X0150445Y0167513D01*
X0147806Y0164874D01*
X0147806Y0160152D01*
X0150445Y0157513D01*
X0147806Y0154874D01*
X0147806Y0150152D01*
X0151145Y0146813D01*
X0155867Y0146813D01*
X0159206Y0150152D01*
X0159206Y0154874D01*
X0156567Y0157513D01*
X0158931Y0159876D01*
X0161394Y0157413D01*
X0163506Y0157413D01*
X0163506Y0162513D01*
X0163506Y0167613D01*
X0161394Y0167613D01*
X0158931Y0165149D01*
X0156567Y0167513D01*
X0159206Y0170152D01*
X0159206Y0174874D01*
X0155867Y0178213D01*
X0157701Y0176379D02*
X0219311Y0176379D01*
X0217806Y0174780D02*
X0159206Y0174780D01*
X0159206Y0173182D02*
X0217806Y0173182D01*
X0217806Y0171583D02*
X0159206Y0171583D01*
X0159039Y0169985D02*
X0217973Y0169985D01*
X0219572Y0168386D02*
X0157441Y0168386D01*
X0157292Y0166788D02*
X0160569Y0166788D01*
X0158970Y0165189D02*
X0158891Y0165189D01*
X0163506Y0165189D02*
X0163506Y0165189D01*
X0163506Y0163591D02*
X0163506Y0163591D01*
X0163506Y0162513D02*
X0163506Y0162513D01*
X0163506Y0167613D01*
X0165619Y0167613D01*
X0168606Y0164625D01*
X0168606Y0162513D01*
X0163506Y0162513D01*
X0163506Y0162513D01*
X0163506Y0162513D01*
X0163506Y0157413D01*
X0165619Y0157413D01*
X0168606Y0160400D01*
X0168606Y0162513D01*
X0163506Y0162513D01*
X0163506Y0161992D02*
X0163506Y0161992D01*
X0163506Y0160394D02*
X0163506Y0160394D01*
X0163506Y0158795D02*
X0163506Y0158795D01*
X0160011Y0158795D02*
X0157850Y0158795D01*
X0156883Y0157197D02*
X0220129Y0157197D01*
X0219163Y0158795D02*
X0217001Y0158795D01*
X0213506Y0158795D02*
X0213506Y0158795D01*
X0213506Y0160394D02*
X0213506Y0160394D01*
X0213506Y0161992D02*
X0213506Y0161992D01*
X0213506Y0163591D02*
X0213506Y0163591D01*
X0213506Y0165189D02*
X0213506Y0165189D01*
X0213506Y0166788D02*
X0213506Y0166788D01*
X0210569Y0166788D02*
X0166444Y0166788D01*
X0168042Y0165189D02*
X0208970Y0165189D01*
X0208406Y0163591D02*
X0168606Y0163591D01*
X0168606Y0161992D02*
X0208406Y0161992D01*
X0208413Y0160394D02*
X0168600Y0160394D01*
X0167001Y0158795D02*
X0210011Y0158795D01*
X0218531Y0155598D02*
X0158482Y0155598D01*
X0159206Y0154000D02*
X0217806Y0154000D01*
X0217806Y0152401D02*
X0159206Y0152401D01*
X0159206Y0150803D02*
X0217806Y0150803D01*
X0218754Y0149204D02*
X0158259Y0149204D01*
X0156660Y0147606D02*
X0220352Y0147606D01*
X0226660Y0147606D02*
X0261201Y0147606D01*
X0259602Y0149204D02*
X0228259Y0149204D01*
X0229206Y0150803D02*
X0258406Y0150803D01*
X0258406Y0152401D02*
X0229206Y0152401D01*
X0229206Y0154000D02*
X0258406Y0154000D01*
X0259379Y0155598D02*
X0228482Y0155598D01*
X0226883Y0157197D02*
X0260978Y0157197D01*
X0263506Y0157197D02*
X0263506Y0157197D01*
X0263506Y0155598D02*
X0263506Y0155598D01*
X0263506Y0154000D02*
X0263506Y0154000D01*
X0263506Y0152401D02*
X0263506Y0152401D01*
X0263506Y0150803D02*
X0263506Y0150803D01*
X0263506Y0149204D02*
X0263506Y0149204D01*
X0263506Y0147606D02*
X0263506Y0147606D01*
X0263506Y0137613D02*
X0261394Y0137613D01*
X0258406Y0134625D01*
X0258406Y0132513D01*
X0263506Y0132513D01*
X0263506Y0132513D01*
X0263506Y0137613D01*
X0265619Y0137613D01*
X0268606Y0134625D01*
X0268606Y0132513D01*
X0263506Y0132513D01*
X0263506Y0132513D01*
X0258406Y0132513D01*
X0258406Y0130400D01*
X0261294Y0127513D01*
X0259912Y0127513D01*
X0258074Y0126752D01*
X0256668Y0125345D01*
X0255906Y0123507D01*
X0255906Y0121518D01*
X0256668Y0119680D01*
X0258074Y0118274D01*
X0259912Y0117513D01*
X0260445Y0117513D01*
X0257806Y0114874D01*
X0257806Y0110152D01*
X0261145Y0106813D01*
X0261584Y0106813D01*
X0259106Y0104335D01*
X0259106Y0102513D01*
X0263506Y0102513D01*
X0263506Y0102513D01*
X0259106Y0102513D01*
X0259106Y0100690D01*
X0261684Y0098113D01*
X0263506Y0098113D01*
X0263506Y0102513D01*
X0263506Y0102513D01*
X0267906Y0102513D01*
X0267906Y0104335D01*
X0265429Y0106813D01*
X0265867Y0106813D01*
X0269206Y0110152D01*
X0269206Y0114874D01*
X0266567Y0117513D01*
X0267101Y0117513D01*
X0268939Y0118274D01*
X0270345Y0119680D01*
X0271106Y0121518D01*
X0271106Y0123507D01*
X0270345Y0125345D01*
X0268939Y0126752D01*
X0267101Y0127513D01*
X0265719Y0127513D01*
X0268606Y0130400D01*
X0268606Y0132513D01*
X0263506Y0132513D01*
X0263506Y0137613D01*
X0263506Y0136416D02*
X0263506Y0136416D01*
X0263506Y0134817D02*
X0263506Y0134817D01*
X0263506Y0133219D02*
X0263506Y0133219D01*
X0263506Y0132513D02*
X0263506Y0132513D01*
X0260197Y0136416D02*
X0227664Y0136416D01*
X0229206Y0134874D02*
X0225867Y0138213D01*
X0221145Y0138213D01*
X0217806Y0134874D01*
X0217806Y0130152D01*
X0220445Y0127513D01*
X0219912Y0127513D01*
X0218074Y0126752D01*
X0216668Y0125345D01*
X0215906Y0123507D01*
X0215906Y0121518D01*
X0216668Y0119680D01*
X0218074Y0118274D01*
X0219912Y0117513D01*
X0220445Y0117513D01*
X0217806Y0114874D01*
X0217806Y0110152D01*
X0220940Y0107018D01*
X0218506Y0104584D01*
X0218506Y0100442D01*
X0220940Y0098008D01*
X0217806Y0094874D01*
X0217806Y0090152D01*
X0220940Y0087018D01*
X0218506Y0084584D01*
X0218506Y0080442D01*
X0221435Y0077513D01*
X0225577Y0077513D01*
X0228506Y0080442D01*
X0228506Y0084584D01*
X0226072Y0087018D01*
X0229206Y0090152D01*
X0229206Y0094874D01*
X0226072Y0098008D01*
X0228506Y0100442D01*
X0228506Y0104584D01*
X0226072Y0107018D01*
X0229206Y0110152D01*
X0229206Y0114874D01*
X0226567Y0117513D01*
X0227101Y0117513D01*
X0228939Y0118274D01*
X0230345Y0119680D01*
X0231106Y0121518D01*
X0231106Y0123507D01*
X0230345Y0125345D01*
X0228939Y0126752D01*
X0227101Y0127513D01*
X0226567Y0127513D01*
X0229206Y0130152D01*
X0229206Y0134874D01*
X0229206Y0134817D02*
X0258599Y0134817D01*
X0258406Y0133219D02*
X0229206Y0133219D01*
X0229206Y0131620D02*
X0258406Y0131620D01*
X0258785Y0130022D02*
X0229076Y0130022D01*
X0227478Y0128423D02*
X0260383Y0128423D01*
X0258251Y0126825D02*
X0228761Y0126825D01*
X0230394Y0125226D02*
X0256618Y0125226D01*
X0255956Y0123628D02*
X0231056Y0123628D01*
X0231106Y0122029D02*
X0255906Y0122029D01*
X0256357Y0120431D02*
X0230656Y0120431D01*
X0229497Y0118832D02*
X0257516Y0118832D01*
X0260166Y0117234D02*
X0226846Y0117234D01*
X0228445Y0115635D02*
X0258568Y0115635D01*
X0257806Y0114037D02*
X0229206Y0114037D01*
X0229206Y0112438D02*
X0257806Y0112438D01*
X0257806Y0110840D02*
X0229206Y0110840D01*
X0228296Y0109241D02*
X0258717Y0109241D01*
X0260315Y0107643D02*
X0226697Y0107643D01*
X0227046Y0106044D02*
X0260815Y0106044D01*
X0259217Y0104446D02*
X0228506Y0104446D01*
X0228506Y0102847D02*
X0259106Y0102847D01*
X0259106Y0101249D02*
X0228506Y0101249D01*
X0227715Y0099650D02*
X0260146Y0099650D01*
X0261394Y0097613D02*
X0258406Y0094625D01*
X0258406Y0092513D01*
X0263506Y0092513D01*
X0263506Y0092513D01*
X0263506Y0097613D01*
X0261394Y0097613D01*
X0260234Y0096453D02*
X0227627Y0096453D01*
X0226116Y0098052D02*
X0282406Y0098052D01*
X0282406Y0099650D02*
X0266866Y0099650D01*
X0267906Y0100690D02*
X0265329Y0098113D01*
X0263506Y0098113D01*
X0263506Y0102513D01*
X0263506Y0102513D01*
X0267906Y0102513D01*
X0267906Y0100690D01*
X0267906Y0101249D02*
X0282406Y0101249D01*
X0282406Y0102847D02*
X0267906Y0102847D01*
X0267796Y0104446D02*
X0282406Y0104446D01*
X0282406Y0106044D02*
X0266197Y0106044D01*
X0266697Y0107643D02*
X0282406Y0107643D01*
X0282406Y0109241D02*
X0268296Y0109241D01*
X0269206Y0110840D02*
X0282406Y0110840D01*
X0282406Y0112438D02*
X0269206Y0112438D01*
X0269206Y0114037D02*
X0282406Y0114037D01*
X0282406Y0115635D02*
X0268445Y0115635D01*
X0266846Y0117234D02*
X0282406Y0117234D01*
X0282406Y0118832D02*
X0269497Y0118832D01*
X0270656Y0120431D02*
X0282406Y0120431D01*
X0282406Y0122029D02*
X0271106Y0122029D01*
X0271056Y0123628D02*
X0282406Y0123628D01*
X0282406Y0125226D02*
X0270394Y0125226D01*
X0268761Y0126825D02*
X0282406Y0126825D01*
X0282406Y0128423D02*
X0266629Y0128423D01*
X0268228Y0130022D02*
X0281143Y0130022D01*
X0280806Y0130359D02*
X0282406Y0128759D01*
X0282406Y0096267D01*
X0280806Y0094667D01*
X0280806Y0090359D01*
X0283852Y0087313D01*
X0288160Y0087313D01*
X0291206Y0090359D01*
X0291206Y0094667D01*
X0289606Y0096267D01*
X0289606Y0128759D01*
X0291206Y0130359D01*
X0291206Y0134667D01*
X0288160Y0137713D01*
X0283852Y0137713D01*
X0280806Y0134667D01*
X0280806Y0130359D01*
X0280806Y0131620D02*
X0268606Y0131620D01*
X0268606Y0133219D02*
X0280806Y0133219D01*
X0280957Y0134817D02*
X0268414Y0134817D01*
X0266816Y0136416D02*
X0282556Y0136416D01*
X0289457Y0136416D02*
X0368556Y0136416D01*
X0368556Y0135462D02*
X0371456Y0132563D01*
X0373506Y0132563D01*
X0373506Y0137513D01*
X0373506Y0142463D01*
X0371456Y0142463D01*
X0368556Y0139563D01*
X0368556Y0137513D01*
X0373506Y0137513D01*
X0373506Y0137513D01*
X0373506Y0137513D01*
X0373506Y0142463D01*
X0375557Y0142463D01*
X0378082Y0139937D01*
X0381207Y0143063D01*
X0385805Y0143063D01*
X0388506Y0140362D01*
X0391207Y0143063D01*
X0395805Y0143063D01*
X0398506Y0140362D01*
X0401207Y0143063D01*
X0405805Y0143063D01*
X0408506Y0140362D01*
X0411207Y0143063D01*
X0415805Y0143063D01*
X0419056Y0139812D01*
X0419056Y0135214D01*
X0415805Y0131963D01*
X0411207Y0131963D01*
X0408506Y0134664D01*
X0405805Y0131963D01*
X0401207Y0131963D01*
X0398506Y0134664D01*
X0395805Y0131963D01*
X0391207Y0131963D01*
X0388506Y0134664D01*
X0385805Y0131963D01*
X0381207Y0131963D01*
X0378082Y0135088D01*
X0375557Y0132563D01*
X0373506Y0132563D01*
X0373506Y0137513D01*
X0368556Y0137513D01*
X0368556Y0135462D01*
X0369201Y0134817D02*
X0291055Y0134817D01*
X0291206Y0133219D02*
X0370800Y0133219D01*
X0373506Y0133219D02*
X0373506Y0133219D01*
X0373506Y0134817D02*
X0373506Y0134817D01*
X0373506Y0136416D02*
X0373506Y0136416D01*
X0373506Y0137513D02*
X0373506Y0137513D01*
X0373506Y0138015D02*
X0373506Y0138015D01*
X0373506Y0139613D02*
X0373506Y0139613D01*
X0373506Y0141212D02*
X0373506Y0141212D01*
X0370205Y0141212D02*
X0210979Y0141212D01*
X0211106Y0142810D02*
X0380955Y0142810D01*
X0379356Y0141212D02*
X0376808Y0141212D01*
X0374496Y0144963D02*
X0376324Y0145721D01*
X0377724Y0147120D01*
X0378481Y0148948D01*
X0378481Y0156077D01*
X0377724Y0157906D01*
X0376324Y0159305D01*
X0374496Y0160062D01*
X0372517Y0160062D01*
X0370688Y0159305D01*
X0369289Y0157906D01*
X0368531Y0156077D01*
X0368531Y0148948D01*
X0369289Y0147120D01*
X0370688Y0145721D01*
X0372517Y0144963D01*
X0374496Y0144963D01*
X0376611Y0146007D02*
X0380402Y0146007D01*
X0380688Y0145721D02*
X0382517Y0144963D01*
X0384496Y0144963D01*
X0386324Y0145721D01*
X0387724Y0147120D01*
X0388481Y0148948D01*
X0388481Y0156077D01*
X0387724Y0157906D01*
X0386324Y0159305D01*
X0384496Y0160062D01*
X0382517Y0160062D01*
X0380688Y0159305D01*
X0379289Y0157906D01*
X0378531Y0156077D01*
X0378531Y0148948D01*
X0379289Y0147120D01*
X0380688Y0145721D01*
X0379088Y0147606D02*
X0377925Y0147606D01*
X0378481Y0149204D02*
X0378531Y0149204D01*
X0378481Y0150803D02*
X0378531Y0150803D01*
X0378481Y0152401D02*
X0378531Y0152401D01*
X0378481Y0154000D02*
X0378531Y0154000D01*
X0378481Y0155598D02*
X0378531Y0155598D01*
X0378995Y0157197D02*
X0378017Y0157197D01*
X0376834Y0158795D02*
X0380178Y0158795D01*
X0370178Y0158795D02*
X0366834Y0158795D01*
X0366324Y0159305D02*
X0364496Y0160062D01*
X0362517Y0160062D01*
X0360688Y0159305D01*
X0359289Y0157906D01*
X0358531Y0156077D01*
X0358531Y0148948D01*
X0359289Y0147120D01*
X0360688Y0145721D01*
X0362517Y0144963D01*
X0364496Y0144963D01*
X0366324Y0145721D01*
X0367724Y0147120D01*
X0368481Y0148948D01*
X0368481Y0156077D01*
X0367724Y0157906D01*
X0366324Y0159305D01*
X0368017Y0157197D02*
X0368995Y0157197D01*
X0368531Y0155598D02*
X0368481Y0155598D01*
X0368481Y0154000D02*
X0368531Y0154000D01*
X0368481Y0152401D02*
X0368531Y0152401D01*
X0368481Y0150803D02*
X0368531Y0150803D01*
X0368481Y0149204D02*
X0368531Y0149204D01*
X0369088Y0147606D02*
X0367925Y0147606D01*
X0366611Y0146007D02*
X0370402Y0146007D01*
X0368606Y0139613D02*
X0210278Y0139613D01*
X0208312Y0138015D02*
X0220947Y0138015D01*
X0219349Y0136416D02*
X0209274Y0136416D01*
X0208939Y0136752D02*
X0207101Y0137513D01*
X0199912Y0137513D01*
X0198074Y0136752D01*
X0196668Y0135345D01*
X0195906Y0133507D01*
X0195906Y0131518D01*
X0196668Y0129680D01*
X0198074Y0128274D01*
X0199912Y0127513D01*
X0207101Y0127513D01*
X0208939Y0128274D01*
X0210345Y0129680D01*
X0211106Y0131518D01*
X0211106Y0133507D01*
X0210345Y0135345D01*
X0208939Y0136752D01*
X0210564Y0134817D02*
X0217806Y0134817D01*
X0217806Y0133219D02*
X0211106Y0133219D01*
X0211106Y0131620D02*
X0217806Y0131620D01*
X0217936Y0130022D02*
X0210487Y0130022D01*
X0209088Y0128423D02*
X0219535Y0128423D01*
X0218251Y0126825D02*
X0208761Y0126825D01*
X0208939Y0126752D02*
X0207101Y0127513D01*
X0199912Y0127513D01*
X0198074Y0126752D01*
X0196668Y0125345D01*
X0195906Y0123507D01*
X0195906Y0121518D01*
X0196668Y0119680D01*
X0198074Y0118274D01*
X0199912Y0117513D01*
X0207101Y0117513D01*
X0208939Y0118274D01*
X0210345Y0119680D01*
X0211106Y0121518D01*
X0211106Y0123507D01*
X0210345Y0125345D01*
X0208939Y0126752D01*
X0210394Y0125226D02*
X0216618Y0125226D01*
X0215956Y0123628D02*
X0211056Y0123628D01*
X0211106Y0122029D02*
X0215906Y0122029D01*
X0216357Y0120431D02*
X0210656Y0120431D01*
X0209497Y0118832D02*
X0217516Y0118832D01*
X0220166Y0117234D02*
X0177774Y0117234D01*
X0177101Y0117513D02*
X0178939Y0116752D01*
X0180345Y0115345D01*
X0181106Y0113507D01*
X0181106Y0111518D01*
X0180345Y0109680D01*
X0178939Y0108274D01*
X0177101Y0107513D01*
X0169912Y0107513D01*
X0168074Y0108274D01*
X0166668Y0109680D01*
X0165906Y0111518D01*
X0165906Y0113507D01*
X0166668Y0115345D01*
X0168074Y0116752D01*
X0169912Y0117513D01*
X0177101Y0117513D01*
X0178939Y0118274D01*
X0180345Y0119680D01*
X0181106Y0121518D01*
X0181106Y0123507D01*
X0180345Y0125345D01*
X0178939Y0126752D01*
X0177101Y0127513D01*
X0178939Y0128274D01*
X0180345Y0129680D01*
X0181106Y0131518D01*
X0181106Y0133507D01*
X0180345Y0135345D01*
X0178939Y0136752D01*
X0177101Y0137513D01*
X0178939Y0138274D01*
X0180345Y0139680D01*
X0181106Y0141518D01*
X0181106Y0143507D01*
X0180345Y0145345D01*
X0178939Y0146752D01*
X0177101Y0147513D01*
X0169912Y0147513D01*
X0168074Y0146752D01*
X0166668Y0145345D01*
X0165906Y0143507D01*
X0165906Y0141518D01*
X0166668Y0139680D01*
X0168074Y0138274D01*
X0169912Y0137513D01*
X0177101Y0137513D01*
X0169912Y0137513D01*
X0168074Y0136752D01*
X0166668Y0135345D01*
X0165906Y0133507D01*
X0165906Y0131518D01*
X0166668Y0129680D01*
X0168074Y0128274D01*
X0169912Y0127513D01*
X0177101Y0127513D01*
X0169912Y0127513D01*
X0168074Y0126752D01*
X0166668Y0125345D01*
X0165906Y0123507D01*
X0165906Y0121518D01*
X0166668Y0119680D01*
X0168074Y0118274D01*
X0169912Y0117513D01*
X0177101Y0117513D01*
X0179497Y0118832D02*
X0197516Y0118832D01*
X0196357Y0120431D02*
X0180656Y0120431D01*
X0181106Y0122029D02*
X0195906Y0122029D01*
X0195956Y0123628D02*
X0181056Y0123628D01*
X0180394Y0125226D02*
X0196618Y0125226D01*
X0198251Y0126825D02*
X0178761Y0126825D01*
X0179088Y0128423D02*
X0197925Y0128423D01*
X0196526Y0130022D02*
X0180487Y0130022D01*
X0181106Y0131620D02*
X0195906Y0131620D01*
X0195906Y0133219D02*
X0181106Y0133219D01*
X0180564Y0134817D02*
X0196449Y0134817D01*
X0197738Y0136416D02*
X0179274Y0136416D01*
X0178312Y0138015D02*
X0198700Y0138015D01*
X0196735Y0139613D02*
X0180278Y0139613D01*
X0180979Y0141212D02*
X0196033Y0141212D01*
X0195906Y0142810D02*
X0181106Y0142810D01*
X0180733Y0144409D02*
X0196280Y0144409D01*
X0197330Y0146007D02*
X0179683Y0146007D01*
X0167330Y0146007D02*
X0084406Y0146007D01*
X0084406Y0144409D02*
X0166280Y0144409D01*
X0165906Y0142810D02*
X0084406Y0142810D01*
X0084406Y0141212D02*
X0166033Y0141212D01*
X0166735Y0139613D02*
X0084406Y0139613D01*
X0084406Y0138015D02*
X0150947Y0138015D01*
X0151145Y0138213D02*
X0147806Y0134874D01*
X0147806Y0130152D01*
X0150445Y0127513D01*
X0149912Y0127513D01*
X0148074Y0126752D01*
X0146668Y0125345D01*
X0145906Y0123507D01*
X0145906Y0121518D01*
X0146668Y0119680D01*
X0148074Y0118274D01*
X0149912Y0117513D01*
X0150445Y0117513D01*
X0147806Y0114874D01*
X0147806Y0110152D01*
X0150940Y0107018D01*
X0148506Y0104584D01*
X0148506Y0100442D01*
X0150940Y0098008D01*
X0147806Y0094874D01*
X0147806Y0090152D01*
X0150940Y0087018D01*
X0148506Y0084584D01*
X0148506Y0080442D01*
X0151435Y0077513D01*
X0155577Y0077513D01*
X0158506Y0080442D01*
X0158506Y0084584D01*
X0156072Y0087018D01*
X0159206Y0090152D01*
X0159206Y0094874D01*
X0156072Y0098008D01*
X0158506Y0100442D01*
X0158506Y0104584D01*
X0156072Y0107018D01*
X0159206Y0110152D01*
X0159206Y0114874D01*
X0156567Y0117513D01*
X0157101Y0117513D01*
X0158939Y0118274D01*
X0160345Y0119680D01*
X0161106Y0121518D01*
X0161106Y0123507D01*
X0160345Y0125345D01*
X0158939Y0126752D01*
X0157101Y0127513D01*
X0156567Y0127513D01*
X0159206Y0130152D01*
X0159206Y0134874D01*
X0155867Y0138213D01*
X0151145Y0138213D01*
X0149349Y0136416D02*
X0116816Y0136416D01*
X0115619Y0137613D02*
X0113506Y0137613D01*
X0111394Y0137613D01*
X0108406Y0134625D01*
X0108406Y0132513D01*
X0113506Y0132513D01*
X0113506Y0132513D01*
X0113506Y0137613D01*
X0113506Y0132513D01*
X0113506Y0132513D01*
X0108406Y0132513D01*
X0108406Y0130400D01*
X0111294Y0127513D01*
X0109912Y0127513D01*
X0108074Y0126752D01*
X0106668Y0125345D01*
X0105906Y0123507D01*
X0105906Y0121518D01*
X0106668Y0119680D01*
X0108074Y0118274D01*
X0109912Y0117513D01*
X0110445Y0117513D01*
X0107806Y0114874D01*
X0107806Y0110152D01*
X0111145Y0106813D01*
X0111584Y0106813D01*
X0109106Y0104335D01*
X0109106Y0102513D01*
X0113506Y0102513D01*
X0113506Y0102513D01*
X0109106Y0102513D01*
X0109106Y0100690D01*
X0111684Y0098113D01*
X0113506Y0098113D01*
X0113506Y0102513D01*
X0113506Y0102513D01*
X0117906Y0102513D01*
X0117906Y0104335D01*
X0115429Y0106813D01*
X0115867Y0106813D01*
X0119206Y0110152D01*
X0119206Y0114874D01*
X0116567Y0117513D01*
X0117101Y0117513D01*
X0118939Y0118274D01*
X0120345Y0119680D01*
X0121106Y0121518D01*
X0121106Y0123507D01*
X0120345Y0125345D01*
X0118939Y0126752D01*
X0117101Y0127513D01*
X0115719Y0127513D01*
X0118606Y0130400D01*
X0118606Y0132513D01*
X0118606Y0134625D01*
X0115619Y0137613D01*
X0113506Y0136416D02*
X0113506Y0136416D01*
X0113506Y0134817D02*
X0113506Y0134817D01*
X0113506Y0133219D02*
X0113506Y0133219D01*
X0113506Y0132513D02*
X0118606Y0132513D01*
X0113506Y0132513D01*
X0113506Y0132513D01*
X0110197Y0136416D02*
X0084406Y0136416D01*
X0084406Y0134817D02*
X0108599Y0134817D01*
X0108406Y0133219D02*
X0084406Y0133219D01*
X0084406Y0131620D02*
X0108406Y0131620D01*
X0108785Y0130022D02*
X0084406Y0130022D01*
X0084406Y0128423D02*
X0110383Y0128423D01*
X0108251Y0126825D02*
X0084406Y0126825D01*
X0084406Y0125226D02*
X0106618Y0125226D01*
X0105956Y0123628D02*
X0084406Y0123628D01*
X0084406Y0122029D02*
X0105906Y0122029D01*
X0106357Y0120431D02*
X0084406Y0120431D01*
X0084406Y0118832D02*
X0107516Y0118832D01*
X0110166Y0117234D02*
X0084406Y0117234D01*
X0084406Y0115635D02*
X0108568Y0115635D01*
X0107806Y0114037D02*
X0084406Y0114037D01*
X0084406Y0112438D02*
X0107806Y0112438D01*
X0107806Y0110840D02*
X0084406Y0110840D01*
X0084406Y0109241D02*
X0108717Y0109241D01*
X0110315Y0107643D02*
X0084406Y0107643D01*
X0084406Y0106044D02*
X0110815Y0106044D01*
X0109217Y0104446D02*
X0084406Y0104446D01*
X0084406Y0102847D02*
X0109106Y0102847D01*
X0109106Y0101249D02*
X0084406Y0101249D01*
X0084406Y0099650D02*
X0110146Y0099650D01*
X0111394Y0097613D02*
X0108406Y0094625D01*
X0108406Y0092513D01*
X0113506Y0092513D01*
X0113506Y0092513D01*
X0113506Y0097613D01*
X0111394Y0097613D01*
X0110234Y0096453D02*
X0084406Y0096453D01*
X0084406Y0094855D02*
X0108636Y0094855D01*
X0108406Y0093256D02*
X0084406Y0093256D01*
X0084406Y0091658D02*
X0108406Y0091658D01*
X0108406Y0092513D02*
X0108406Y0090400D01*
X0111365Y0087442D01*
X0108506Y0084584D01*
X0108506Y0080442D01*
X0111435Y0077513D01*
X0115577Y0077513D01*
X0118506Y0080442D01*
X0118506Y0084584D01*
X0115648Y0087442D01*
X0118606Y0090400D01*
X0118606Y0092513D01*
X0118606Y0094625D01*
X0115619Y0097613D01*
X0113506Y0097613D01*
X0113506Y0092513D01*
X0113506Y0092513D01*
X0108406Y0092513D01*
X0108747Y0090059D02*
X0084406Y0090059D01*
X0084406Y0088461D02*
X0110346Y0088461D01*
X0110785Y0086862D02*
X0084406Y0086862D01*
X0084406Y0085264D02*
X0109186Y0085264D01*
X0108506Y0083665D02*
X0084406Y0083665D01*
X0084406Y0082067D02*
X0108506Y0082067D01*
X0108506Y0080468D02*
X0084406Y0080468D01*
X0084406Y0078870D02*
X0110078Y0078870D01*
X0116934Y0078870D02*
X0150078Y0078870D01*
X0148506Y0080468D02*
X0118506Y0080468D01*
X0118506Y0082067D02*
X0148506Y0082067D01*
X0148506Y0083665D02*
X0118506Y0083665D01*
X0117826Y0085264D02*
X0149186Y0085264D01*
X0150785Y0086862D02*
X0116228Y0086862D01*
X0116667Y0088461D02*
X0149497Y0088461D01*
X0147899Y0090059D02*
X0118265Y0090059D01*
X0118606Y0091658D02*
X0147806Y0091658D01*
X0147806Y0093256D02*
X0118606Y0093256D01*
X0118606Y0092513D02*
X0113506Y0092513D01*
X0113506Y0092513D01*
X0118606Y0092513D01*
X0118377Y0094855D02*
X0147806Y0094855D01*
X0149386Y0096453D02*
X0116778Y0096453D01*
X0115329Y0098113D02*
X0117906Y0100690D01*
X0117906Y0102513D01*
X0113506Y0102513D01*
X0113506Y0102513D01*
X0113506Y0098113D01*
X0115329Y0098113D01*
X0116866Y0099650D02*
X0149298Y0099650D01*
X0148506Y0101249D02*
X0117906Y0101249D01*
X0117906Y0102847D02*
X0148506Y0102847D01*
X0148506Y0104446D02*
X0117796Y0104446D01*
X0116197Y0106044D02*
X0149967Y0106044D01*
X0150315Y0107643D02*
X0116697Y0107643D01*
X0118296Y0109241D02*
X0148717Y0109241D01*
X0147806Y0110840D02*
X0119206Y0110840D01*
X0119206Y0112438D02*
X0147806Y0112438D01*
X0147806Y0114037D02*
X0119206Y0114037D01*
X0118445Y0115635D02*
X0148568Y0115635D01*
X0150166Y0117234D02*
X0116846Y0117234D01*
X0119497Y0118832D02*
X0147516Y0118832D01*
X0146357Y0120431D02*
X0120656Y0120431D01*
X0121106Y0122029D02*
X0145906Y0122029D01*
X0145956Y0123628D02*
X0121056Y0123628D01*
X0120394Y0125226D02*
X0146618Y0125226D01*
X0148251Y0126825D02*
X0118761Y0126825D01*
X0116629Y0128423D02*
X0149535Y0128423D01*
X0147936Y0130022D02*
X0118228Y0130022D01*
X0118606Y0131620D02*
X0147806Y0131620D01*
X0147806Y0133219D02*
X0118606Y0133219D01*
X0118414Y0134817D02*
X0147806Y0134817D01*
X0156066Y0138015D02*
X0168700Y0138015D01*
X0167738Y0136416D02*
X0157664Y0136416D01*
X0159206Y0134817D02*
X0166449Y0134817D01*
X0165906Y0133219D02*
X0159206Y0133219D01*
X0159206Y0131620D02*
X0165906Y0131620D01*
X0166526Y0130022D02*
X0159076Y0130022D01*
X0157478Y0128423D02*
X0167925Y0128423D01*
X0168251Y0126825D02*
X0158761Y0126825D01*
X0160394Y0125226D02*
X0166618Y0125226D01*
X0165956Y0123628D02*
X0161056Y0123628D01*
X0161106Y0122029D02*
X0165906Y0122029D01*
X0166357Y0120431D02*
X0160656Y0120431D01*
X0159497Y0118832D02*
X0167516Y0118832D01*
X0169238Y0117234D02*
X0156846Y0117234D01*
X0158445Y0115635D02*
X0166958Y0115635D01*
X0166126Y0114037D02*
X0159206Y0114037D01*
X0159206Y0112438D02*
X0165906Y0112438D01*
X0166187Y0110840D02*
X0159206Y0110840D01*
X0158296Y0109241D02*
X0167107Y0109241D01*
X0168074Y0106752D02*
X0166668Y0105345D01*
X0165906Y0103507D01*
X0165906Y0101518D01*
X0166668Y0099680D01*
X0168074Y0098274D01*
X0169912Y0097513D01*
X0177101Y0097513D01*
X0178939Y0098274D01*
X0180345Y0099680D01*
X0181106Y0101518D01*
X0181106Y0103507D01*
X0180345Y0105345D01*
X0178939Y0106752D01*
X0177101Y0107513D01*
X0169912Y0107513D01*
X0168074Y0106752D01*
X0167367Y0106044D02*
X0157046Y0106044D01*
X0156697Y0107643D02*
X0169598Y0107643D01*
X0166295Y0104446D02*
X0158506Y0104446D01*
X0158506Y0102847D02*
X0165906Y0102847D01*
X0166018Y0101249D02*
X0158506Y0101249D01*
X0157715Y0099650D02*
X0166698Y0099650D01*
X0168611Y0098052D02*
X0156116Y0098052D01*
X0157627Y0096453D02*
X0167776Y0096453D01*
X0168074Y0096752D02*
X0166668Y0095345D01*
X0165906Y0093507D01*
X0165906Y0091518D01*
X0166668Y0089680D01*
X0168074Y0088274D01*
X0169912Y0087513D01*
X0177101Y0087513D01*
X0178939Y0088274D01*
X0180345Y0089680D01*
X0181106Y0091518D01*
X0181106Y0093507D01*
X0180345Y0095345D01*
X0178939Y0096752D01*
X0177101Y0097513D01*
X0169912Y0097513D01*
X0168074Y0096752D01*
X0166464Y0094855D02*
X0159206Y0094855D01*
X0159206Y0093256D02*
X0165906Y0093256D01*
X0165906Y0091658D02*
X0159206Y0091658D01*
X0159114Y0090059D02*
X0166511Y0090059D01*
X0167887Y0088461D02*
X0157515Y0088461D01*
X0156228Y0086862D02*
X0168341Y0086862D01*
X0168074Y0086752D02*
X0166668Y0085345D01*
X0165906Y0083507D01*
X0165906Y0081518D01*
X0166668Y0079680D01*
X0168074Y0078274D01*
X0169912Y0077513D01*
X0177101Y0077513D01*
X0178939Y0078274D01*
X0180345Y0079680D01*
X0181106Y0081518D01*
X0181106Y0083507D01*
X0180345Y0085345D01*
X0178939Y0086752D01*
X0177101Y0087513D01*
X0169912Y0087513D01*
X0168074Y0086752D01*
X0166634Y0085264D02*
X0157826Y0085264D01*
X0158506Y0083665D02*
X0165972Y0083665D01*
X0165906Y0082067D02*
X0158506Y0082067D01*
X0158506Y0080468D02*
X0166341Y0080468D01*
X0167478Y0078870D02*
X0156934Y0078870D01*
X0143290Y0073002D02*
X0143290Y0073002D01*
X0143267Y0073025D01*
X0142590Y0073702D01*
X0142590Y0073702D01*
X0141825Y0074467D01*
X0141802Y0074490D01*
X0141802Y0074490D01*
X0141205Y0074737D01*
X0140773Y0074916D01*
X0137557Y0074916D01*
X0136863Y0074629D01*
X0136638Y0074722D01*
X0136169Y0074916D01*
X0133654Y0074916D01*
X0133221Y0074737D01*
X0132960Y0074629D01*
X0132266Y0074916D01*
X0128349Y0074916D01*
X0127320Y0074490D01*
X0126533Y0073702D01*
X0126106Y0072673D01*
X0126106Y0071559D01*
X0126533Y0070530D01*
X0127320Y0069743D01*
X0127507Y0069665D01*
X0127507Y0067356D01*
X0127934Y0066327D01*
X0128721Y0065539D01*
X0129751Y0065113D01*
X0130864Y0065113D01*
X0131894Y0065539D01*
X0132259Y0065905D01*
X0132625Y0065539D01*
X0133654Y0065113D01*
X0136169Y0065113D01*
X0136863Y0065400D01*
X0137557Y0065113D01*
X0138671Y0065113D01*
X0139700Y0065539D01*
X0140488Y0066327D01*
X0140565Y0066514D01*
X0140773Y0066514D01*
X0141193Y0066688D01*
X0141802Y0066940D01*
X0142590Y0067728D01*
X0143290Y0068428D01*
X0143470Y0068863D01*
X0143717Y0069458D01*
X0143717Y0071973D01*
X0143463Y0072584D01*
X0143290Y0073002D01*
X0143508Y0072476D02*
X0177806Y0072476D01*
X0177806Y0074074D02*
X0142218Y0074074D01*
X0143717Y0070877D02*
X0177806Y0070877D01*
X0177806Y0070152D02*
X0181145Y0066813D01*
X0185867Y0066813D01*
X0188931Y0069876D01*
X0191394Y0067413D01*
X0193506Y0067413D01*
X0193506Y0072513D01*
X0193506Y0077613D01*
X0191394Y0077613D01*
X0188931Y0075149D01*
X0185867Y0078213D01*
X0181145Y0078213D01*
X0177806Y0074874D01*
X0177806Y0070152D01*
X0178680Y0069279D02*
X0143642Y0069279D01*
X0142590Y0067728D02*
X0142590Y0067728D01*
X0142542Y0067680D02*
X0180278Y0067680D01*
X0186735Y0067680D02*
X0191127Y0067680D01*
X0189528Y0069279D02*
X0188333Y0069279D01*
X0193506Y0069279D02*
X0193506Y0069279D01*
X0193506Y0070877D02*
X0193506Y0070877D01*
X0193506Y0072476D02*
X0193506Y0072476D01*
X0193506Y0072513D02*
X0193506Y0067413D01*
X0195619Y0067413D01*
X0198606Y0070400D01*
X0198606Y0072513D01*
X0198606Y0074625D01*
X0195619Y0077613D01*
X0193506Y0077613D01*
X0193506Y0072513D01*
X0193506Y0072513D01*
X0193506Y0072513D01*
X0198606Y0072513D01*
X0193506Y0072513D01*
X0193506Y0072513D01*
X0193506Y0074074D02*
X0193506Y0074074D01*
X0193506Y0075673D02*
X0193506Y0075673D01*
X0193506Y0077271D02*
X0193506Y0077271D01*
X0191052Y0077271D02*
X0186809Y0077271D01*
X0188407Y0075673D02*
X0189454Y0075673D01*
X0195960Y0077271D02*
X0348556Y0077271D01*
X0348556Y0077513D02*
X0348556Y0075462D01*
X0351456Y0072563D01*
X0353506Y0072563D01*
X0353506Y0077513D01*
X0353506Y0082463D01*
X0351456Y0082463D01*
X0348556Y0079563D01*
X0348556Y0077513D01*
X0353506Y0077513D01*
X0353506Y0077513D01*
X0353506Y0077513D01*
X0353506Y0082463D01*
X0355557Y0082463D01*
X0358082Y0079937D01*
X0361207Y0083063D01*
X0365805Y0083063D01*
X0368506Y0080362D01*
X0371207Y0083063D01*
X0375805Y0083063D01*
X0378506Y0080362D01*
X0381207Y0083063D01*
X0385805Y0083063D01*
X0388506Y0080362D01*
X0391207Y0083063D01*
X0395805Y0083063D01*
X0398506Y0080362D01*
X0401207Y0083063D01*
X0405805Y0083063D01*
X0408506Y0080362D01*
X0411207Y0083063D01*
X0415805Y0083063D01*
X0418506Y0080362D01*
X0421207Y0083063D01*
X0425805Y0083063D01*
X0429056Y0079812D01*
X0429056Y0075214D01*
X0425805Y0071963D01*
X0421207Y0071963D01*
X0418506Y0074664D01*
X0415805Y0071963D01*
X0411207Y0071963D01*
X0408506Y0074664D01*
X0405805Y0071963D01*
X0401207Y0071963D01*
X0398506Y0074664D01*
X0395805Y0071963D01*
X0391207Y0071963D01*
X0388506Y0074664D01*
X0385805Y0071963D01*
X0381207Y0071963D01*
X0378506Y0074664D01*
X0375805Y0071963D01*
X0371207Y0071963D01*
X0368506Y0074664D01*
X0365805Y0071963D01*
X0361207Y0071963D01*
X0358082Y0075088D01*
X0355557Y0072563D01*
X0353506Y0072563D01*
X0353506Y0077513D01*
X0348556Y0077513D01*
X0348556Y0078870D02*
X0266934Y0078870D01*
X0265577Y0077513D02*
X0268506Y0080442D01*
X0268506Y0084584D01*
X0265648Y0087442D01*
X0268606Y0090400D01*
X0268606Y0092513D01*
X0268606Y0094625D01*
X0265619Y0097613D01*
X0263506Y0097613D01*
X0263506Y0092513D01*
X0263506Y0092513D01*
X0258406Y0092513D01*
X0258406Y0090400D01*
X0261365Y0087442D01*
X0258506Y0084584D01*
X0258506Y0080442D01*
X0261435Y0077513D01*
X0265577Y0077513D01*
X0268506Y0080468D02*
X0349461Y0080468D01*
X0351060Y0082067D02*
X0268506Y0082067D01*
X0268506Y0083665D02*
X0476307Y0083665D01*
X0476307Y0082067D02*
X0426801Y0082067D01*
X0428400Y0080468D02*
X0476307Y0080468D01*
X0476307Y0078870D02*
X0429056Y0078870D01*
X0429056Y0077271D02*
X0476307Y0077271D01*
X0476307Y0075673D02*
X0429056Y0075673D01*
X0427916Y0074074D02*
X0476307Y0074074D01*
X0476307Y0072476D02*
X0426318Y0072476D01*
X0424496Y0070062D02*
X0422517Y0070062D01*
X0420688Y0069305D01*
X0419289Y0067906D01*
X0418531Y0066077D01*
X0418531Y0058948D01*
X0419289Y0057120D01*
X0420688Y0055721D01*
X0422517Y0054963D01*
X0424496Y0054963D01*
X0426324Y0055721D01*
X0427724Y0057120D01*
X0428481Y0058948D01*
X0428481Y0066077D01*
X0427724Y0067906D01*
X0426324Y0069305D01*
X0424496Y0070062D01*
X0426351Y0069279D02*
X0430662Y0069279D01*
X0430688Y0069305D02*
X0429289Y0067906D01*
X0428531Y0066077D01*
X0428531Y0058948D01*
X0429289Y0057120D01*
X0430688Y0055721D01*
X0432517Y0054963D01*
X0434496Y0054963D01*
X0436324Y0055721D01*
X0437724Y0057120D01*
X0438481Y0058948D01*
X0438481Y0066077D01*
X0437724Y0067906D01*
X0436324Y0069305D01*
X0434496Y0070062D01*
X0432517Y0070062D01*
X0430688Y0069305D01*
X0429195Y0067680D02*
X0427817Y0067680D01*
X0428479Y0066081D02*
X0428533Y0066081D01*
X0428481Y0064483D02*
X0428531Y0064483D01*
X0428481Y0062884D02*
X0428531Y0062884D01*
X0428481Y0061286D02*
X0428531Y0061286D01*
X0428481Y0059687D02*
X0428531Y0059687D01*
X0428887Y0058089D02*
X0428125Y0058089D01*
X0427094Y0056490D02*
X0429918Y0056490D01*
X0437094Y0056490D02*
X0439918Y0056490D01*
X0439289Y0057120D02*
X0440688Y0055721D01*
X0442517Y0054963D01*
X0444496Y0054963D01*
X0446324Y0055721D01*
X0447724Y0057120D01*
X0448481Y0058948D01*
X0448481Y0066077D01*
X0447724Y0067906D01*
X0446324Y0069305D01*
X0444496Y0070062D01*
X0442517Y0070062D01*
X0440688Y0069305D01*
X0439289Y0067906D01*
X0438531Y0066077D01*
X0438531Y0058948D01*
X0439289Y0057120D01*
X0438887Y0058089D02*
X0438125Y0058089D01*
X0438481Y0059687D02*
X0438531Y0059687D01*
X0438481Y0061286D02*
X0438531Y0061286D01*
X0438481Y0062884D02*
X0438531Y0062884D01*
X0438481Y0064483D02*
X0438531Y0064483D01*
X0438479Y0066081D02*
X0438533Y0066081D01*
X0439195Y0067680D02*
X0437817Y0067680D01*
X0436351Y0069279D02*
X0440662Y0069279D01*
X0446351Y0069279D02*
X0450662Y0069279D01*
X0450688Y0069305D02*
X0449289Y0067906D01*
X0448531Y0066077D01*
X0448531Y0058948D01*
X0449289Y0057120D01*
X0450688Y0055721D01*
X0452517Y0054963D01*
X0454496Y0054963D01*
X0456324Y0055721D01*
X0457724Y0057120D01*
X0458481Y0058948D01*
X0458481Y0066077D01*
X0457724Y0067906D01*
X0456324Y0069305D01*
X0454496Y0070062D01*
X0452517Y0070062D01*
X0450688Y0069305D01*
X0449195Y0067680D02*
X0447817Y0067680D01*
X0448479Y0066081D02*
X0448533Y0066081D01*
X0448481Y0064483D02*
X0448531Y0064483D01*
X0448481Y0062884D02*
X0448531Y0062884D01*
X0448481Y0061286D02*
X0448531Y0061286D01*
X0448481Y0059687D02*
X0448531Y0059687D01*
X0448887Y0058089D02*
X0448125Y0058089D01*
X0447094Y0056490D02*
X0449918Y0056490D01*
X0457094Y0056490D02*
X0459918Y0056490D01*
X0459289Y0057120D02*
X0460688Y0055721D01*
X0462517Y0054963D01*
X0464496Y0054963D01*
X0466324Y0055721D01*
X0467724Y0057120D01*
X0468481Y0058948D01*
X0468481Y0066077D01*
X0467724Y0067906D01*
X0466324Y0069305D01*
X0464496Y0070062D01*
X0462517Y0070062D01*
X0460688Y0069305D01*
X0459289Y0067906D01*
X0458531Y0066077D01*
X0458531Y0058948D01*
X0459289Y0057120D01*
X0458887Y0058089D02*
X0458125Y0058089D01*
X0458481Y0059687D02*
X0458531Y0059687D01*
X0458481Y0061286D02*
X0458531Y0061286D01*
X0458481Y0062884D02*
X0458531Y0062884D01*
X0458481Y0064483D02*
X0458531Y0064483D01*
X0458479Y0066081D02*
X0458533Y0066081D01*
X0459195Y0067680D02*
X0457817Y0067680D01*
X0456351Y0069279D02*
X0460662Y0069279D01*
X0466351Y0069279D02*
X0476307Y0069279D01*
X0476307Y0070877D02*
X0198606Y0070877D01*
X0198606Y0072476D02*
X0360695Y0072476D01*
X0359096Y0074074D02*
X0357068Y0074074D01*
X0353506Y0074074D02*
X0353506Y0074074D01*
X0353506Y0075673D02*
X0353506Y0075673D01*
X0353506Y0077271D02*
X0353506Y0077271D01*
X0353506Y0077513D02*
X0353506Y0077513D01*
X0353506Y0078870D02*
X0353506Y0078870D01*
X0353506Y0080468D02*
X0353506Y0080468D01*
X0353506Y0082067D02*
X0353506Y0082067D01*
X0355953Y0082067D02*
X0360211Y0082067D01*
X0358613Y0080468D02*
X0357551Y0080468D01*
X0348556Y0075673D02*
X0197559Y0075673D01*
X0198606Y0074074D02*
X0349945Y0074074D01*
X0351827Y0069142D02*
X0351213Y0068829D01*
X0350656Y0068424D01*
X0350169Y0067938D01*
X0349765Y0067380D01*
X0349452Y0066767D01*
X0349239Y0066112D01*
X0349131Y0065432D01*
X0349131Y0062513D01*
X0353506Y0062513D01*
X0353506Y0062513D01*
X0353506Y0069462D01*
X0353162Y0069462D01*
X0352482Y0069355D01*
X0351827Y0069142D01*
X0352248Y0069279D02*
X0346351Y0069279D01*
X0346324Y0069305D02*
X0344496Y0070062D01*
X0342517Y0070062D01*
X0340688Y0069305D01*
X0339289Y0067906D01*
X0338531Y0066077D01*
X0338531Y0058948D01*
X0339289Y0057120D01*
X0340688Y0055721D01*
X0342517Y0054963D01*
X0344496Y0054963D01*
X0346324Y0055721D01*
X0347724Y0057120D01*
X0348481Y0058948D01*
X0348481Y0066077D01*
X0347724Y0067906D01*
X0346324Y0069305D01*
X0347817Y0067680D02*
X0349982Y0067680D01*
X0349234Y0066081D02*
X0348479Y0066081D01*
X0348481Y0064483D02*
X0349131Y0064483D01*
X0349131Y0062884D02*
X0348481Y0062884D01*
X0349131Y0062513D02*
X0349131Y0059594D01*
X0349239Y0058914D01*
X0349452Y0058259D01*
X0349765Y0057645D01*
X0350169Y0057088D01*
X0350656Y0056601D01*
X0351213Y0056196D01*
X0351827Y0055884D01*
X0352482Y0055671D01*
X0353162Y0055563D01*
X0353506Y0055563D01*
X0353506Y0062513D01*
X0353506Y0062513D01*
X0349131Y0062513D01*
X0349131Y0061286D02*
X0348481Y0061286D01*
X0348481Y0059687D02*
X0349131Y0059687D01*
X0349538Y0058089D02*
X0348125Y0058089D01*
X0347094Y0056490D02*
X0350809Y0056490D01*
X0353506Y0056490D02*
X0353506Y0056490D01*
X0353506Y0055563D02*
X0353851Y0055563D01*
X0354531Y0055671D01*
X0355186Y0055884D01*
X0355799Y0056196D01*
X0356356Y0056601D01*
X0356843Y0057088D01*
X0357248Y0057645D01*
X0357561Y0058259D01*
X0357773Y0058914D01*
X0357881Y0059594D01*
X0357881Y0062513D01*
X0357881Y0065432D01*
X0357773Y0066112D01*
X0357561Y0066767D01*
X0357248Y0067380D01*
X0356843Y0067938D01*
X0356356Y0068424D01*
X0355799Y0068829D01*
X0355186Y0069142D01*
X0354531Y0069355D01*
X0353851Y0069462D01*
X0353506Y0069462D01*
X0353506Y0062513D01*
X0353506Y0062513D01*
X0357881Y0062513D01*
X0353506Y0062513D01*
X0353506Y0062513D01*
X0353506Y0055563D01*
X0353506Y0058089D02*
X0353506Y0058089D01*
X0353506Y0059687D02*
X0353506Y0059687D01*
X0353506Y0061286D02*
X0353506Y0061286D01*
X0353506Y0062884D02*
X0353506Y0062884D01*
X0353506Y0064483D02*
X0353506Y0064483D01*
X0353506Y0066081D02*
X0353506Y0066081D01*
X0353506Y0067680D02*
X0353506Y0067680D01*
X0353506Y0069279D02*
X0353506Y0069279D01*
X0354765Y0069279D02*
X0360662Y0069279D01*
X0360688Y0069305D02*
X0359289Y0067906D01*
X0358531Y0066077D01*
X0358531Y0058948D01*
X0359289Y0057120D01*
X0360688Y0055721D01*
X0362517Y0054963D01*
X0364496Y0054963D01*
X0366324Y0055721D01*
X0367724Y0057120D01*
X0368481Y0058948D01*
X0368481Y0066077D01*
X0367724Y0067906D01*
X0366324Y0069305D01*
X0364496Y0070062D01*
X0362517Y0070062D01*
X0360688Y0069305D01*
X0359195Y0067680D02*
X0357030Y0067680D01*
X0357778Y0066081D02*
X0358533Y0066081D01*
X0358531Y0064483D02*
X0357881Y0064483D01*
X0357881Y0062884D02*
X0358531Y0062884D01*
X0358531Y0061286D02*
X0357881Y0061286D01*
X0357881Y0059687D02*
X0358531Y0059687D01*
X0358887Y0058089D02*
X0357474Y0058089D01*
X0356204Y0056490D02*
X0359918Y0056490D01*
X0367094Y0056490D02*
X0369918Y0056490D01*
X0369289Y0057120D02*
X0370688Y0055721D01*
X0372517Y0054963D01*
X0374496Y0054963D01*
X0376324Y0055721D01*
X0377724Y0057120D01*
X0378481Y0058948D01*
X0378481Y0066077D01*
X0377724Y0067906D01*
X0376324Y0069305D01*
X0374496Y0070062D01*
X0372517Y0070062D01*
X0370688Y0069305D01*
X0369289Y0067906D01*
X0368531Y0066077D01*
X0368531Y0058948D01*
X0369289Y0057120D01*
X0368887Y0058089D02*
X0368125Y0058089D01*
X0368481Y0059687D02*
X0368531Y0059687D01*
X0368481Y0061286D02*
X0368531Y0061286D01*
X0368481Y0062884D02*
X0368531Y0062884D01*
X0368481Y0064483D02*
X0368531Y0064483D01*
X0368479Y0066081D02*
X0368533Y0066081D01*
X0369195Y0067680D02*
X0367817Y0067680D01*
X0366351Y0069279D02*
X0370662Y0069279D01*
X0370695Y0072476D02*
X0366318Y0072476D01*
X0367916Y0074074D02*
X0369096Y0074074D01*
X0368613Y0080468D02*
X0368400Y0080468D01*
X0366801Y0082067D02*
X0370211Y0082067D01*
X0376801Y0082067D02*
X0380211Y0082067D01*
X0378613Y0080468D02*
X0378400Y0080468D01*
X0377916Y0074074D02*
X0379096Y0074074D01*
X0380695Y0072476D02*
X0376318Y0072476D01*
X0376351Y0069279D02*
X0380662Y0069279D01*
X0380688Y0069305D02*
X0379289Y0067906D01*
X0378531Y0066077D01*
X0378531Y0058948D01*
X0379289Y0057120D01*
X0380688Y0055721D01*
X0382517Y0054963D01*
X0384496Y0054963D01*
X0386324Y0055721D01*
X0387724Y0057120D01*
X0388481Y0058948D01*
X0388481Y0066077D01*
X0387724Y0067906D01*
X0386324Y0069305D01*
X0384496Y0070062D01*
X0382517Y0070062D01*
X0380688Y0069305D01*
X0379195Y0067680D02*
X0377817Y0067680D01*
X0378479Y0066081D02*
X0378533Y0066081D01*
X0378481Y0064483D02*
X0378531Y0064483D01*
X0378481Y0062884D02*
X0378531Y0062884D01*
X0378481Y0061286D02*
X0378531Y0061286D01*
X0378481Y0059687D02*
X0378531Y0059687D01*
X0378887Y0058089D02*
X0378125Y0058089D01*
X0377094Y0056490D02*
X0379918Y0056490D01*
X0387094Y0056490D02*
X0389918Y0056490D01*
X0389289Y0057120D02*
X0390688Y0055721D01*
X0392517Y0054963D01*
X0394496Y0054963D01*
X0396324Y0055721D01*
X0397724Y0057120D01*
X0398481Y0058948D01*
X0398481Y0066077D01*
X0397724Y0067906D01*
X0396324Y0069305D01*
X0394496Y0070062D01*
X0392517Y0070062D01*
X0390688Y0069305D01*
X0389289Y0067906D01*
X0388531Y0066077D01*
X0388531Y0058948D01*
X0389289Y0057120D01*
X0388887Y0058089D02*
X0388125Y0058089D01*
X0388481Y0059687D02*
X0388531Y0059687D01*
X0388481Y0061286D02*
X0388531Y0061286D01*
X0388481Y0062884D02*
X0388531Y0062884D01*
X0388481Y0064483D02*
X0388531Y0064483D01*
X0388479Y0066081D02*
X0388533Y0066081D01*
X0389195Y0067680D02*
X0387817Y0067680D01*
X0386351Y0069279D02*
X0390662Y0069279D01*
X0390695Y0072476D02*
X0386318Y0072476D01*
X0387916Y0074074D02*
X0389096Y0074074D01*
X0396318Y0072476D02*
X0400695Y0072476D01*
X0399096Y0074074D02*
X0397916Y0074074D01*
X0396351Y0069279D02*
X0400662Y0069279D01*
X0400688Y0069305D02*
X0399289Y0067906D01*
X0398531Y0066077D01*
X0398531Y0058948D01*
X0399289Y0057120D01*
X0400688Y0055721D01*
X0402517Y0054963D01*
X0404496Y0054963D01*
X0406324Y0055721D01*
X0407724Y0057120D01*
X0408481Y0058948D01*
X0408481Y0066077D01*
X0407724Y0067906D01*
X0406324Y0069305D01*
X0404496Y0070062D01*
X0402517Y0070062D01*
X0400688Y0069305D01*
X0399195Y0067680D02*
X0397817Y0067680D01*
X0398479Y0066081D02*
X0398533Y0066081D01*
X0398481Y0064483D02*
X0398531Y0064483D01*
X0398481Y0062884D02*
X0398531Y0062884D01*
X0398481Y0061286D02*
X0398531Y0061286D01*
X0398481Y0059687D02*
X0398531Y0059687D01*
X0398887Y0058089D02*
X0398125Y0058089D01*
X0397094Y0056490D02*
X0399918Y0056490D01*
X0407094Y0056490D02*
X0409918Y0056490D01*
X0409289Y0057120D02*
X0410688Y0055721D01*
X0412517Y0054963D01*
X0414496Y0054963D01*
X0416324Y0055721D01*
X0417724Y0057120D01*
X0418481Y0058948D01*
X0418481Y0066077D01*
X0417724Y0067906D01*
X0416324Y0069305D01*
X0414496Y0070062D01*
X0412517Y0070062D01*
X0410688Y0069305D01*
X0409289Y0067906D01*
X0408531Y0066077D01*
X0408531Y0058948D01*
X0409289Y0057120D01*
X0408887Y0058089D02*
X0408125Y0058089D01*
X0408481Y0059687D02*
X0408531Y0059687D01*
X0408481Y0061286D02*
X0408531Y0061286D01*
X0408481Y0062884D02*
X0408531Y0062884D01*
X0408481Y0064483D02*
X0408531Y0064483D01*
X0408479Y0066081D02*
X0408533Y0066081D01*
X0409195Y0067680D02*
X0407817Y0067680D01*
X0406351Y0069279D02*
X0410662Y0069279D01*
X0410695Y0072476D02*
X0406318Y0072476D01*
X0407916Y0074074D02*
X0409096Y0074074D01*
X0416318Y0072476D02*
X0420695Y0072476D01*
X0419096Y0074074D02*
X0417916Y0074074D01*
X0416351Y0069279D02*
X0420662Y0069279D01*
X0419195Y0067680D02*
X0417817Y0067680D01*
X0418479Y0066081D02*
X0418533Y0066081D01*
X0418481Y0064483D02*
X0418531Y0064483D01*
X0418481Y0062884D02*
X0418531Y0062884D01*
X0418481Y0061286D02*
X0418531Y0061286D01*
X0418481Y0059687D02*
X0418531Y0059687D01*
X0418887Y0058089D02*
X0418125Y0058089D01*
X0417094Y0056490D02*
X0419918Y0056490D01*
X0418613Y0080468D02*
X0418400Y0080468D01*
X0416801Y0082067D02*
X0420211Y0082067D01*
X0410211Y0082067D02*
X0406801Y0082067D01*
X0408400Y0080468D02*
X0408613Y0080468D01*
X0400211Y0082067D02*
X0396801Y0082067D01*
X0398400Y0080468D02*
X0398613Y0080468D01*
X0390211Y0082067D02*
X0386801Y0082067D01*
X0388400Y0080468D02*
X0388613Y0080468D01*
X0392517Y0114963D02*
X0394496Y0114963D01*
X0396324Y0115721D01*
X0397724Y0117120D01*
X0398481Y0118948D01*
X0398481Y0126077D01*
X0397724Y0127906D01*
X0396324Y0129305D01*
X0394496Y0130062D01*
X0392517Y0130062D01*
X0390688Y0129305D01*
X0389289Y0127906D01*
X0388531Y0126077D01*
X0388531Y0118948D01*
X0389289Y0117120D01*
X0390688Y0115721D01*
X0392517Y0114963D01*
X0390894Y0115635D02*
X0386119Y0115635D01*
X0386324Y0115721D02*
X0387724Y0117120D01*
X0388481Y0118948D01*
X0388481Y0126077D01*
X0387724Y0127906D01*
X0386324Y0129305D01*
X0384496Y0130062D01*
X0382517Y0130062D01*
X0380688Y0129305D01*
X0379289Y0127906D01*
X0378531Y0126077D01*
X0378531Y0118948D01*
X0379289Y0117120D01*
X0380688Y0115721D01*
X0382517Y0114963D01*
X0384496Y0114963D01*
X0386324Y0115721D01*
X0387771Y0117234D02*
X0389242Y0117234D01*
X0388580Y0118832D02*
X0388433Y0118832D01*
X0388481Y0120431D02*
X0388531Y0120431D01*
X0388481Y0122029D02*
X0388531Y0122029D01*
X0388481Y0123628D02*
X0388531Y0123628D01*
X0388481Y0125226D02*
X0388531Y0125226D01*
X0388841Y0126825D02*
X0388171Y0126825D01*
X0387206Y0128423D02*
X0389807Y0128423D01*
X0392419Y0130022D02*
X0384593Y0130022D01*
X0382419Y0130022D02*
X0374593Y0130022D01*
X0374496Y0130062D02*
X0372517Y0130062D01*
X0370688Y0129305D01*
X0369289Y0127906D01*
X0368531Y0126077D01*
X0368531Y0118948D01*
X0369289Y0117120D01*
X0370688Y0115721D01*
X0372517Y0114963D01*
X0374496Y0114963D01*
X0376324Y0115721D01*
X0377724Y0117120D01*
X0378481Y0118948D01*
X0378481Y0126077D01*
X0377724Y0127906D01*
X0376324Y0129305D01*
X0374496Y0130062D01*
X0372419Y0130022D02*
X0364593Y0130022D01*
X0364496Y0130062D02*
X0362517Y0130062D01*
X0360688Y0129305D01*
X0359289Y0127906D01*
X0358531Y0126077D01*
X0358531Y0118948D01*
X0359289Y0117120D01*
X0360688Y0115721D01*
X0362517Y0114963D01*
X0364496Y0114963D01*
X0366324Y0115721D01*
X0367724Y0117120D01*
X0368481Y0118948D01*
X0368481Y0126077D01*
X0367724Y0127906D01*
X0366324Y0129305D01*
X0364496Y0130062D01*
X0362419Y0130022D02*
X0354593Y0130022D01*
X0354496Y0130062D02*
X0352517Y0130062D01*
X0350688Y0129305D01*
X0349289Y0127906D01*
X0348531Y0126077D01*
X0348531Y0118948D01*
X0349289Y0117120D01*
X0350688Y0115721D01*
X0352517Y0114963D01*
X0354496Y0114963D01*
X0356324Y0115721D01*
X0357724Y0117120D01*
X0358481Y0118948D01*
X0358481Y0126077D01*
X0357724Y0127906D01*
X0356324Y0129305D01*
X0354496Y0130062D01*
X0352419Y0130022D02*
X0344593Y0130022D01*
X0344496Y0130062D02*
X0342517Y0130062D01*
X0340688Y0129305D01*
X0339289Y0127906D01*
X0338531Y0126077D01*
X0338531Y0118948D01*
X0339289Y0117120D01*
X0340688Y0115721D01*
X0342517Y0114963D01*
X0344496Y0114963D01*
X0346324Y0115721D01*
X0347724Y0117120D01*
X0348481Y0118948D01*
X0348481Y0126077D01*
X0347724Y0127906D01*
X0346324Y0129305D01*
X0344496Y0130062D01*
X0342419Y0130022D02*
X0334593Y0130022D01*
X0334496Y0130062D02*
X0332517Y0130062D01*
X0330688Y0129305D01*
X0329289Y0127906D01*
X0328531Y0126077D01*
X0328531Y0118948D01*
X0329289Y0117120D01*
X0330688Y0115721D01*
X0332517Y0114963D01*
X0334496Y0114963D01*
X0336324Y0115721D01*
X0337724Y0117120D01*
X0338481Y0118948D01*
X0338481Y0126077D01*
X0337724Y0127906D01*
X0336324Y0129305D01*
X0334496Y0130062D01*
X0332419Y0130022D02*
X0324593Y0130022D01*
X0324496Y0130062D02*
X0322517Y0130062D01*
X0320688Y0129305D01*
X0319289Y0127906D01*
X0318531Y0126077D01*
X0318531Y0118948D01*
X0319289Y0117120D01*
X0320688Y0115721D01*
X0322517Y0114963D01*
X0324496Y0114963D01*
X0326324Y0115721D01*
X0327724Y0117120D01*
X0328481Y0118948D01*
X0328481Y0126077D01*
X0327724Y0127906D01*
X0326324Y0129305D01*
X0324496Y0130062D01*
X0322419Y0130022D02*
X0290869Y0130022D01*
X0291206Y0131620D02*
X0476307Y0131620D01*
X0476307Y0130022D02*
X0464593Y0130022D01*
X0464496Y0130062D02*
X0462517Y0130062D01*
X0460688Y0129305D01*
X0459289Y0127906D01*
X0458531Y0126077D01*
X0458531Y0118948D01*
X0459289Y0117120D01*
X0460688Y0115721D01*
X0462517Y0114963D01*
X0464496Y0114963D01*
X0466324Y0115721D01*
X0467724Y0117120D01*
X0468481Y0118948D01*
X0468481Y0126077D01*
X0467724Y0127906D01*
X0466324Y0129305D01*
X0464496Y0130062D01*
X0462419Y0130022D02*
X0454593Y0130022D01*
X0454496Y0130062D02*
X0452517Y0130062D01*
X0450688Y0129305D01*
X0449289Y0127906D01*
X0448531Y0126077D01*
X0448531Y0118948D01*
X0449289Y0117120D01*
X0450688Y0115721D01*
X0452517Y0114963D01*
X0454496Y0114963D01*
X0456324Y0115721D01*
X0457724Y0117120D01*
X0458481Y0118948D01*
X0458481Y0126077D01*
X0457724Y0127906D01*
X0456324Y0129305D01*
X0454496Y0130062D01*
X0452419Y0130022D02*
X0444593Y0130022D01*
X0444496Y0130062D02*
X0442517Y0130062D01*
X0440688Y0129305D01*
X0439289Y0127906D01*
X0438531Y0126077D01*
X0438531Y0118948D01*
X0439289Y0117120D01*
X0440688Y0115721D01*
X0442517Y0114963D01*
X0444496Y0114963D01*
X0446324Y0115721D01*
X0447724Y0117120D01*
X0448481Y0118948D01*
X0448481Y0126077D01*
X0447724Y0127906D01*
X0446324Y0129305D01*
X0444496Y0130062D01*
X0442419Y0130022D02*
X0434593Y0130022D01*
X0434496Y0130062D02*
X0432517Y0130062D01*
X0430688Y0129305D01*
X0429289Y0127906D01*
X0428531Y0126077D01*
X0428531Y0118948D01*
X0429289Y0117120D01*
X0430688Y0115721D01*
X0432517Y0114963D01*
X0434496Y0114963D01*
X0436324Y0115721D01*
X0437724Y0117120D01*
X0438481Y0118948D01*
X0438481Y0126077D01*
X0437724Y0127906D01*
X0436324Y0129305D01*
X0434496Y0130062D01*
X0432419Y0130022D02*
X0424593Y0130022D01*
X0424496Y0130062D02*
X0422517Y0130062D01*
X0420688Y0129305D01*
X0419289Y0127906D01*
X0418531Y0126077D01*
X0418531Y0118948D01*
X0419289Y0117120D01*
X0420688Y0115721D01*
X0422517Y0114963D01*
X0424496Y0114963D01*
X0426324Y0115721D01*
X0427724Y0117120D01*
X0428481Y0118948D01*
X0428481Y0126077D01*
X0427724Y0127906D01*
X0426324Y0129305D01*
X0424496Y0130062D01*
X0422419Y0130022D02*
X0414593Y0130022D01*
X0414496Y0130062D02*
X0412517Y0130062D01*
X0410688Y0129305D01*
X0409289Y0127906D01*
X0408531Y0126077D01*
X0408531Y0118948D01*
X0409289Y0117120D01*
X0410688Y0115721D01*
X0412517Y0114963D01*
X0414496Y0114963D01*
X0416324Y0115721D01*
X0417724Y0117120D01*
X0418481Y0118948D01*
X0418481Y0126077D01*
X0417724Y0127906D01*
X0416324Y0129305D01*
X0414496Y0130062D01*
X0412419Y0130022D02*
X0404593Y0130022D01*
X0404496Y0130062D02*
X0402517Y0130062D01*
X0400688Y0129305D01*
X0399289Y0127906D01*
X0398531Y0126077D01*
X0398531Y0118948D01*
X0399289Y0117120D01*
X0400688Y0115721D01*
X0402517Y0114963D01*
X0404496Y0114963D01*
X0406324Y0115721D01*
X0407724Y0117120D01*
X0408481Y0118948D01*
X0408481Y0126077D01*
X0407724Y0127906D01*
X0406324Y0129305D01*
X0404496Y0130062D01*
X0402419Y0130022D02*
X0394593Y0130022D01*
X0397206Y0128423D02*
X0399807Y0128423D01*
X0398841Y0126825D02*
X0398171Y0126825D01*
X0398481Y0125226D02*
X0398531Y0125226D01*
X0398481Y0123628D02*
X0398531Y0123628D01*
X0398481Y0122029D02*
X0398531Y0122029D01*
X0398481Y0120431D02*
X0398531Y0120431D01*
X0398580Y0118832D02*
X0398433Y0118832D01*
X0397771Y0117234D02*
X0399242Y0117234D01*
X0400894Y0115635D02*
X0396119Y0115635D01*
X0406119Y0115635D02*
X0410894Y0115635D01*
X0409242Y0117234D02*
X0407771Y0117234D01*
X0408433Y0118832D02*
X0408580Y0118832D01*
X0408531Y0120431D02*
X0408481Y0120431D01*
X0408481Y0122029D02*
X0408531Y0122029D01*
X0408481Y0123628D02*
X0408531Y0123628D01*
X0408481Y0125226D02*
X0408531Y0125226D01*
X0408841Y0126825D02*
X0408171Y0126825D01*
X0407206Y0128423D02*
X0409807Y0128423D01*
X0409951Y0133219D02*
X0407061Y0133219D01*
X0399951Y0133219D02*
X0397061Y0133219D01*
X0389951Y0133219D02*
X0387061Y0133219D01*
X0379951Y0133219D02*
X0376213Y0133219D01*
X0377811Y0134817D02*
X0378353Y0134817D01*
X0377206Y0128423D02*
X0379807Y0128423D01*
X0378841Y0126825D02*
X0378171Y0126825D01*
X0378481Y0125226D02*
X0378531Y0125226D01*
X0378481Y0123628D02*
X0378531Y0123628D01*
X0378481Y0122029D02*
X0378531Y0122029D01*
X0378481Y0120431D02*
X0378531Y0120431D01*
X0378580Y0118832D02*
X0378433Y0118832D01*
X0377771Y0117234D02*
X0379242Y0117234D01*
X0380894Y0115635D02*
X0376119Y0115635D01*
X0370894Y0115635D02*
X0366119Y0115635D01*
X0367771Y0117234D02*
X0369242Y0117234D01*
X0368580Y0118832D02*
X0368433Y0118832D01*
X0368481Y0120431D02*
X0368531Y0120431D01*
X0368481Y0122029D02*
X0368531Y0122029D01*
X0368481Y0123628D02*
X0368531Y0123628D01*
X0368481Y0125226D02*
X0368531Y0125226D01*
X0368841Y0126825D02*
X0368171Y0126825D01*
X0367206Y0128423D02*
X0369807Y0128423D01*
X0359807Y0128423D02*
X0357206Y0128423D01*
X0358171Y0126825D02*
X0358841Y0126825D01*
X0358531Y0125226D02*
X0358481Y0125226D01*
X0358481Y0123628D02*
X0358531Y0123628D01*
X0358481Y0122029D02*
X0358531Y0122029D01*
X0358481Y0120431D02*
X0358531Y0120431D01*
X0358580Y0118832D02*
X0358433Y0118832D01*
X0357771Y0117234D02*
X0359242Y0117234D01*
X0360894Y0115635D02*
X0356119Y0115635D01*
X0350894Y0115635D02*
X0346119Y0115635D01*
X0347771Y0117234D02*
X0349242Y0117234D01*
X0348580Y0118832D02*
X0348433Y0118832D01*
X0348481Y0120431D02*
X0348531Y0120431D01*
X0348481Y0122029D02*
X0348531Y0122029D01*
X0348481Y0123628D02*
X0348531Y0123628D01*
X0348481Y0125226D02*
X0348531Y0125226D01*
X0348841Y0126825D02*
X0348171Y0126825D01*
X0347206Y0128423D02*
X0349807Y0128423D01*
X0339807Y0128423D02*
X0337206Y0128423D01*
X0338171Y0126825D02*
X0338841Y0126825D01*
X0338531Y0125226D02*
X0338481Y0125226D01*
X0338481Y0123628D02*
X0338531Y0123628D01*
X0338481Y0122029D02*
X0338531Y0122029D01*
X0338481Y0120431D02*
X0338531Y0120431D01*
X0338580Y0118832D02*
X0338433Y0118832D01*
X0337771Y0117234D02*
X0339242Y0117234D01*
X0340894Y0115635D02*
X0336119Y0115635D01*
X0330894Y0115635D02*
X0326119Y0115635D01*
X0327771Y0117234D02*
X0329242Y0117234D01*
X0328580Y0118832D02*
X0328433Y0118832D01*
X0328481Y0120431D02*
X0328531Y0120431D01*
X0328481Y0122029D02*
X0328531Y0122029D01*
X0328481Y0123628D02*
X0328531Y0123628D01*
X0328481Y0125226D02*
X0328531Y0125226D01*
X0328841Y0126825D02*
X0328171Y0126825D01*
X0327206Y0128423D02*
X0329807Y0128423D01*
X0319807Y0128423D02*
X0289606Y0128423D01*
X0289606Y0126825D02*
X0318841Y0126825D01*
X0318531Y0125226D02*
X0289606Y0125226D01*
X0289606Y0123628D02*
X0318531Y0123628D01*
X0318531Y0122029D02*
X0289606Y0122029D01*
X0289606Y0120431D02*
X0318531Y0120431D01*
X0318580Y0118832D02*
X0289606Y0118832D01*
X0289606Y0117234D02*
X0319242Y0117234D01*
X0320894Y0115635D02*
X0289606Y0115635D01*
X0289606Y0114037D02*
X0476307Y0114037D01*
X0476307Y0115635D02*
X0466119Y0115635D01*
X0467771Y0117234D02*
X0476307Y0117234D01*
X0476307Y0118832D02*
X0468433Y0118832D01*
X0468481Y0120431D02*
X0476307Y0120431D01*
X0476307Y0122029D02*
X0468481Y0122029D01*
X0468481Y0123628D02*
X0476307Y0123628D01*
X0476307Y0125226D02*
X0468481Y0125226D01*
X0468171Y0126825D02*
X0476307Y0126825D01*
X0476307Y0128423D02*
X0467206Y0128423D01*
X0476307Y0133219D02*
X0417061Y0133219D01*
X0418660Y0134817D02*
X0476307Y0134817D01*
X0476307Y0136416D02*
X0419056Y0136416D01*
X0419056Y0138015D02*
X0476307Y0138015D01*
X0476307Y0139613D02*
X0419056Y0139613D01*
X0417656Y0141212D02*
X0476307Y0141212D01*
X0476307Y0142810D02*
X0416058Y0142810D01*
X0410955Y0142810D02*
X0406058Y0142810D01*
X0407656Y0141212D02*
X0409356Y0141212D01*
X0400955Y0142810D02*
X0396058Y0142810D01*
X0397656Y0141212D02*
X0399356Y0141212D01*
X0400402Y0146007D02*
X0396611Y0146007D01*
X0396324Y0145721D02*
X0397724Y0147120D01*
X0398481Y0148948D01*
X0398481Y0156077D01*
X0397724Y0157906D01*
X0396324Y0159305D01*
X0394496Y0160062D01*
X0392517Y0160062D01*
X0390688Y0159305D01*
X0389289Y0157906D01*
X0388531Y0156077D01*
X0388531Y0148948D01*
X0389289Y0147120D01*
X0390688Y0145721D01*
X0392517Y0144963D01*
X0394496Y0144963D01*
X0396324Y0145721D01*
X0397925Y0147606D02*
X0399088Y0147606D01*
X0398531Y0149204D02*
X0398481Y0149204D01*
X0398481Y0150803D02*
X0398531Y0150803D01*
X0398481Y0152401D02*
X0398531Y0152401D01*
X0398481Y0154000D02*
X0398531Y0154000D01*
X0398481Y0155598D02*
X0398531Y0155598D01*
X0398995Y0157197D02*
X0398017Y0157197D01*
X0396834Y0158795D02*
X0400178Y0158795D01*
X0406834Y0158795D02*
X0419870Y0158795D01*
X0418306Y0160394D02*
X0229206Y0160394D01*
X0229206Y0161992D02*
X0418306Y0161992D01*
X0418306Y0163591D02*
X0229206Y0163591D01*
X0228891Y0165189D02*
X0418829Y0165189D01*
X0419906Y0179576D02*
X0084406Y0179576D01*
X0084406Y0181174D02*
X0419906Y0181174D01*
X0419906Y0182773D02*
X0084406Y0182773D01*
X0084406Y0184371D02*
X0108496Y0184371D01*
X0106897Y0185970D02*
X0084406Y0185970D01*
X0084406Y0187568D02*
X0105299Y0187568D01*
X0104206Y0189167D02*
X0084406Y0189167D01*
X0084406Y0190765D02*
X0104206Y0190765D01*
X0112706Y0190765D02*
X0114306Y0190765D01*
X0114306Y0189167D02*
X0112706Y0189167D01*
X0112706Y0187568D02*
X0114306Y0187568D01*
X0114306Y0185970D02*
X0112706Y0185970D01*
X0112706Y0184371D02*
X0114306Y0184371D01*
X0118517Y0184371D02*
X0419906Y0184371D01*
X0419906Y0185970D02*
X0120116Y0185970D01*
X0115867Y0178213D02*
X0111145Y0178213D01*
X0107806Y0174874D01*
X0107806Y0170152D01*
X0111145Y0166813D01*
X0115867Y0166813D01*
X0119206Y0170152D01*
X0119206Y0174874D01*
X0115867Y0178213D01*
X0116103Y0177977D02*
X0150910Y0177977D01*
X0149311Y0176379D02*
X0117701Y0176379D01*
X0119206Y0174780D02*
X0147806Y0174780D01*
X0147806Y0173182D02*
X0119206Y0173182D01*
X0119206Y0171583D02*
X0147806Y0171583D01*
X0147973Y0169985D02*
X0119039Y0169985D01*
X0117441Y0168386D02*
X0149572Y0168386D01*
X0149720Y0166788D02*
X0084406Y0166788D01*
X0084406Y0168386D02*
X0109572Y0168386D01*
X0107973Y0169985D02*
X0084406Y0169985D01*
X0084406Y0171583D02*
X0107806Y0171583D01*
X0107806Y0173182D02*
X0084406Y0173182D01*
X0084406Y0174780D02*
X0107806Y0174780D01*
X0109311Y0176379D02*
X0084406Y0176379D01*
X0084406Y0177977D02*
X0110910Y0177977D01*
X0122806Y0195561D02*
X0148493Y0195561D01*
X0150092Y0197159D02*
X0122012Y0197159D01*
X0120413Y0198758D02*
X0130049Y0198758D01*
X0133420Y0198758D02*
X0133592Y0198758D01*
X0133592Y0200356D02*
X0133420Y0200356D01*
X0133420Y0201955D02*
X0133592Y0201955D01*
X0156921Y0197159D02*
X0160092Y0197159D01*
X0163506Y0166788D02*
X0163506Y0166788D01*
X0148122Y0165189D02*
X0084406Y0165189D01*
X0084406Y0163591D02*
X0147806Y0163591D01*
X0147806Y0161992D02*
X0084406Y0161992D01*
X0084406Y0160394D02*
X0147806Y0160394D01*
X0149163Y0158795D02*
X0084406Y0158795D01*
X0084406Y0157197D02*
X0110978Y0157197D01*
X0111394Y0157613D02*
X0108406Y0154625D01*
X0108406Y0152513D01*
X0113506Y0152513D01*
X0113506Y0152513D01*
X0113506Y0157613D01*
X0111394Y0157613D01*
X0113506Y0157613D02*
X0113506Y0152513D01*
X0113506Y0152513D01*
X0108406Y0152513D01*
X0108406Y0150400D01*
X0111394Y0147413D01*
X0113506Y0147413D01*
X0113506Y0152513D01*
X0113506Y0152513D01*
X0118606Y0152513D01*
X0118606Y0154625D01*
X0115619Y0157613D01*
X0113506Y0157613D01*
X0113506Y0157197D02*
X0113506Y0157197D01*
X0113506Y0155598D02*
X0113506Y0155598D01*
X0113506Y0154000D02*
X0113506Y0154000D01*
X0113506Y0152513D02*
X0113506Y0152513D01*
X0113506Y0147413D01*
X0115619Y0147413D01*
X0118606Y0150400D01*
X0118606Y0152513D01*
X0113506Y0152513D01*
X0113506Y0152401D02*
X0113506Y0152401D01*
X0113506Y0150803D02*
X0113506Y0150803D01*
X0113506Y0149204D02*
X0113506Y0149204D01*
X0113506Y0147606D02*
X0113506Y0147606D01*
X0111201Y0147606D02*
X0084406Y0147606D01*
X0084406Y0149204D02*
X0109602Y0149204D01*
X0108406Y0150803D02*
X0084406Y0150803D01*
X0084406Y0152401D02*
X0108406Y0152401D01*
X0108406Y0154000D02*
X0084406Y0154000D01*
X0084406Y0155598D02*
X0109379Y0155598D01*
X0116035Y0157197D02*
X0150129Y0157197D01*
X0148531Y0155598D02*
X0117633Y0155598D01*
X0118606Y0154000D02*
X0147806Y0154000D01*
X0147806Y0152401D02*
X0118606Y0152401D01*
X0118606Y0150803D02*
X0147806Y0150803D01*
X0148754Y0149204D02*
X0117410Y0149204D01*
X0115812Y0147606D02*
X0150352Y0147606D01*
X0180055Y0115635D02*
X0197806Y0115635D01*
X0198040Y0115869D02*
X0197550Y0115379D01*
X0197143Y0114819D01*
X0196829Y0114202D01*
X0196615Y0113543D01*
X0196506Y0112859D01*
X0196506Y0112513D01*
X0203506Y0112513D01*
X0203506Y0112513D01*
X0203506Y0116913D01*
X0200560Y0116913D01*
X0199876Y0116804D01*
X0199217Y0116590D01*
X0198600Y0116276D01*
X0198040Y0115869D01*
X0196775Y0114037D02*
X0180887Y0114037D01*
X0181106Y0112438D02*
X0196506Y0112438D01*
X0196506Y0112513D02*
X0196506Y0112166D01*
X0196615Y0111482D01*
X0196829Y0110824D01*
X0197143Y0110207D01*
X0197550Y0109646D01*
X0198040Y0109157D01*
X0198600Y0108750D01*
X0199217Y0108435D01*
X0199876Y0108221D01*
X0200560Y0108113D01*
X0203506Y0108113D01*
X0203506Y0112513D01*
X0203506Y0112513D01*
X0196506Y0112513D01*
X0196823Y0110840D02*
X0180825Y0110840D01*
X0179906Y0109241D02*
X0197955Y0109241D01*
X0198074Y0106752D02*
X0196668Y0105345D01*
X0195906Y0103507D01*
X0195906Y0101518D01*
X0196668Y0099680D01*
X0198074Y0098274D01*
X0199912Y0097513D01*
X0207101Y0097513D01*
X0208939Y0098274D01*
X0210345Y0099680D01*
X0211106Y0101518D01*
X0211106Y0103507D01*
X0210345Y0105345D01*
X0208939Y0106752D01*
X0207101Y0107513D01*
X0199912Y0107513D01*
X0198074Y0106752D01*
X0197367Y0106044D02*
X0179646Y0106044D01*
X0180718Y0104446D02*
X0196295Y0104446D01*
X0195906Y0102847D02*
X0181106Y0102847D01*
X0180995Y0101249D02*
X0196018Y0101249D01*
X0196698Y0099650D02*
X0180315Y0099650D01*
X0178402Y0098052D02*
X0198611Y0098052D01*
X0198074Y0096752D02*
X0199912Y0097513D01*
X0207101Y0097513D01*
X0208939Y0096752D01*
X0210345Y0095345D01*
X0211106Y0093507D01*
X0211106Y0091518D01*
X0210345Y0089680D01*
X0208939Y0088274D01*
X0207101Y0087513D01*
X0199912Y0087513D01*
X0198074Y0088274D01*
X0196668Y0089680D01*
X0195906Y0091518D01*
X0195906Y0093507D01*
X0196668Y0095345D01*
X0198074Y0096752D01*
X0197776Y0096453D02*
X0179237Y0096453D01*
X0180548Y0094855D02*
X0196464Y0094855D01*
X0195906Y0093256D02*
X0181106Y0093256D01*
X0181106Y0091658D02*
X0195906Y0091658D01*
X0196511Y0090059D02*
X0180502Y0090059D01*
X0179125Y0088461D02*
X0197887Y0088461D01*
X0198341Y0086862D02*
X0178672Y0086862D01*
X0180379Y0085264D02*
X0196634Y0085264D01*
X0196668Y0085345D02*
X0195906Y0083507D01*
X0195906Y0081518D01*
X0196668Y0079680D01*
X0198074Y0078274D01*
X0199912Y0077513D01*
X0207101Y0077513D01*
X0208939Y0078274D01*
X0210345Y0079680D01*
X0211106Y0081518D01*
X0211106Y0083507D01*
X0210345Y0085345D01*
X0208939Y0086752D01*
X0207101Y0087513D01*
X0199912Y0087513D01*
X0198074Y0086752D01*
X0196668Y0085345D01*
X0195972Y0083665D02*
X0181041Y0083665D01*
X0181106Y0082067D02*
X0195906Y0082067D01*
X0196341Y0080468D02*
X0180671Y0080468D01*
X0179534Y0078870D02*
X0197478Y0078870D01*
X0197485Y0069279D02*
X0320662Y0069279D01*
X0320688Y0069305D02*
X0319289Y0067906D01*
X0318531Y0066077D01*
X0318531Y0058948D01*
X0319289Y0057120D01*
X0320688Y0055721D01*
X0322517Y0054963D01*
X0324496Y0054963D01*
X0326324Y0055721D01*
X0327724Y0057120D01*
X0328481Y0058948D01*
X0328481Y0066077D01*
X0327724Y0067906D01*
X0326324Y0069305D01*
X0324496Y0070062D01*
X0322517Y0070062D01*
X0320688Y0069305D01*
X0319195Y0067680D02*
X0195886Y0067680D01*
X0193506Y0067680D02*
X0193506Y0067680D01*
X0180204Y0077271D02*
X0084406Y0077271D01*
X0084406Y0075673D02*
X0178605Y0075673D01*
X0208672Y0086862D02*
X0220785Y0086862D01*
X0219497Y0088461D02*
X0209125Y0088461D01*
X0210502Y0090059D02*
X0217899Y0090059D01*
X0217806Y0091658D02*
X0211106Y0091658D01*
X0211106Y0093256D02*
X0217806Y0093256D01*
X0217806Y0094855D02*
X0210548Y0094855D01*
X0209237Y0096453D02*
X0219386Y0096453D01*
X0220896Y0098052D02*
X0208402Y0098052D01*
X0210315Y0099650D02*
X0219298Y0099650D01*
X0218506Y0101249D02*
X0210995Y0101249D01*
X0211106Y0102847D02*
X0218506Y0102847D01*
X0218506Y0104446D02*
X0210718Y0104446D01*
X0209646Y0106044D02*
X0219967Y0106044D01*
X0220315Y0107643D02*
X0177415Y0107643D01*
X0203506Y0108113D02*
X0206453Y0108113D01*
X0207137Y0108221D01*
X0207795Y0108435D01*
X0208412Y0108750D01*
X0208973Y0109157D01*
X0209462Y0109646D01*
X0209870Y0110207D01*
X0210184Y0110824D01*
X0210398Y0111482D01*
X0210506Y0112166D01*
X0210506Y0112513D01*
X0210506Y0112859D01*
X0210398Y0113543D01*
X0210184Y0114202D01*
X0209870Y0114819D01*
X0209462Y0115379D01*
X0208973Y0115869D01*
X0208412Y0116276D01*
X0207795Y0116590D01*
X0207137Y0116804D01*
X0206453Y0116913D01*
X0203506Y0116913D01*
X0203506Y0112513D01*
X0203506Y0112513D01*
X0210506Y0112513D01*
X0203506Y0112513D01*
X0203506Y0112513D01*
X0203506Y0108113D01*
X0203506Y0109241D02*
X0203506Y0109241D01*
X0203506Y0110840D02*
X0203506Y0110840D01*
X0203506Y0112438D02*
X0203506Y0112438D01*
X0203506Y0114037D02*
X0203506Y0114037D01*
X0203506Y0115635D02*
X0203506Y0115635D01*
X0209206Y0115635D02*
X0218568Y0115635D01*
X0217806Y0114037D02*
X0210238Y0114037D01*
X0210506Y0112438D02*
X0217806Y0112438D01*
X0217806Y0110840D02*
X0210189Y0110840D01*
X0209057Y0109241D02*
X0218717Y0109241D01*
X0229206Y0094855D02*
X0258636Y0094855D01*
X0258406Y0093256D02*
X0229206Y0093256D01*
X0229206Y0091658D02*
X0258406Y0091658D01*
X0258747Y0090059D02*
X0229114Y0090059D01*
X0227515Y0088461D02*
X0260346Y0088461D01*
X0260785Y0086862D02*
X0226228Y0086862D01*
X0227826Y0085264D02*
X0259186Y0085264D01*
X0258506Y0083665D02*
X0228506Y0083665D01*
X0228506Y0082067D02*
X0258506Y0082067D01*
X0258506Y0080468D02*
X0228506Y0080468D01*
X0226934Y0078870D02*
X0260078Y0078870D01*
X0267826Y0085264D02*
X0476307Y0085264D01*
X0476307Y0086862D02*
X0266228Y0086862D01*
X0266667Y0088461D02*
X0282704Y0088461D01*
X0281106Y0090059D02*
X0268265Y0090059D01*
X0268606Y0091658D02*
X0280806Y0091658D01*
X0280806Y0093256D02*
X0268606Y0093256D01*
X0268606Y0092513D02*
X0263506Y0092513D01*
X0263506Y0092513D01*
X0268606Y0092513D01*
X0268377Y0094855D02*
X0280994Y0094855D01*
X0282406Y0096453D02*
X0266778Y0096453D01*
X0263506Y0096453D02*
X0263506Y0096453D01*
X0263506Y0094855D02*
X0263506Y0094855D01*
X0263506Y0093256D02*
X0263506Y0093256D01*
X0263506Y0099650D02*
X0263506Y0099650D01*
X0263506Y0101249D02*
X0263506Y0101249D01*
X0289606Y0101249D02*
X0476307Y0101249D01*
X0476307Y0102847D02*
X0466690Y0102847D01*
X0465805Y0101963D02*
X0469056Y0105214D01*
X0469056Y0109812D01*
X0465805Y0113063D01*
X0461207Y0113063D01*
X0458506Y0110362D01*
X0455805Y0113063D01*
X0451207Y0113063D01*
X0448506Y0110362D01*
X0445805Y0113063D01*
X0441207Y0113063D01*
X0437956Y0109812D01*
X0437956Y0105214D01*
X0441207Y0101963D01*
X0445805Y0101963D01*
X0448506Y0104664D01*
X0451207Y0101963D01*
X0455805Y0101963D01*
X0458506Y0104664D01*
X0461207Y0101963D01*
X0465805Y0101963D01*
X0468288Y0104446D02*
X0476307Y0104446D01*
X0476307Y0106044D02*
X0469056Y0106044D01*
X0469056Y0107643D02*
X0476307Y0107643D01*
X0476307Y0109241D02*
X0469056Y0109241D01*
X0468028Y0110840D02*
X0476307Y0110840D01*
X0476307Y0112438D02*
X0466430Y0112438D01*
X0460894Y0115635D02*
X0456119Y0115635D01*
X0457771Y0117234D02*
X0459242Y0117234D01*
X0458580Y0118832D02*
X0458433Y0118832D01*
X0458481Y0120431D02*
X0458531Y0120431D01*
X0458481Y0122029D02*
X0458531Y0122029D01*
X0458481Y0123628D02*
X0458531Y0123628D01*
X0458481Y0125226D02*
X0458531Y0125226D01*
X0458841Y0126825D02*
X0458171Y0126825D01*
X0457206Y0128423D02*
X0459807Y0128423D01*
X0449807Y0128423D02*
X0447206Y0128423D01*
X0448171Y0126825D02*
X0448841Y0126825D01*
X0448531Y0125226D02*
X0448481Y0125226D01*
X0448481Y0123628D02*
X0448531Y0123628D01*
X0448481Y0122029D02*
X0448531Y0122029D01*
X0448481Y0120431D02*
X0448531Y0120431D01*
X0448580Y0118832D02*
X0448433Y0118832D01*
X0447771Y0117234D02*
X0449242Y0117234D01*
X0450894Y0115635D02*
X0446119Y0115635D01*
X0446430Y0112438D02*
X0450583Y0112438D01*
X0448984Y0110840D02*
X0448028Y0110840D01*
X0448288Y0104446D02*
X0448724Y0104446D01*
X0450323Y0102847D02*
X0446690Y0102847D01*
X0440323Y0102847D02*
X0289606Y0102847D01*
X0289606Y0104446D02*
X0438724Y0104446D01*
X0437956Y0106044D02*
X0289606Y0106044D01*
X0289606Y0107643D02*
X0437956Y0107643D01*
X0437956Y0109241D02*
X0289606Y0109241D01*
X0289606Y0110840D02*
X0438984Y0110840D01*
X0440583Y0112438D02*
X0289606Y0112438D01*
X0289606Y0099650D02*
X0476307Y0099650D01*
X0476307Y0098052D02*
X0289606Y0098052D01*
X0289606Y0096453D02*
X0476307Y0096453D01*
X0476307Y0094855D02*
X0291018Y0094855D01*
X0291206Y0093256D02*
X0476307Y0093256D01*
X0476307Y0091658D02*
X0291206Y0091658D01*
X0290907Y0090059D02*
X0476307Y0090059D01*
X0476307Y0088461D02*
X0289308Y0088461D01*
X0318533Y0066081D02*
X0140243Y0066081D01*
X0128179Y0066081D02*
X0113229Y0066081D01*
X0113981Y0065648D02*
X0109644Y0068151D01*
X0104762Y0069266D01*
X0099768Y0068892D01*
X0095106Y0067062D01*
X0091191Y0063940D01*
X0091191Y0063940D01*
X0088370Y0059802D01*
X0086894Y0055017D01*
X0086894Y0050009D01*
X0088370Y0045224D01*
X0088370Y0045223D01*
X0091191Y0041086D01*
X0091191Y0041086D01*
X0095106Y0037964D01*
X0099768Y0036134D01*
X0104762Y0035760D01*
X0109644Y0036874D01*
X0109644Y0036874D01*
X0113981Y0039378D01*
X0117387Y0043049D01*
X0119560Y0047561D01*
X0120306Y0052513D01*
X0119560Y0057465D01*
X0117387Y0061977D01*
X0113981Y0065648D01*
X0113981Y0065648D01*
X0115061Y0064483D02*
X0318531Y0064483D01*
X0318531Y0062884D02*
X0116545Y0062884D01*
X0117387Y0061977D02*
X0117387Y0061977D01*
X0117720Y0061286D02*
X0318531Y0061286D01*
X0318531Y0059687D02*
X0118489Y0059687D01*
X0119259Y0058089D02*
X0318887Y0058089D01*
X0319918Y0056490D02*
X0119707Y0056490D01*
X0119560Y0057465D02*
X0119560Y0057465D01*
X0119948Y0054892D02*
X0476307Y0054892D01*
X0476307Y0056490D02*
X0467094Y0056490D01*
X0468125Y0058089D02*
X0476307Y0058089D01*
X0476307Y0059687D02*
X0468481Y0059687D01*
X0468481Y0061286D02*
X0476307Y0061286D01*
X0476307Y0062884D02*
X0468481Y0062884D01*
X0468481Y0064483D02*
X0476307Y0064483D01*
X0476307Y0066081D02*
X0468479Y0066081D01*
X0467817Y0067680D02*
X0476307Y0067680D01*
X0476307Y0053293D02*
X0120189Y0053293D01*
X0120183Y0051695D02*
X0476307Y0051695D01*
X0476307Y0050096D02*
X0119942Y0050096D01*
X0119701Y0048498D02*
X0476307Y0048498D01*
X0476307Y0046899D02*
X0119241Y0046899D01*
X0119560Y0047561D02*
X0119560Y0047561D01*
X0118472Y0045301D02*
X0476307Y0045301D01*
X0476307Y0043702D02*
X0117702Y0043702D01*
X0117387Y0043049D02*
X0117387Y0043049D01*
X0116510Y0042104D02*
X0476307Y0042104D01*
X0476307Y0040505D02*
X0115027Y0040505D01*
X0113165Y0038907D02*
X0476307Y0038907D01*
X0476307Y0037308D02*
X0110396Y0037308D01*
X0096776Y0037308D02*
X0084406Y0037308D01*
X0084406Y0035710D02*
X0476307Y0035710D01*
X0476307Y0034111D02*
X0084406Y0034111D01*
X0084406Y0038907D02*
X0093923Y0038907D01*
X0095106Y0037964D02*
X0095106Y0037964D01*
X0091919Y0040505D02*
X0084406Y0040505D01*
X0084406Y0042104D02*
X0090497Y0042104D01*
X0091191Y0041086D02*
X0091191Y0041086D01*
X0089407Y0043702D02*
X0084406Y0043702D01*
X0084406Y0045301D02*
X0088346Y0045301D01*
X0087853Y0046899D02*
X0084406Y0046899D01*
X0084406Y0048498D02*
X0087360Y0048498D01*
X0086894Y0050096D02*
X0084406Y0050096D01*
X0084406Y0051695D02*
X0086894Y0051695D01*
X0086894Y0053293D02*
X0084406Y0053293D01*
X0084406Y0054892D02*
X0086894Y0054892D01*
X0087349Y0056490D02*
X0084406Y0056490D01*
X0084406Y0058089D02*
X0087842Y0058089D01*
X0088335Y0059687D02*
X0084406Y0059687D01*
X0084406Y0061286D02*
X0089382Y0061286D01*
X0088370Y0059802D02*
X0088370Y0059802D01*
X0090472Y0062884D02*
X0084406Y0062884D01*
X0084406Y0064483D02*
X0091872Y0064483D01*
X0093877Y0066081D02*
X0084406Y0066081D01*
X0084406Y0067680D02*
X0096681Y0067680D01*
X0095106Y0067062D02*
X0095106Y0067062D01*
X0099768Y0068892D02*
X0099768Y0068892D01*
X0104762Y0069266D02*
X0104762Y0069266D01*
X0109644Y0068151D02*
X0109644Y0068151D01*
X0110461Y0067680D02*
X0127507Y0067680D01*
X0127507Y0069279D02*
X0084406Y0069279D01*
X0084406Y0070877D02*
X0126389Y0070877D01*
X0126106Y0072476D02*
X0084406Y0072476D01*
X0084406Y0074074D02*
X0126904Y0074074D01*
X0113506Y0093256D02*
X0113506Y0093256D01*
X0113506Y0094855D02*
X0113506Y0094855D01*
X0113506Y0096453D02*
X0113506Y0096453D01*
X0113506Y0099650D02*
X0113506Y0099650D01*
X0113506Y0101249D02*
X0113506Y0101249D01*
X0084406Y0098052D02*
X0150896Y0098052D01*
X0210379Y0085264D02*
X0219186Y0085264D01*
X0218506Y0083665D02*
X0211041Y0083665D01*
X0211106Y0082067D02*
X0218506Y0082067D01*
X0218506Y0080468D02*
X0210671Y0080468D01*
X0209534Y0078870D02*
X0220078Y0078870D01*
X0226066Y0138015D02*
X0368556Y0138015D01*
X0360402Y0146007D02*
X0356611Y0146007D01*
X0356324Y0145721D02*
X0357724Y0147120D01*
X0358481Y0148948D01*
X0358481Y0156077D01*
X0357724Y0157906D01*
X0356324Y0159305D01*
X0354496Y0160062D01*
X0352517Y0160062D01*
X0350688Y0159305D01*
X0349289Y0157906D01*
X0348531Y0156077D01*
X0348531Y0148948D01*
X0349289Y0147120D01*
X0350688Y0145721D01*
X0352517Y0144963D01*
X0354496Y0144963D01*
X0356324Y0145721D01*
X0357925Y0147606D02*
X0359088Y0147606D01*
X0358531Y0149204D02*
X0358481Y0149204D01*
X0358481Y0150803D02*
X0358531Y0150803D01*
X0358481Y0152401D02*
X0358531Y0152401D01*
X0358481Y0154000D02*
X0358531Y0154000D01*
X0358481Y0155598D02*
X0358531Y0155598D01*
X0358995Y0157197D02*
X0358017Y0157197D01*
X0356834Y0158795D02*
X0360178Y0158795D01*
X0350178Y0158795D02*
X0346834Y0158795D01*
X0346324Y0159305D02*
X0344496Y0160062D01*
X0342517Y0160062D01*
X0340688Y0159305D01*
X0339289Y0157906D01*
X0338531Y0156077D01*
X0338531Y0148948D01*
X0339289Y0147120D01*
X0340688Y0145721D01*
X0342517Y0144963D01*
X0344496Y0144963D01*
X0346324Y0145721D01*
X0347724Y0147120D01*
X0348481Y0148948D01*
X0348481Y0156077D01*
X0347724Y0157906D01*
X0346324Y0159305D01*
X0348017Y0157197D02*
X0348995Y0157197D01*
X0348531Y0155598D02*
X0348481Y0155598D01*
X0348481Y0154000D02*
X0348531Y0154000D01*
X0348481Y0152401D02*
X0348531Y0152401D01*
X0348481Y0150803D02*
X0348531Y0150803D01*
X0348481Y0149204D02*
X0348531Y0149204D01*
X0349088Y0147606D02*
X0347925Y0147606D01*
X0346611Y0146007D02*
X0350402Y0146007D01*
X0340402Y0146007D02*
X0336611Y0146007D01*
X0336324Y0145721D02*
X0337724Y0147120D01*
X0338481Y0148948D01*
X0338481Y0156077D01*
X0337724Y0157906D01*
X0336324Y0159305D01*
X0334496Y0160062D01*
X0332517Y0160062D01*
X0330688Y0159305D01*
X0329289Y0157906D01*
X0328531Y0156077D01*
X0328531Y0148948D01*
X0329289Y0147120D01*
X0330688Y0145721D01*
X0332517Y0144963D01*
X0334496Y0144963D01*
X0336324Y0145721D01*
X0337925Y0147606D02*
X0339088Y0147606D01*
X0338531Y0149204D02*
X0338481Y0149204D01*
X0338481Y0150803D02*
X0338531Y0150803D01*
X0338481Y0152401D02*
X0338531Y0152401D01*
X0338481Y0154000D02*
X0338531Y0154000D01*
X0338481Y0155598D02*
X0338531Y0155598D01*
X0338995Y0157197D02*
X0338017Y0157197D01*
X0336834Y0158795D02*
X0340178Y0158795D01*
X0330178Y0158795D02*
X0326834Y0158795D01*
X0326324Y0159305D02*
X0327724Y0157906D01*
X0328481Y0156077D01*
X0328481Y0148948D01*
X0327724Y0147120D01*
X0326324Y0145721D01*
X0324496Y0144963D01*
X0322517Y0144963D01*
X0320688Y0145721D01*
X0319289Y0147120D01*
X0318531Y0148948D01*
X0318531Y0156077D01*
X0319289Y0157906D01*
X0320688Y0159305D01*
X0322517Y0160062D01*
X0324496Y0160062D01*
X0326324Y0159305D01*
X0328017Y0157197D02*
X0328995Y0157197D01*
X0328531Y0155598D02*
X0328481Y0155598D01*
X0328481Y0154000D02*
X0328531Y0154000D01*
X0328481Y0152401D02*
X0328531Y0152401D01*
X0328481Y0150803D02*
X0328531Y0150803D01*
X0328481Y0149204D02*
X0328531Y0149204D01*
X0329088Y0147606D02*
X0327925Y0147606D01*
X0326611Y0146007D02*
X0330402Y0146007D01*
X0320402Y0146007D02*
X0315428Y0146007D01*
X0315186Y0145884D02*
X0315799Y0146196D01*
X0316356Y0146601D01*
X0316843Y0147088D01*
X0317248Y0147645D01*
X0317561Y0148259D01*
X0317773Y0148914D01*
X0317881Y0149594D01*
X0317881Y0152513D01*
X0317881Y0155432D01*
X0317773Y0156112D01*
X0317561Y0156767D01*
X0317248Y0157380D01*
X0316843Y0157938D01*
X0316356Y0158424D01*
X0315799Y0158829D01*
X0315186Y0159142D01*
X0314531Y0159355D01*
X0313851Y0159462D01*
X0313506Y0159462D01*
X0313506Y0152513D01*
X0313506Y0152513D01*
X0317881Y0152513D01*
X0313506Y0152513D01*
X0313506Y0152513D01*
X0313506Y0145563D01*
X0313851Y0145563D01*
X0314531Y0145671D01*
X0315186Y0145884D01*
X0313506Y0146007D02*
X0313506Y0146007D01*
X0313506Y0147606D02*
X0313506Y0147606D01*
X0313506Y0149204D02*
X0313506Y0149204D01*
X0313506Y0150803D02*
X0313506Y0150803D01*
X0313506Y0152401D02*
X0313506Y0152401D01*
X0313506Y0154000D02*
X0313506Y0154000D01*
X0313506Y0155598D02*
X0313506Y0155598D01*
X0313506Y0157197D02*
X0313506Y0157197D01*
X0313506Y0158795D02*
X0313506Y0158795D01*
X0311167Y0158795D02*
X0227850Y0158795D01*
X0219720Y0166788D02*
X0216444Y0166788D01*
X0218042Y0165189D02*
X0218122Y0165189D01*
X0315846Y0158795D02*
X0320178Y0158795D01*
X0318995Y0157197D02*
X0317342Y0157197D01*
X0317855Y0155598D02*
X0318531Y0155598D01*
X0318531Y0154000D02*
X0317881Y0154000D01*
X0317881Y0152401D02*
X0318531Y0152401D01*
X0318531Y0150803D02*
X0317881Y0150803D01*
X0317819Y0149204D02*
X0318531Y0149204D01*
X0319088Y0147606D02*
X0317219Y0147606D01*
X0386058Y0142810D02*
X0390955Y0142810D01*
X0389356Y0141212D02*
X0387656Y0141212D01*
X0386611Y0146007D02*
X0390402Y0146007D01*
X0389088Y0147606D02*
X0387925Y0147606D01*
X0388481Y0149204D02*
X0388531Y0149204D01*
X0388481Y0150803D02*
X0388531Y0150803D01*
X0388481Y0152401D02*
X0388531Y0152401D01*
X0388481Y0154000D02*
X0388531Y0154000D01*
X0388481Y0155598D02*
X0388531Y0155598D01*
X0388995Y0157197D02*
X0388017Y0157197D01*
X0386834Y0158795D02*
X0390178Y0158795D01*
X0417206Y0128423D02*
X0419807Y0128423D01*
X0418841Y0126825D02*
X0418171Y0126825D01*
X0418481Y0125226D02*
X0418531Y0125226D01*
X0418481Y0123628D02*
X0418531Y0123628D01*
X0418481Y0122029D02*
X0418531Y0122029D01*
X0418481Y0120431D02*
X0418531Y0120431D01*
X0418580Y0118832D02*
X0418433Y0118832D01*
X0417771Y0117234D02*
X0419242Y0117234D01*
X0420894Y0115635D02*
X0416119Y0115635D01*
X0426119Y0115635D02*
X0430894Y0115635D01*
X0429242Y0117234D02*
X0427771Y0117234D01*
X0428433Y0118832D02*
X0428580Y0118832D01*
X0428531Y0120431D02*
X0428481Y0120431D01*
X0428481Y0122029D02*
X0428531Y0122029D01*
X0428481Y0123628D02*
X0428531Y0123628D01*
X0428481Y0125226D02*
X0428531Y0125226D01*
X0428841Y0126825D02*
X0428171Y0126825D01*
X0427206Y0128423D02*
X0429807Y0128423D01*
X0437206Y0128423D02*
X0439807Y0128423D01*
X0438841Y0126825D02*
X0438171Y0126825D01*
X0438481Y0125226D02*
X0438531Y0125226D01*
X0438481Y0123628D02*
X0438531Y0123628D01*
X0438481Y0122029D02*
X0438531Y0122029D01*
X0438481Y0120431D02*
X0438531Y0120431D01*
X0438580Y0118832D02*
X0438433Y0118832D01*
X0437771Y0117234D02*
X0439242Y0117234D01*
X0440894Y0115635D02*
X0436119Y0115635D01*
X0456430Y0112438D02*
X0460583Y0112438D01*
X0458984Y0110840D02*
X0458028Y0110840D01*
X0458288Y0104446D02*
X0458724Y0104446D01*
X0460323Y0102847D02*
X0456690Y0102847D01*
X0340662Y0069279D02*
X0336351Y0069279D01*
X0336324Y0069305D02*
X0334496Y0070062D01*
X0332517Y0070062D01*
X0330688Y0069305D01*
X0329289Y0067906D01*
X0328531Y0066077D01*
X0328531Y0058948D01*
X0329289Y0057120D01*
X0330688Y0055721D01*
X0332517Y0054963D01*
X0334496Y0054963D01*
X0336324Y0055721D01*
X0337724Y0057120D01*
X0338481Y0058948D01*
X0338481Y0066077D01*
X0337724Y0067906D01*
X0336324Y0069305D01*
X0337817Y0067680D02*
X0339195Y0067680D01*
X0338533Y0066081D02*
X0338479Y0066081D01*
X0338481Y0064483D02*
X0338531Y0064483D01*
X0338481Y0062884D02*
X0338531Y0062884D01*
X0338481Y0061286D02*
X0338531Y0061286D01*
X0338481Y0059687D02*
X0338531Y0059687D01*
X0338887Y0058089D02*
X0338125Y0058089D01*
X0337094Y0056490D02*
X0339918Y0056490D01*
X0329918Y0056490D02*
X0327094Y0056490D01*
X0328125Y0058089D02*
X0328887Y0058089D01*
X0328531Y0059687D02*
X0328481Y0059687D01*
X0328481Y0061286D02*
X0328531Y0061286D01*
X0328481Y0062884D02*
X0328531Y0062884D01*
X0328481Y0064483D02*
X0328531Y0064483D01*
X0328479Y0066081D02*
X0328533Y0066081D01*
X0329195Y0067680D02*
X0327817Y0067680D01*
X0326351Y0069279D02*
X0330662Y0069279D01*
X0149646Y0248312D02*
X0147366Y0248312D01*
D18*
X0286006Y0132513D02*
X0286006Y0092513D01*
X0423506Y0162513D02*
X0423506Y0232513D01*
D19*
X0423506Y0232513D03*
X0423506Y0162513D03*
X0286006Y0132513D03*
X0286006Y0092513D03*
M02*
